G04*
G04 #@! TF.GenerationSoftware,Altium Limited,Altium Designer,18.0.7 (293)*
G04*
G04 Layer_Color=128*
%FSLAX25Y25*%
%MOIN*%
G70*
G01*
G75*
%ADD37C,0.00200*%
D37*
X66861Y33071D02*
X70461D01*
X68661Y31271D02*
Y34871D01*
X56861Y33071D02*
X60461D01*
X58661Y31271D02*
Y34871D01*
X46861Y33071D02*
X50461D01*
X48661Y31271D02*
Y34871D01*
X61861Y43071D02*
X65461D01*
X63661Y41271D02*
Y44871D01*
X51861Y43071D02*
X55461D01*
X53661Y41271D02*
Y44871D01*
X41861Y43071D02*
X45461D01*
X43661Y41271D02*
Y44871D01*
X69761Y8071D02*
X82561D01*
X76161Y1671D02*
Y14471D01*
X29761Y8071D02*
X42561D01*
X36161Y1671D02*
Y14471D01*
X6449Y114547D02*
X9598D01*
X8024Y112972D02*
Y116122D01*
X6449Y94547D02*
X9598D01*
X8024Y92972D02*
Y96122D01*
X26449Y94547D02*
X29598D01*
X28024Y92972D02*
Y96122D01*
X26449Y104547D02*
X29598D01*
X28024Y102972D02*
Y106122D01*
X26449Y114547D02*
X29598D01*
X28024Y112972D02*
Y116122D01*
X3374Y55547D02*
X7674D01*
X5524Y53397D02*
Y57697D01*
X3374Y45547D02*
X7674D01*
X5524Y43397D02*
Y47697D01*
X13374Y55547D02*
X17674D01*
X15524Y53397D02*
Y57697D01*
X13374Y45547D02*
X17674D01*
X15524Y43397D02*
Y47697D01*
X98917Y13780D02*
X109744D01*
X104331Y8366D02*
Y19193D01*
X8366Y13780D02*
X19193D01*
X13780Y8366D02*
Y19193D01*
X53642Y110236D02*
X64468D01*
X59055Y104823D02*
Y115650D01*
X36811Y80709D02*
X37992D01*
X37402Y80118D02*
Y81299D01*
X26575Y56693D02*
X27756D01*
X27165Y56102D02*
Y57284D01*
X64370Y70866D02*
X65551D01*
X64961Y70276D02*
Y71457D01*
X60433Y57087D02*
X61614D01*
X61024Y56496D02*
Y57677D01*
X108661Y29528D02*
X109843D01*
X109252Y28937D02*
Y30118D01*
M02*
