M48
;Layer_Color=9474304
;FILE_FORMAT=2:5
INCH,TZ
;TYPE=PLATED
T1F00S00C0.01181
T2F00S00C0.03150
T3F00S00C0.03600
T4F00S00C0.04300
T5F00S00C0.10827
T6F00S00C0.12800
%
T01
X27165Y56693
X37402Y80709
X64961Y70866
X61024Y57087
X109252Y29528
T02
X8024Y94547
Y114547
X28024
Y104547
Y94547
T03
X48661Y33071
X58661
X68661
X63661Y43071
X53661
X43661
T04
X5524Y45547
Y55547
X15524
Y45547
T05
X13780Y13780
X104331
X59055Y110236
T06
X36161Y8071
X76161
M30
