G04*
G04 #@! TF.GenerationSoftware,Altium Limited,Altium Designer,18.0.7 (293)*
G04*
G04 Layer_Color=8388736*
%FSLAX25Y25*%
%MOIN*%
G70*
G01*
G75*
%ADD21R,0.05524X0.06312*%
%ADD22O,0.06299X0.02559*%
%ADD23R,0.04737X0.03162*%
%ADD24R,0.05800X0.08800*%
%ADD25R,0.05131X0.06312*%
%ADD26R,0.05603X0.04422*%
%ADD27C,0.07300*%
%ADD28C,0.00800*%
%ADD29C,0.06800*%
%ADD30C,0.24422*%
%ADD31C,0.03300*%
D21*
X21654Y66535D02*
D03*
X14567D02*
D03*
X20866Y32283D02*
D03*
X13780D02*
D03*
X20276Y78740D02*
D03*
X13189D02*
D03*
X61417Y76772D02*
D03*
X68504D02*
D03*
X61417Y64961D02*
D03*
X68504D02*
D03*
D22*
X54630Y60300D02*
D03*
Y65300D02*
D03*
Y70300D02*
D03*
Y75300D02*
D03*
X33370Y60300D02*
D03*
Y65300D02*
D03*
Y70300D02*
D03*
Y75300D02*
D03*
D23*
X53937Y84646D02*
D03*
X44488Y80905D02*
D03*
Y88386D02*
D03*
D24*
X89882Y52181D02*
D03*
X99882D02*
D03*
D25*
X92520Y29528D02*
D03*
X98425D02*
D03*
D26*
X111811Y45075D02*
D03*
Y58075D02*
D03*
D27*
X68661Y33071D02*
D03*
X58661D02*
D03*
X48661D02*
D03*
X63661Y43071D02*
D03*
X53661D02*
D03*
X43661D02*
D03*
D28*
X76161Y8071D02*
D03*
X36161D02*
D03*
X8024Y114547D02*
D03*
Y94547D02*
D03*
D29*
X28024D02*
D03*
Y104547D02*
D03*
Y114547D02*
D03*
X5524Y55547D02*
D03*
Y45547D02*
D03*
X15524Y55547D02*
D03*
Y45547D02*
D03*
D30*
X104331Y13780D02*
D03*
X13780D02*
D03*
X59055Y110236D02*
D03*
D31*
X37402Y80709D02*
D03*
X27165Y56693D02*
D03*
X64961Y70866D02*
D03*
X61024Y57087D02*
D03*
X109252Y29528D02*
D03*
M02*
