G04*
G04 #@! TF.GenerationSoftware,Altium Limited,Altium Designer,18.0.7 (293)*
G04*
G04 Layer_Color=16711935*
%FSLAX25Y25*%
%MOIN*%
G70*
G01*
G75*
%ADD12C,0.01000*%
D12*
X0Y13780D02*
X35Y12797D01*
X140Y11818D01*
X315Y10851D01*
X558Y9897D01*
X869Y8964D01*
X1245Y8055D01*
X1685Y7176D01*
X2187Y6330D01*
X2748Y5522D01*
X3366Y4756D01*
X4036Y4036D01*
X4756Y3366D01*
X5522Y2748D01*
X6330Y2187D01*
X7176Y1685D01*
X8055Y1245D01*
X8964Y869D01*
X9897Y558D01*
X10851Y315D01*
X11818Y140D01*
X12797Y35D01*
X13780Y0D01*
X104724D02*
X105739Y53D01*
X106747Y181D01*
X107742Y384D01*
X108719Y661D01*
X109673Y1011D01*
X110598Y1431D01*
X111489Y1918D01*
X112342Y2471D01*
X113150Y3086D01*
X113910Y3760D01*
X114618Y4488D01*
X115270Y5268D01*
X115861Y6094D01*
X116389Y6962D01*
X116850Y7867D01*
X117243Y8804D01*
X117565Y9767D01*
X117814Y10752D01*
X117988Y11753D01*
X118087Y12764D01*
X118110Y13780D01*
Y101181D02*
X118088Y102177D01*
X118023Y103171D01*
X117915Y104162D01*
X117763Y105146D01*
X117569Y106123D01*
X117332Y107091D01*
X117053Y108048D01*
X116733Y108991D01*
X116372Y109920D01*
X115971Y110831D01*
X115530Y111725D01*
X115051Y112598D01*
X114534Y113450D01*
X113981Y114278D01*
X113391Y115082D01*
X112768Y115859D01*
X112111Y116608D01*
X111422Y117328D01*
X110702Y118017D01*
X109953Y118674D01*
X109176Y119297D01*
X108373Y119886D01*
X107545Y120440D01*
X106693Y120957D01*
X105819Y121436D01*
X104926Y121876D01*
X104014Y122278D01*
X103085Y122639D01*
X102142Y122959D01*
X101186Y123238D01*
X100218Y123475D01*
X99241Y123669D01*
X98256Y123820D01*
X97266Y123929D01*
X96272Y123994D01*
X95276Y124016D01*
X0Y13780D02*
Y124016D01*
X13780Y0D02*
X104724D01*
X118110Y13780D02*
Y101181D01*
X0Y124016D02*
X95276D01*
M02*
