G04*
G04 #@! TF.GenerationSoftware,Altium Limited,Altium Designer,18.0.7 (293)*
G04*
G04 Layer_Color=2752767*
%FSLAX25Y25*%
%MOIN*%
G70*
G01*
G75*
%ADD37C,0.00200*%
%ADD38C,0.00267*%
D37*
X67861Y32271D02*
Y33871D01*
X69461D01*
Y32271D01*
X67861D01*
X57861D02*
Y33871D01*
X59461D01*
Y32271D01*
X57861D01*
X47861D02*
Y33871D01*
X49461D01*
Y32271D01*
X47861D01*
X62861Y42271D02*
Y43871D01*
X64461D01*
Y42271D01*
X62861D01*
X52861D02*
Y43871D01*
X54461D01*
Y42271D01*
X52861D01*
X42861D02*
Y43871D01*
X44461D01*
Y42271D01*
X42861D01*
X8024Y113747D02*
X7224Y115347D01*
X8824D01*
X8024Y113747D01*
Y93747D02*
X7224Y95347D01*
X8824D01*
X8024Y93747D01*
X28024D02*
X27224Y95347D01*
X28824D01*
X28024Y93747D01*
Y103747D02*
X27224Y105347D01*
X28824D01*
X28024Y103747D01*
Y113747D02*
X27224Y115347D01*
X28824D01*
X28024Y113747D01*
X5524Y54747D02*
X5924Y55147D01*
X6324D01*
X5924Y55547D01*
X6324Y55947D01*
X5924D01*
X5524Y56347D01*
X5124Y55947D01*
X4724D01*
X5124Y55547D01*
X4724Y55147D01*
X5124D01*
X5524Y54747D01*
Y44747D02*
X5924Y45147D01*
X6324D01*
X5924Y45547D01*
X6324Y45947D01*
X5924D01*
X5524Y46347D01*
X5124Y45947D01*
X4724D01*
X5124Y45547D01*
X4724Y45147D01*
X5124D01*
X5524Y44747D01*
X15524Y54747D02*
X15924Y55147D01*
X16324D01*
X15924Y55547D01*
X16324Y55947D01*
X15924D01*
X15524Y56347D01*
X15124Y55947D01*
X14724D01*
X15124Y55547D01*
X14724Y55147D01*
X15124D01*
X15524Y54747D01*
Y44747D02*
X15924Y45147D01*
X16324D01*
X15924Y45547D01*
X16324Y45947D01*
X15924D01*
X15524Y46347D01*
X15124Y45947D01*
X14724D01*
X15124Y45547D01*
X14724Y45147D01*
X15124D01*
X15524Y44747D01*
X103531Y12979D02*
X103931Y13780D01*
X103531Y14580D01*
X104331Y14179D01*
X105131Y14580D01*
X104731Y13780D01*
X105131Y12979D01*
X104331Y13379D01*
X103531Y12979D01*
X12979D02*
X13379Y13780D01*
X12979Y14580D01*
X13780Y14179D01*
X14580Y14580D01*
X14179Y13780D01*
X14580Y12979D01*
X13780Y13379D01*
X12979Y12979D01*
X58255Y109436D02*
X58655Y110236D01*
X58255Y111036D01*
X59055Y110636D01*
X59855Y111036D01*
X59455Y110236D01*
X59855Y109436D01*
X59055Y109836D01*
X58255Y109436D01*
X37002Y80309D02*
Y79909D01*
X37802D01*
Y80309D01*
X38202D01*
Y81109D01*
X37802D01*
Y81509D01*
X37002D01*
Y81109D01*
X36602D01*
Y80309D01*
X37002D01*
X26765Y56293D02*
Y55893D01*
X27565D01*
Y56293D01*
X27965D01*
Y57093D01*
X27565D01*
Y57493D01*
X26765D01*
Y57093D01*
X26365D01*
Y56293D01*
X26765D01*
X64561Y70466D02*
Y70066D01*
X65361D01*
Y70466D01*
X65761D01*
Y71266D01*
X65361D01*
Y71666D01*
X64561D01*
Y71266D01*
X64161D01*
Y70466D01*
X64561D01*
X60624Y56687D02*
Y56287D01*
X61424D01*
Y56687D01*
X61824D01*
Y57487D01*
X61424D01*
Y57887D01*
X60624D01*
Y57487D01*
X60224D01*
Y56687D01*
X60624D01*
X108852Y29128D02*
Y28728D01*
X109652D01*
Y29128D01*
X110052D01*
Y29928D01*
X109652D01*
Y30328D01*
X108852D01*
Y29928D01*
X108452D01*
Y29128D01*
X108852D01*
D38*
X76961Y8071D02*
X76409Y8832D01*
X75514Y8541D01*
Y7601D01*
X76409Y7310D01*
X76961Y8071D01*
X36961D02*
X36409Y8832D01*
X35514Y8541D01*
Y7601D01*
X36409Y7310D01*
X36961Y8071D01*
M02*
