G04*
G04 #@! TF.GenerationSoftware,Altium Limited,Altium Designer,18.0.7 (293)*
G04*
G04 Layer_Physical_Order=1*
G04 Layer_Color=255*
%FSLAX25Y25*%
%MOIN*%
G70*
G01*
G75*
%ADD12C,0.01000*%
%ADD15R,0.04724X0.05512*%
%ADD16O,0.05906X0.02165*%
%ADD17R,0.03937X0.02362*%
%ADD18R,0.05000X0.08000*%
%ADD19R,0.04331X0.05512*%
%ADD20R,0.04803X0.03622*%
%ADD32C,0.06500*%
%ADD33C,0.06000*%
%ADD34C,0.23622*%
%ADD35C,0.02500*%
D12*
X62008Y73819D02*
Y76772D01*
X54460Y69429D02*
X61802Y76772D01*
X61476Y64429D02*
X62008Y64961D01*
Y62008D02*
Y64961D01*
X53937Y64429D02*
X61476D01*
X13976Y62795D02*
Y67716D01*
X22835D02*
X26122Y64429D01*
X20276Y65748D02*
X22244Y67716D01*
X89488Y51394D02*
X98331Y60236D01*
X89488Y51394D02*
Y56968D01*
X101575Y44488D02*
X111811D01*
X92323Y29528D02*
Y32480D01*
X67913Y76772D02*
X68961Y75724D01*
X67913Y76772D02*
Y78502D01*
X53937Y74429D02*
Y75500D01*
X67913Y64961D02*
X68961Y66008D01*
X105905Y36614D02*
X111811Y42520D01*
Y44488D01*
X99488Y46575D02*
X101575Y44488D01*
X99488Y46575D02*
Y51394D01*
X109650Y60236D02*
X110630Y59256D01*
X98331Y60236D02*
X109650D01*
X96457Y36614D02*
X105905D01*
X37402Y80709D02*
X44291D01*
X44488Y80905D01*
X31953Y84709D02*
X38252D01*
X68961Y66008D02*
Y75724D01*
X73622Y64961D02*
X85433Y53150D01*
Y36417D02*
Y53150D01*
Y36417D02*
X92323Y29528D01*
X20276Y44291D02*
X28677Y52693D01*
X20276Y33071D02*
Y44291D01*
X10630Y41732D02*
X14370Y37992D01*
Y33071D02*
Y37992D01*
X88386Y25591D02*
X92323Y29528D01*
X57087Y25591D02*
X88386D01*
X53661Y29016D02*
X57087Y25591D01*
X53661Y29016D02*
Y43071D01*
X25591Y78740D02*
X29902Y74429D01*
X79724Y66732D02*
Y75787D01*
Y66732D02*
X89488Y56968D01*
X92323Y32480D02*
X96457Y36614D01*
X70866Y84646D02*
X79724Y75787D01*
X53937Y84646D02*
X70866D01*
X98622Y29528D02*
X109252D01*
X5524Y55547D02*
X10630Y50441D01*
Y41732D02*
Y50441D01*
X28822Y52693D02*
X31247Y55118D01*
X52756D01*
X28677Y52693D02*
X28822D01*
X27165Y56693D02*
X29902Y59429D01*
X24685Y72835D02*
X28091Y69429D01*
X9843Y72835D02*
X24685D01*
X52756Y55118D02*
X54724Y57087D01*
Y58642D01*
X53937Y59429D02*
X54724Y58642D01*
X61024Y57087D02*
Y61024D01*
X65313Y81102D02*
X67913Y78502D01*
X7874Y85827D02*
X29134D01*
X5906Y83858D02*
X7874Y85827D01*
X5906Y76772D02*
Y83858D01*
Y76772D02*
X9843Y72835D01*
X31496Y88189D02*
Y90551D01*
X29134Y85827D02*
X31496Y88189D01*
X61024Y61024D02*
X62008Y62008D01*
X61802Y76772D02*
X62008D01*
X19685Y66929D02*
X19768Y66847D01*
X13976Y62795D02*
X15524Y61248D01*
Y55547D02*
Y61248D01*
X44291Y88583D02*
X44488Y88386D01*
X28024Y94024D02*
Y94547D01*
Y94024D02*
X31496Y90551D01*
X62008Y73819D02*
X64961Y70866D01*
X19685Y65748D02*
X20276D01*
X13189Y78740D02*
X13780D01*
X67913Y64961D02*
X68504D01*
X73622D01*
X22244Y67716D02*
X22835D01*
X38252Y84709D02*
X42126Y88583D01*
X44291D01*
X53937Y76531D02*
X58509Y81102D01*
X65313D01*
X31071Y83827D02*
X31953Y84709D01*
X9449Y82677D02*
X10598Y83827D01*
X9449Y82480D02*
Y82677D01*
X10598Y83827D02*
X31071D01*
X9449Y82480D02*
X13189Y78740D01*
X19685D02*
X20276D01*
X25591D01*
X29902Y59429D02*
X32677D01*
X53937Y69429D02*
X54460D01*
X26122Y64429D02*
X32677D01*
X28091Y69429D02*
X32677D01*
X29902Y74429D02*
X32677D01*
X53937Y75500D02*
Y76531D01*
D15*
X21654Y66535D02*
D03*
X14567D02*
D03*
X20866Y32283D02*
D03*
X13780D02*
D03*
X20276Y78740D02*
D03*
X13189D02*
D03*
X61417Y76772D02*
D03*
X68504D02*
D03*
X61417Y64961D02*
D03*
X68504D02*
D03*
D16*
X54630Y60300D02*
D03*
Y65300D02*
D03*
Y70300D02*
D03*
Y75300D02*
D03*
X33370Y60300D02*
D03*
Y65300D02*
D03*
Y70300D02*
D03*
Y75300D02*
D03*
D17*
X53937Y84646D02*
D03*
X44488Y80905D02*
D03*
Y88386D02*
D03*
D18*
X89882Y52181D02*
D03*
X99882D02*
D03*
D19*
X92520Y29528D02*
D03*
X98425D02*
D03*
D20*
X111811Y45075D02*
D03*
Y58075D02*
D03*
D32*
X68661Y33071D02*
D03*
X58661D02*
D03*
X48661D02*
D03*
X63661Y43071D02*
D03*
X53661D02*
D03*
X43661D02*
D03*
D33*
X28024Y94547D02*
D03*
Y104547D02*
D03*
Y114547D02*
D03*
X5524Y55547D02*
D03*
Y45547D02*
D03*
X15524Y55547D02*
D03*
Y45547D02*
D03*
D34*
X104331Y13780D02*
D03*
X13780D02*
D03*
X59055Y110236D02*
D03*
D35*
X37402Y80709D02*
D03*
X27165Y56693D02*
D03*
X64961Y70866D02*
D03*
X61024Y57087D02*
D03*
X109252Y29528D02*
D03*
M02*
