G04*
G04 #@! TF.GenerationSoftware,Altium Limited,Altium Designer,18.0.7 (293)*
G04*
G04 Layer_Color=32768*
%FSLAX25Y25*%
%MOIN*%
G70*
G01*
G75*
%ADD36C,0.00394*%
D36*
X18110Y64567D02*
Y68504D01*
X16142Y66535D02*
X20079D01*
X11220Y62795D02*
X25000D01*
X11220Y70276D02*
X25000D01*
Y62795D02*
Y70276D01*
X11220Y62795D02*
Y70276D01*
X17323Y30315D02*
Y34252D01*
X15354Y32283D02*
X19291D01*
X10433Y28543D02*
X24213D01*
X10433Y36024D02*
X24213D01*
Y28543D02*
Y36024D01*
X10433Y28543D02*
Y36024D01*
X16732Y76772D02*
Y80709D01*
X14764Y78740D02*
X18701D01*
X9843Y75000D02*
X23622D01*
X9843Y82480D02*
X23622D01*
Y75000D02*
Y82480D01*
X9843Y75000D02*
Y82480D01*
X64961Y74803D02*
Y78740D01*
X62992Y76772D02*
X66929D01*
X58071Y80512D02*
X71850D01*
X58071Y73032D02*
X71850D01*
X58071D02*
Y80512D01*
X71850Y73032D02*
Y80512D01*
X64961Y62992D02*
Y66929D01*
X62992Y64961D02*
X66929D01*
X58071Y68701D02*
X71850D01*
X58071Y61221D02*
X71850D01*
X58071D02*
Y68701D01*
X71850Y61221D02*
Y68701D01*
X89961Y26378D02*
Y32677D01*
X100984Y26378D02*
Y32677D01*
X89961D02*
X100984D01*
X89961Y26378D02*
X100984D01*
X93504Y29528D02*
X97441D01*
X95473Y27559D02*
Y31496D01*
M02*
