G04*
G04 #@! TF.GenerationSoftware,Altium Limited,Altium Designer,18.0.7 (293)*
G04*
G04 Layer_Physical_Order=1*
G04 Layer_Color=255*
%FSLAX25Y25*%
%MOIN*%
G70*
G01*
G75*
%ADD12C,0.01000*%
%ADD14O,0.00984X0.03543*%
%ADD15O,0.03543X0.00984*%
%ADD16R,0.04724X0.05512*%
%ADD17R,0.05512X0.04331*%
%ADD28C,0.06500*%
%ADD29R,0.05906X0.05906*%
%ADD30C,0.05906*%
%ADD31C,0.23622*%
%ADD32C,0.02500*%
D12*
X17126Y37795D02*
X38189D01*
X17126D02*
X30905Y24016D01*
X44094Y2264D02*
X48819D01*
X11221Y37795D02*
Y45866D01*
X83071Y13386D02*
Y35471D01*
X79134Y24409D02*
Y41534D01*
X51968Y27165D02*
X51969Y27165D01*
X51968Y27165D02*
X53937D01*
X66154Y30303D02*
X70472Y25984D01*
X29528Y16142D02*
X43689Y30303D01*
X66154D01*
X50197Y25394D02*
X51969Y27165D01*
X60039Y23228D02*
Y25787D01*
X60630Y26378D01*
X63779D01*
X50197Y23228D02*
Y25394D01*
X22795Y39803D02*
X47618D01*
X18406Y44193D02*
X22795Y39803D01*
X18406Y44193D02*
X19882Y45669D01*
X65158Y18701D02*
X66142Y19685D01*
X62598Y18701D02*
X65158D01*
X66142Y19685D02*
Y22047D01*
X33071Y4331D02*
Y6299D01*
X29528Y9843D02*
X33071Y6299D01*
X28346Y9843D02*
X29528D01*
X24803Y51181D02*
Y52756D01*
X22441Y48819D02*
X24803Y51181D01*
X14173Y48819D02*
X22441D01*
X11221Y45866D02*
X14173Y48819D01*
X30905Y24016D02*
X31890D01*
X38189Y37795D02*
X40531Y35453D01*
X39567Y18701D02*
X47638D01*
X37008Y16142D02*
X39567Y18701D01*
X37008Y9843D02*
X39370Y7480D01*
X43701D01*
X42126Y14567D02*
X44193D01*
X45965Y12795D01*
X42126Y10630D02*
Y10728D01*
X42224Y10827D01*
X47638D01*
X80327Y10642D02*
X83071Y13386D01*
X74397Y10642D02*
X80327D01*
X70276Y14764D02*
X74397Y10642D01*
X62598Y14764D02*
X70276D01*
X19882Y45669D02*
X23622D01*
X52618Y37264D02*
Y49803D01*
X50807Y35453D02*
X52618Y37264D01*
X40531Y35453D02*
X50807D01*
X69094Y9055D02*
Y9154D01*
X62598Y16732D02*
X65846D01*
X65453Y12795D02*
X69094Y9154D01*
X62598Y12795D02*
X65453D01*
X48819Y2264D02*
X50197Y3642D01*
Y8268D01*
X57618Y38838D02*
Y39803D01*
Y38838D02*
X62992Y33465D01*
X69291D01*
X45965Y12795D02*
X47638D01*
X78347Y24409D02*
X79134D01*
X69291Y33465D02*
X78347Y24409D01*
X79134Y12992D02*
Y18110D01*
X75591Y24409D02*
X78347D01*
X74016Y25984D02*
X75591Y24409D01*
X73228Y25984D02*
X74016D01*
X65846Y16732D02*
X70472Y21358D01*
Y25984D01*
X91496Y32283D02*
X98425D01*
X90551Y31339D02*
X91496Y32283D01*
X83071Y35471D02*
X89000Y41400D01*
X79134Y41534D02*
X89000Y51400D01*
D14*
X50197Y8268D02*
D03*
X52165D02*
D03*
X54134D02*
D03*
X56102D02*
D03*
X58071D02*
D03*
X60039D02*
D03*
Y23228D02*
D03*
X58071D02*
D03*
X56102D02*
D03*
X54134D02*
D03*
X52165D02*
D03*
X50197D02*
D03*
D15*
X62598Y10827D02*
D03*
Y12795D02*
D03*
Y14764D02*
D03*
Y16732D02*
D03*
Y18701D02*
D03*
Y20669D02*
D03*
X47638D02*
D03*
Y18701D02*
D03*
Y16732D02*
D03*
Y14764D02*
D03*
Y12795D02*
D03*
Y10827D02*
D03*
D16*
X11319Y44193D02*
D03*
X18406D02*
D03*
X11417Y37402D02*
D03*
X18504D02*
D03*
D17*
X37008Y15945D02*
D03*
Y10039D02*
D03*
X29528Y10039D02*
D03*
Y15945D02*
D03*
X79134Y18504D02*
D03*
Y24409D02*
D03*
D28*
X42618Y49803D02*
D03*
X52618D02*
D03*
X62618D02*
D03*
X47618Y39803D02*
D03*
X57618D02*
D03*
X67618D02*
D03*
D29*
X89000Y31400D02*
D03*
D30*
Y41400D02*
D03*
Y51400D02*
D03*
D31*
X13780Y13780D02*
D03*
X96457Y68898D02*
D03*
X13780D02*
D03*
X96457Y13780D02*
D03*
D32*
X53937Y27165D02*
D03*
X66142Y22047D02*
D03*
X44094Y2362D02*
D03*
X33071Y4331D02*
D03*
X24803Y52756D02*
D03*
X31890Y24016D02*
D03*
X43701Y7480D02*
D03*
X42126Y14567D02*
D03*
Y10630D02*
D03*
X23622Y45669D02*
D03*
X98425Y32283D02*
D03*
X69094Y9154D02*
D03*
X79134Y12992D02*
D03*
X73228Y25984D02*
D03*
X63779Y26378D02*
D03*
M02*
