M48
;Layer_Color=9474304
;FILE_FORMAT=2:5
INCH,TZ
;TYPE=PLATED
T1F00S00C0.01181
T2F00S00C0.03543
T3F00S00C0.03600
T4F00S00C0.10827
T5F00S00C0.12800
%
T01
X79134Y12992
X98425Y32283
X73228Y25984
X63779Y26378
X66142Y22047
X69094Y9154
X43701Y7480
X42126Y10630
Y14567
X44094Y2362
X33071Y4331
X31890Y24016
X53937Y27165
X23622Y45669
X24803Y52756
T02
X89000Y31400
Y41400
Y51400
T03
X47618Y39803
X57618
X67618
X62618Y49803
X52618
X42618
T04
X96457Y13780
X96457Y68898
X13780
X13780Y13780
T05
X35118Y74803
X75118
M30
