G04*
G04 #@! TF.GenerationSoftware,Altium Limited,Altium Designer,18.0.7 (293)*
G04*
G04 Layer_Color=255*
%FSLAX25Y25*%
%MOIN*%
G70*
G01*
G75*
%ADD14O,0.00984X0.03543*%
%ADD15O,0.03543X0.00984*%
%ADD16R,0.04724X0.05512*%
%ADD17R,0.05512X0.04331*%
%ADD28C,0.06500*%
%ADD29R,0.05906X0.05906*%
%ADD30C,0.05906*%
%ADD31C,0.23622*%
D14*
X50197Y8268D02*
D03*
X52165D02*
D03*
X54134D02*
D03*
X56102D02*
D03*
X58071D02*
D03*
X60039D02*
D03*
Y23228D02*
D03*
X58071D02*
D03*
X56102D02*
D03*
X54134D02*
D03*
X52165D02*
D03*
X50197D02*
D03*
D15*
X62598Y10827D02*
D03*
Y12795D02*
D03*
Y14764D02*
D03*
Y16732D02*
D03*
Y18701D02*
D03*
Y20669D02*
D03*
X47638D02*
D03*
Y18701D02*
D03*
Y16732D02*
D03*
Y14764D02*
D03*
Y12795D02*
D03*
Y10827D02*
D03*
D16*
X11319Y44193D02*
D03*
X18406D02*
D03*
X11417Y37402D02*
D03*
X18504D02*
D03*
D17*
X37008Y15945D02*
D03*
Y10039D02*
D03*
X29528Y10039D02*
D03*
Y15945D02*
D03*
X79134Y18504D02*
D03*
Y24409D02*
D03*
D28*
X42618Y49803D02*
D03*
X52618D02*
D03*
X62618D02*
D03*
X47618Y39803D02*
D03*
X57618D02*
D03*
X67618D02*
D03*
D29*
X89000Y31400D02*
D03*
D30*
Y41400D02*
D03*
Y51400D02*
D03*
D31*
X13780Y13780D02*
D03*
X96457Y68898D02*
D03*
X13780D02*
D03*
X96457Y13780D02*
D03*
M02*
