G04*
G04 #@! TF.GenerationSoftware,Altium Limited,Altium Designer,18.0.7 (293)*
G04*
G04 Layer_Color=65535*
%FSLAX25Y25*%
%MOIN*%
G70*
G01*
G75*
%ADD10C,0.00984*%
%ADD11C,0.00787*%
%ADD12C,0.01000*%
%ADD13C,0.00591*%
D10*
X47539Y4528D02*
X46801Y4954D01*
Y4101D01*
X47539Y4528D01*
D11*
X46457Y7087D02*
X48130D01*
X46457D02*
Y8760D01*
Y22736D02*
Y24409D01*
X48130D01*
X62106D02*
X63779D01*
Y22736D02*
Y24409D01*
X62106Y7087D02*
X63779D01*
Y8760D01*
X14862Y41831D02*
Y46555D01*
X14961Y35039D02*
Y39764D01*
X94000Y26400D02*
Y56400D01*
X84000D02*
X94000D01*
X84000Y26400D02*
Y56400D01*
Y26400D02*
X94000D01*
D12*
X82618Y31303D02*
Y81303D01*
X27618Y31303D02*
Y81303D01*
Y31303D02*
X82618D01*
X27618Y81303D02*
X82618D01*
D13*
X105610Y49709D02*
Y48726D01*
Y49218D01*
X108561D01*
X108069Y49709D01*
X105610Y47250D02*
Y46266D01*
Y46758D01*
X108561D01*
X108069Y47250D01*
Y44790D02*
X108561Y44298D01*
Y43314D01*
X108069Y42822D01*
X106101D01*
X105610Y43314D01*
Y44298D01*
X106101Y44790D01*
X108069D01*
X105610Y41838D02*
Y40854D01*
Y41346D01*
X108561D01*
X108069Y41838D01*
X108561Y39378D02*
X105610Y37410D01*
X108561D02*
X105610Y39378D01*
X108561Y36426D02*
X105610Y34458D01*
X108561D02*
X105610Y36426D01*
X108561Y33474D02*
X105610Y31507D01*
X108561D02*
X105610Y33474D01*
X103602Y49709D02*
Y48726D01*
Y49218D01*
X100650D01*
Y49709D01*
Y48726D01*
Y45282D02*
Y47250D01*
X102618Y45282D01*
X103110D01*
X103602Y45774D01*
Y46758D01*
X103110Y47250D01*
Y42330D02*
X103602Y42822D01*
Y43806D01*
X103110Y44298D01*
X101142D01*
X100650Y43806D01*
Y42822D01*
X101142Y42330D01*
X95691Y49709D02*
X97658D01*
X98642Y48726D01*
X97658Y47742D01*
X95691D01*
X97166D01*
Y49709D01*
X98642Y46758D02*
X95691D01*
Y45282D01*
X96183Y44790D01*
X98150D01*
X98642Y45282D01*
Y46758D01*
Y43806D02*
X95691D01*
Y42330D01*
X96183Y41838D01*
X98150D01*
X98642Y42330D01*
Y43806D01*
X95691Y40854D02*
X98642D01*
Y39378D01*
X98150Y38886D01*
X97166D01*
X96675Y39378D01*
Y40854D01*
Y39870D02*
X95691Y38886D01*
Y37902D02*
X96183D01*
Y37410D01*
X95691D01*
Y37902D01*
X95290Y55750D02*
X95783Y56242D01*
X96766D01*
X97258Y55750D01*
Y53782D01*
X96766Y53290D01*
X95783D01*
X95290Y53782D01*
Y55750D01*
X98242D02*
X98734Y56242D01*
X99718D01*
X100210Y55750D01*
Y53782D01*
X99718Y53290D01*
X98734D01*
X98242Y53782D01*
Y55750D01*
X101194Y53290D02*
X102178D01*
X101686D01*
Y56242D01*
X101194Y55750D01*
X95191Y29350D02*
X95683Y29842D01*
X96666D01*
X97158Y29350D01*
Y27382D01*
X96666Y26891D01*
X95683D01*
X95191Y27382D01*
Y29350D01*
X98142D02*
X98634Y29842D01*
X99618D01*
X100110Y29350D01*
Y27382D01*
X99618Y26891D01*
X98634D01*
X98142Y27382D01*
Y29350D01*
X101094D02*
X101586Y29842D01*
X102570D01*
X103062Y29350D01*
Y27382D01*
X102570Y26891D01*
X101586D01*
X101094Y27382D01*
Y29350D01*
X6600Y31900D02*
X3648D01*
Y33376D01*
X4140Y33868D01*
X5124D01*
X5616Y33376D01*
Y31900D01*
X4632Y34852D02*
X6108D01*
X6600Y35344D01*
Y36820D01*
X4632D01*
X6600Y37804D02*
Y38788D01*
Y38296D01*
X3648D01*
Y37804D01*
X6600Y40264D02*
Y41247D01*
Y40755D01*
X3648D01*
Y40264D01*
X5124Y42723D02*
Y44691D01*
X4632Y45675D02*
X6108D01*
X6600Y46167D01*
Y47643D01*
X4632D01*
X7584Y48627D02*
X4632D01*
Y50103D01*
X5124Y50595D01*
X6108D01*
X6600Y50103D01*
Y48627D01*
X48819Y6003D02*
X50787Y4035D01*
X48819D02*
X50787Y6003D01*
X48819Y5019D02*
X50787D01*
X49803Y4035D02*
Y6003D01*
X38368Y5860D02*
X37876Y6352D01*
X36892D01*
X36400Y5860D01*
Y3892D01*
X36892Y3400D01*
X37876D01*
X38368Y3892D01*
X39352Y5860D02*
X39844Y6352D01*
X40828D01*
X41320Y5860D01*
Y5368D01*
X40828Y4876D01*
X40336D01*
X40828D01*
X41320Y4384D01*
Y3892D01*
X40828Y3400D01*
X39844D01*
X39352Y3892D01*
X27068Y5860D02*
X26576Y6352D01*
X25592D01*
X25100Y5860D01*
Y3892D01*
X25592Y3400D01*
X26576D01*
X27068Y3892D01*
X30020Y3400D02*
X28052D01*
X30020Y5368D01*
Y5860D01*
X29528Y6352D01*
X28544D01*
X28052Y5860D01*
X72868Y19360D02*
X72376Y19852D01*
X71392D01*
X70900Y19360D01*
Y17392D01*
X71392Y16900D01*
X72376D01*
X72868Y17392D01*
X73852Y16900D02*
X74836D01*
X74344D01*
Y19852D01*
X73852Y19360D01*
X25668Y29460D02*
X25176Y29952D01*
X24192D01*
X23700Y29460D01*
Y28968D01*
X24192Y28476D01*
X25176D01*
X25668Y27984D01*
Y27492D01*
X25176Y27000D01*
X24192D01*
X23700Y27492D01*
X28620Y29460D02*
X28128Y29952D01*
X27144D01*
X26652Y29460D01*
Y28968D01*
X27144Y28476D01*
X28128D01*
X28620Y27984D01*
Y27492D01*
X28128Y27000D01*
X27144D01*
X26652Y27492D01*
X29604Y28476D02*
X31571D01*
X32555Y29952D02*
X34523D01*
Y29460D01*
X32555Y27492D01*
Y27000D01*
X35507Y29460D02*
X35999Y29952D01*
X36983D01*
X37475Y29460D01*
Y27492D01*
X36983Y27000D01*
X35999D01*
X35507Y27492D01*
Y29460D01*
X40427Y29952D02*
X39443Y29460D01*
X38459Y28476D01*
Y27492D01*
X38951Y27000D01*
X39935D01*
X40427Y27492D01*
Y27984D01*
X39935Y28476D01*
X38459D01*
X43379Y29952D02*
X42395Y29460D01*
X41411Y28476D01*
Y27492D01*
X41903Y27000D01*
X42887D01*
X43379Y27492D01*
Y27984D01*
X42887Y28476D01*
X41411D01*
X44363D02*
X46330D01*
X47315Y27000D02*
Y29952D01*
X49282Y27000D01*
Y29952D01*
X52234D02*
X50266D01*
Y28476D01*
X51250D01*
X50266D01*
Y27000D01*
M02*
