G04*
G04 #@! TF.GenerationSoftware,Altium Limited,Altium Designer,18.0.7 (293)*
G04*
G04 Layer_Color=2752767*
%FSLAX25Y25*%
%MOIN*%
G70*
G01*
G75*
%ADD34C,0.00200*%
%ADD35C,0.00267*%
D34*
X41818Y49003D02*
Y50603D01*
X43418D01*
Y49003D01*
X41818D01*
X51818D02*
Y50603D01*
X53418D01*
Y49003D01*
X51818D01*
X61818D02*
Y50603D01*
X63418D01*
Y49003D01*
X61818D01*
X46818Y39003D02*
Y40603D01*
X48418D01*
Y39003D01*
X46818D01*
X56818D02*
Y40603D01*
X58418D01*
Y39003D01*
X56818D01*
X66818D02*
Y40603D01*
X68418D01*
Y39003D01*
X66818D01*
X89000Y30600D02*
X88200Y32200D01*
X89800D01*
X89000Y30600D01*
Y40600D02*
X88200Y42200D01*
X89800D01*
X89000Y40600D01*
Y50600D02*
X88200Y52200D01*
X89800D01*
X89000Y50600D01*
X13780Y12979D02*
X14179Y13379D01*
X14580D01*
X14179Y13780D01*
X14580Y14179D01*
X14179D01*
X13780Y14580D01*
X13379Y14179D01*
X12979D01*
X13379Y13780D01*
X12979Y13379D01*
X13379D01*
X13780Y12979D01*
X96457Y68098D02*
X96857Y68498D01*
X97257D01*
X96857Y68898D01*
X97257Y69298D01*
X96857D01*
X96457Y69698D01*
X96057Y69298D01*
X95657D01*
X96057Y68898D01*
X95657Y68498D01*
X96057D01*
X96457Y68098D01*
X13780D02*
X14180Y68498D01*
X14580D01*
X14180Y68898D01*
X14580Y69298D01*
X14180D01*
X13780Y69698D01*
X13380Y69298D01*
X12980D01*
X13380Y68898D01*
X12980Y68498D01*
X13380D01*
X13780Y68098D01*
X96457Y12979D02*
X96857Y13379D01*
X97257D01*
X96857Y13780D01*
X97257Y14179D01*
X96857D01*
X96457Y14580D01*
X96057Y14179D01*
X95657D01*
X96057Y13780D01*
X95657Y13379D01*
X96057D01*
X96457Y12979D01*
X53137Y26365D02*
X53537Y27165D01*
X53137Y27965D01*
X53937Y27565D01*
X54737Y27965D01*
X54337Y27165D01*
X54737Y26365D01*
X53937Y26765D01*
X53137Y26365D01*
X65342Y21247D02*
X65742Y22047D01*
X65342Y22847D01*
X66142Y22447D01*
X66942Y22847D01*
X66542Y22047D01*
X66942Y21247D01*
X66142Y21647D01*
X65342Y21247D01*
X43295Y1562D02*
X43694Y2362D01*
X43295Y3162D01*
X44094Y2762D01*
X44894Y3162D01*
X44495Y2362D01*
X44894Y1562D01*
X44094Y1962D01*
X43295Y1562D01*
X32271Y3531D02*
X32671Y4331D01*
X32271Y5131D01*
X33071Y4731D01*
X33871Y5131D01*
X33471Y4331D01*
X33871Y3531D01*
X33071Y3931D01*
X32271Y3531D01*
X24003Y51956D02*
X24403Y52756D01*
X24003Y53556D01*
X24803Y53156D01*
X25603Y53556D01*
X25203Y52756D01*
X25603Y51956D01*
X24803Y52356D01*
X24003Y51956D01*
X31090Y23216D02*
X31490Y24016D01*
X31090Y24816D01*
X31890Y24416D01*
X32690Y24816D01*
X32290Y24016D01*
X32690Y23216D01*
X31890Y23616D01*
X31090Y23216D01*
X42901Y6680D02*
X43301Y7480D01*
X42901Y8280D01*
X43701Y7880D01*
X44501Y8280D01*
X44101Y7480D01*
X44501Y6680D01*
X43701Y7080D01*
X42901Y6680D01*
X41326Y13767D02*
X41726Y14567D01*
X41326Y15367D01*
X42126Y14967D01*
X42926Y15367D01*
X42526Y14567D01*
X42926Y13767D01*
X42126Y14167D01*
X41326Y13767D01*
Y9830D02*
X41726Y10630D01*
X41326Y11430D01*
X42126Y11030D01*
X42926Y11430D01*
X42526Y10630D01*
X42926Y9830D01*
X42126Y10230D01*
X41326Y9830D01*
X22822Y44869D02*
X23222Y45669D01*
X22822Y46469D01*
X23622Y46069D01*
X24422Y46469D01*
X24022Y45669D01*
X24422Y44869D01*
X23622Y45269D01*
X22822Y44869D01*
X97625Y31484D02*
X98025Y32283D01*
X97625Y33084D01*
X98425Y32684D01*
X99225Y33084D01*
X98825Y32283D01*
X99225Y31484D01*
X98425Y31883D01*
X97625Y31484D01*
X68294Y8354D02*
X68694Y9154D01*
X68294Y9954D01*
X69094Y9554D01*
X69894Y9954D01*
X69494Y9154D01*
X69894Y8354D01*
X69094Y8754D01*
X68294Y8354D01*
X78334Y12192D02*
X78734Y12992D01*
X78334Y13792D01*
X79134Y13392D01*
X79934Y13792D01*
X79534Y12992D01*
X79934Y12192D01*
X79134Y12592D01*
X78334Y12192D01*
X72428Y25184D02*
X72828Y25984D01*
X72428Y26784D01*
X73228Y26384D01*
X74028Y26784D01*
X73628Y25984D01*
X74028Y25184D01*
X73228Y25584D01*
X72428Y25184D01*
X62980Y25578D02*
X63380Y26378D01*
X62980Y27178D01*
X63779Y26778D01*
X64579Y27178D01*
X64179Y26378D01*
X64579Y25578D01*
X63779Y25978D01*
X62980Y25578D01*
D35*
X35918Y74803D02*
X35365Y75564D01*
X34471Y75273D01*
Y74333D01*
X35365Y74042D01*
X35918Y74803D01*
X75918D02*
X75365Y75564D01*
X74471Y75273D01*
Y74333D01*
X75365Y74042D01*
X75918Y74803D01*
M02*
