G04*
G04 #@! TF.GenerationSoftware,Altium Limited,Altium Designer,18.0.7 (293)*
G04*
G04 Layer_Color=16711935*
%FSLAX25Y25*%
%MOIN*%
G70*
G01*
G75*
%ADD12C,0.01000*%
D12*
X0Y13780D02*
X35Y12797D01*
X140Y11818D01*
X315Y10851D01*
X558Y9897D01*
X869Y8964D01*
X1245Y8055D01*
X1685Y7176D01*
X2187Y6330D01*
X2748Y5522D01*
X3366Y4756D01*
X4036Y4036D01*
X4756Y3366D01*
X5522Y2748D01*
X6330Y2187D01*
X7176Y1685D01*
X8055Y1245D01*
X8964Y869D01*
X9897Y558D01*
X10851Y315D01*
X11818Y140D01*
X12797Y35D01*
X13780Y0D01*
X96457D02*
X97440Y35D01*
X98418Y140D01*
X99386Y315D01*
X100339Y558D01*
X101272Y869D01*
X102181Y1245D01*
X103060Y1685D01*
X103907Y2187D01*
X104715Y2748D01*
X105480Y3366D01*
X106200Y4036D01*
X106871Y4756D01*
X107488Y5522D01*
X108049Y6330D01*
X108551Y7176D01*
X108991Y8055D01*
X109367Y8964D01*
X109678Y9897D01*
X109921Y10851D01*
X110096Y11818D01*
X110201Y12797D01*
X110236Y13780D01*
Y68898D02*
X110201Y69881D01*
X110096Y70859D01*
X109921Y71827D01*
X109678Y72780D01*
X109367Y73713D01*
X108991Y74622D01*
X108551Y75502D01*
X108049Y76347D01*
X107488Y77155D01*
X106871Y77921D01*
X106200Y78641D01*
X105480Y79312D01*
X104715Y79929D01*
X103907Y80490D01*
X103060Y80992D01*
X102181Y81432D01*
X101272Y81808D01*
X100339Y82119D01*
X99386Y82362D01*
X98418Y82537D01*
X97440Y82642D01*
X96457Y82677D01*
X13780D02*
X12797Y82642D01*
X11818Y82537D01*
X10851Y82362D01*
X9897Y82119D01*
X8964Y81808D01*
X8055Y81432D01*
X7176Y80992D01*
X6330Y80490D01*
X5522Y79929D01*
X4756Y79312D01*
X4036Y78641D01*
X3366Y77921D01*
X2748Y77155D01*
X2187Y76347D01*
X1685Y75502D01*
X1245Y74622D01*
X869Y73713D01*
X558Y72780D01*
X315Y71827D01*
X140Y70859D01*
X35Y69881D01*
X0Y68898D01*
X13780Y0D02*
X96457D01*
X110236Y13780D02*
Y68898D01*
X13780Y82677D02*
X96457D01*
X0Y13780D02*
Y68898D01*
M02*
