G04*
G04 #@! TF.GenerationSoftware,Altium Limited,Altium Designer,18.0.7 (293)*
G04*
G04 Layer_Color=8388736*
%FSLAX25Y25*%
%MOIN*%
G70*
G01*
G75*
%ADD18O,0.01378X0.03937*%
%ADD19O,0.03937X0.01378*%
%ADD20R,0.05118X0.05906*%
%ADD21R,0.05906X0.04724*%
%ADD22C,0.06894*%
%ADD23C,0.00394*%
%ADD24R,0.06299X0.06299*%
%ADD25C,0.06299*%
%ADD26C,0.24016*%
%ADD27C,0.02894*%
D18*
X50197Y8268D02*
D03*
X52165D02*
D03*
X54134D02*
D03*
X56102D02*
D03*
X58071D02*
D03*
X60039D02*
D03*
Y23228D02*
D03*
X58071D02*
D03*
X56102D02*
D03*
X54134D02*
D03*
X52165D02*
D03*
X50197D02*
D03*
D19*
X62598Y10827D02*
D03*
Y12795D02*
D03*
Y14764D02*
D03*
Y16732D02*
D03*
Y18701D02*
D03*
Y20669D02*
D03*
X47638D02*
D03*
Y18701D02*
D03*
Y16732D02*
D03*
Y14764D02*
D03*
Y12795D02*
D03*
Y10827D02*
D03*
D20*
X11319Y44193D02*
D03*
X18406D02*
D03*
X11417Y37402D02*
D03*
X18504D02*
D03*
D21*
X37008Y15945D02*
D03*
Y10039D02*
D03*
X29528Y10039D02*
D03*
Y15945D02*
D03*
X79134Y18504D02*
D03*
Y24409D02*
D03*
D22*
X42618Y49803D02*
D03*
X52618D02*
D03*
X62618D02*
D03*
X47618Y39803D02*
D03*
X57618D02*
D03*
X67618D02*
D03*
D23*
X35118Y74803D02*
D03*
X75118D02*
D03*
D24*
X89000Y31400D02*
D03*
D25*
Y41400D02*
D03*
Y51400D02*
D03*
D26*
X13780Y13780D02*
D03*
X96457Y68898D02*
D03*
X13780D02*
D03*
X96457Y13780D02*
D03*
D27*
X53937Y27165D02*
D03*
X66142Y22047D02*
D03*
X44094Y2362D02*
D03*
X33071Y4331D02*
D03*
X24803Y52756D02*
D03*
X31890Y24016D02*
D03*
X43701Y7480D02*
D03*
X42126Y14567D02*
D03*
Y10630D02*
D03*
X23622Y45669D02*
D03*
X98425Y32283D02*
D03*
X69094Y9154D02*
D03*
X79134Y12992D02*
D03*
X73228Y25984D02*
D03*
X63779Y26378D02*
D03*
M02*
