G04*
G04 #@! TF.GenerationSoftware,Altium Limited,Altium Designer,18.0.7 (293)*
G04*
G04 Layer_Color=255*
%FSLAX25Y25*%
%MOIN*%
G70*
G01*
G75*
%ADD18R,0.17717X0.09055*%
%ADD19R,0.05512X0.04724*%
%ADD20R,0.06102X0.02362*%
%ADD21R,0.04331X0.05512*%
%ADD22R,0.08071X0.04921*%
%ADD39C,0.09843*%
%ADD40R,0.05906X0.05906*%
%ADD41C,0.05906*%
%ADD42R,0.04992X0.04992*%
%ADD43C,0.04992*%
%ADD44C,0.11398*%
%ADD45C,0.12795*%
%ADD46C,0.14500*%
%ADD47C,0.06000*%
%ADD48C,0.23622*%
D18*
X220472Y39370D02*
D03*
X145669D02*
D03*
D19*
X106299Y47835D02*
D03*
Y40748D02*
D03*
X122047Y47835D02*
D03*
Y40748D02*
D03*
D20*
X73032Y56713D02*
D03*
Y51713D02*
D03*
Y46713D02*
D03*
Y41713D02*
D03*
X94291Y56713D02*
D03*
Y51713D02*
D03*
Y46713D02*
D03*
Y41713D02*
D03*
D21*
X29937Y43307D02*
D03*
X24032D02*
D03*
X29937Y59055D02*
D03*
X24032D02*
D03*
X114075Y65059D02*
D03*
X108169D02*
D03*
D22*
X51181Y59055D02*
D03*
Y49213D02*
D03*
D39*
X198819Y38870D02*
D03*
X169488Y39370D02*
D03*
D40*
X32953Y99331D02*
D03*
D41*
Y109331D02*
D03*
X42953Y99331D02*
D03*
Y109331D02*
D03*
X52953Y99331D02*
D03*
Y109331D02*
D03*
X62953Y99331D02*
D03*
Y109331D02*
D03*
X72953Y99331D02*
D03*
Y109331D02*
D03*
X82953Y99331D02*
D03*
Y109331D02*
D03*
X92953Y99331D02*
D03*
Y109331D02*
D03*
X102953Y99331D02*
D03*
Y109331D02*
D03*
X112953Y99331D02*
D03*
Y109331D02*
D03*
X122953Y99331D02*
D03*
Y109331D02*
D03*
X132953Y99331D02*
D03*
Y109331D02*
D03*
X142953Y99331D02*
D03*
Y109331D02*
D03*
X152953Y99331D02*
D03*
Y109331D02*
D03*
X162953Y99331D02*
D03*
Y109331D02*
D03*
X172953Y99331D02*
D03*
Y109331D02*
D03*
X182953Y99331D02*
D03*
Y109331D02*
D03*
X192953Y99331D02*
D03*
Y109331D02*
D03*
X202953Y99331D02*
D03*
Y109331D02*
D03*
X212953Y99331D02*
D03*
Y109331D02*
D03*
X222953Y99331D02*
D03*
Y109331D02*
D03*
D42*
X230709Y169016D02*
D03*
D43*
X220709Y174016D02*
D03*
X230709Y179016D02*
D03*
X220709Y184016D02*
D03*
X230709Y189016D02*
D03*
X220709Y194016D02*
D03*
X230709Y199016D02*
D03*
X220709Y204016D02*
D03*
D44*
X267717Y218504D02*
D03*
Y154528D02*
D03*
D45*
X255709Y209016D02*
D03*
Y164016D02*
D03*
D46*
X199500Y139201D02*
D03*
X13500Y171201D02*
D03*
X199047Y202972D02*
D03*
X13047Y234972D02*
D03*
D47*
X161500Y143701D02*
D03*
X169370D02*
D03*
X177240D02*
D03*
X165500Y153701D02*
D03*
X173370D02*
D03*
X181240D02*
D03*
X118000Y143701D02*
D03*
X125870D02*
D03*
X133740D02*
D03*
X122000Y153701D02*
D03*
X129870D02*
D03*
X137740D02*
D03*
X75000Y143701D02*
D03*
X82870D02*
D03*
X90740D02*
D03*
X79000Y153701D02*
D03*
X86870D02*
D03*
X94740D02*
D03*
X51240D02*
D03*
X43370D02*
D03*
X35500D02*
D03*
X47240Y143701D02*
D03*
X39370D02*
D03*
X31500D02*
D03*
X181047Y230472D02*
D03*
X173177D02*
D03*
X165307D02*
D03*
X177047Y220472D02*
D03*
X169177D02*
D03*
X161307D02*
D03*
X117807D02*
D03*
X125677D02*
D03*
X133547D02*
D03*
X121807Y230472D02*
D03*
X129677D02*
D03*
X137547D02*
D03*
X74807Y220472D02*
D03*
X82677D02*
D03*
X90547D02*
D03*
X78807Y230472D02*
D03*
X86677D02*
D03*
X94547D02*
D03*
X31307Y220472D02*
D03*
X39177D02*
D03*
X47047D02*
D03*
X35307Y230472D02*
D03*
X43177D02*
D03*
X51047D02*
D03*
D48*
X13780Y104331D02*
D03*
X242126D02*
D03*
Y13780D02*
D03*
X13780D02*
D03*
X13780Y257874D02*
D03*
X242126D02*
D03*
M02*
