G04*
G04 #@! TF.GenerationSoftware,Altium Limited,Altium Designer,18.0.7 (293)*
G04*
G04 Layer_Color=32768*
%FSLAX25Y25*%
%MOIN*%
G70*
G01*
G75*
%ADD51C,0.00394*%
D51*
X104331Y44291D02*
X108268D01*
X106299Y42323D02*
Y46260D01*
X110039Y37402D02*
Y51181D01*
X102559Y37402D02*
Y51181D01*
X110039D01*
X102559Y37402D02*
X110039D01*
X120079Y44291D02*
X124016D01*
X122047Y42323D02*
Y46260D01*
X125787Y37402D02*
Y51181D01*
X118307Y37402D02*
Y51181D01*
X125787D01*
X118307Y37402D02*
X125787D01*
X32496Y40157D02*
Y46457D01*
X21472Y40157D02*
Y46457D01*
Y40157D02*
X32496D01*
X21472Y46457D02*
X32496D01*
X25016Y43307D02*
X28953D01*
X26984Y41339D02*
Y45276D01*
X32496Y55905D02*
Y62205D01*
X21473Y55905D02*
Y62205D01*
Y55905D02*
X32496D01*
X21473Y62205D02*
X32496D01*
X25016Y59055D02*
X28953D01*
X26984Y57087D02*
Y61024D01*
X116634Y61909D02*
Y68209D01*
X105610Y61909D02*
Y68209D01*
Y61909D02*
X116634D01*
X105610Y68209D02*
X116634D01*
X109153Y65059D02*
X113091D01*
X111122Y63090D02*
Y67027D01*
M02*
