G04*
G04 #@! TF.GenerationSoftware,Altium Limited,Altium Designer,18.0.7 (293)*
G04*
G04 Layer_Physical_Order=1*
G04 Layer_Color=255*
%FSLAX25Y25*%
%MOIN*%
G70*
G01*
G75*
%ADD10C,0.01000*%
%ADD18R,0.17717X0.09055*%
%ADD19R,0.05512X0.04724*%
%ADD20R,0.06102X0.02362*%
%ADD21R,0.04331X0.05512*%
%ADD22R,0.08071X0.04921*%
%ADD39C,0.09843*%
%ADD40R,0.05906X0.05906*%
%ADD41C,0.05906*%
%ADD42R,0.04992X0.04992*%
%ADD43C,0.04992*%
%ADD44C,0.11398*%
%ADD45C,0.12795*%
%ADD46C,0.14500*%
%ADD47C,0.06000*%
%ADD48C,0.23622*%
%ADD49C,0.02500*%
D10*
X80799Y219487D02*
Y221747D01*
Y219487D02*
X81403Y218883D01*
X149606Y125000D02*
X207677D01*
X133937Y109331D02*
X149606Y125000D01*
X132953Y109331D02*
X133937D01*
X220709Y131142D02*
Y174016D01*
X207677Y118110D02*
X220709Y131142D01*
X165435Y118110D02*
X207677D01*
Y127953D02*
X210630Y130905D01*
X144685Y127953D02*
X207677D01*
X128500Y111768D02*
X144685Y127953D01*
X210630Y130905D02*
Y179588D01*
X220057Y189016D01*
X207677Y125000D02*
X213583Y130905D01*
Y176890D01*
X220709Y184016D01*
X216106Y129491D02*
Y174767D01*
X208661Y122047D02*
X216106Y129491D01*
X159372Y122047D02*
X208661D01*
X157406Y110081D02*
X165435Y118110D01*
X175299Y152352D02*
Y154124D01*
X181102Y164409D02*
X220709Y204016D01*
X181102Y159927D02*
Y164409D01*
X175299Y154124D02*
X181102Y159927D01*
X41299Y141772D02*
Y143701D01*
X188976Y145669D02*
Y162284D01*
X181102Y137795D02*
X188976Y145669D01*
X175276Y137795D02*
X181102D01*
X220709Y204016D02*
Y209409D01*
X217520Y212598D02*
X220709Y209409D01*
X177279Y212598D02*
X217520D01*
X237205Y197835D02*
Y217520D01*
X233386Y194016D02*
X237205Y197835D01*
X220709Y194016D02*
X233386D01*
X229331Y225394D02*
X237205Y217520D01*
X178256Y225394D02*
X229331D01*
X36257Y151760D02*
X36849Y152352D01*
X231299Y199606D02*
Y215551D01*
X226378Y220472D02*
X231299Y215551D01*
X177047Y220472D02*
X226378D01*
X177165Y212484D02*
X177279Y212598D01*
X186024Y150591D02*
Y165354D01*
X219685Y199016D01*
X230709D01*
X231299Y199606D01*
X188976Y162284D02*
X220709Y194016D01*
X220057Y189016D02*
X230709D01*
X128500Y104878D02*
Y111768D01*
X122953Y99331D02*
X128500Y104878D01*
X220057Y179016D02*
X230709D01*
X216713Y175671D02*
X220057Y179016D01*
X216713Y175374D02*
Y175671D01*
X216106Y174767D02*
X216713Y175374D01*
X147406Y110081D02*
X159372Y122047D01*
X147406Y107486D02*
Y110081D01*
X144797Y104878D02*
X147406Y107486D01*
X138500Y104878D02*
X144797D01*
X132953Y99331D02*
X138500Y104878D01*
X157406Y107486D02*
Y110081D01*
X154797Y104878D02*
X157406Y107486D01*
X148500Y104878D02*
X154797D01*
X142953Y99331D02*
X148500Y104878D01*
X30134Y59055D02*
X61100D01*
X41339Y49213D02*
X61000D01*
X48228Y106299D02*
X52953Y101575D01*
X38386Y103347D02*
Y123031D01*
X28500Y107486D02*
X32953Y103034D01*
X114173Y64961D02*
X120079D01*
X61000Y49213D02*
X63500Y51713D01*
X23835Y59055D02*
X23835Y59055D01*
X23835Y43307D02*
X23835Y43307D01*
X35433D02*
X41339Y49213D01*
X127953Y29528D02*
X137795Y39370D01*
X145669D01*
X59055Y41339D02*
X64429Y46713D01*
X59055Y33465D02*
Y41339D01*
Y33465D02*
X62992Y29528D01*
X66929Y35433D02*
Y39370D01*
X69272Y41713D01*
X236221Y43307D02*
Y62992D01*
X61100Y59055D02*
X63443Y56713D01*
X120079Y64961D02*
X124016Y61024D01*
X27559Y93937D02*
X32953Y99331D01*
X232284Y39370D02*
X236221Y43307D01*
X30134Y43307D02*
X35433D01*
X11811Y59055D02*
X23835D01*
X11811Y43307D02*
X23835D01*
X64429Y46713D02*
X73032D01*
X73441D01*
X69272Y41713D02*
X73032D01*
X73441D01*
X63500Y51713D02*
X73032D01*
X73441D01*
X63443Y56713D02*
X73032D01*
X73441D01*
X39177Y220472D02*
X45083Y214567D01*
X77756D01*
X81403Y218214D01*
Y218883D01*
X80799Y221747D02*
X81403D01*
X82677Y220472D02*
X88583Y214567D01*
X119772D01*
X125677Y220472D01*
X131583Y214567D01*
X163272D01*
X169177Y220472D01*
X177165Y212484D01*
X32953Y99331D02*
Y103034D01*
X28500Y107486D02*
Y122090D01*
X43370Y153701D02*
X51087Y161417D01*
X79154D01*
X86870Y153701D01*
X35654Y161417D02*
X43370Y153701D01*
X30512Y161417D02*
X35654D01*
X86870Y153701D02*
X94587Y161417D01*
X122153D01*
X129870Y153701D01*
X47047Y220472D02*
X51968Y225394D01*
X85626D01*
X90547Y220472D01*
X95468Y225394D01*
X128626D01*
X133547Y220472D01*
X43177Y230472D02*
X49909Y237205D01*
X79945D01*
X86677Y230472D01*
X93410Y237205D01*
X122945D01*
X129677Y230472D01*
X136409Y237205D01*
X166445D01*
X173177Y230472D01*
X133547Y220472D02*
X138468Y225394D01*
X172126D01*
X177047Y220472D01*
X174719Y152352D02*
X175299D01*
X165500Y153701D02*
X170579Y148622D01*
X165654Y161417D02*
X173370Y153701D01*
X129870D02*
X137587Y161417D01*
X165654D01*
X173177Y230472D02*
X178256Y225394D01*
X169370Y143701D02*
X175276Y137795D01*
X163465D02*
X169370Y143701D01*
X125870D02*
X131776Y137795D01*
X163465D01*
X62992Y29528D02*
X127953D01*
X119965Y137795D02*
X125870Y143701D01*
X88776Y137795D02*
X119965D01*
X82870Y143701D02*
X88776Y137795D01*
X76965D02*
X82870Y143701D01*
X45276Y137795D02*
X76965D01*
X41299Y141772D02*
X45276Y137795D01*
X36849Y152352D02*
X36849D01*
X35681Y151760D02*
X36257D01*
X36849Y152352D02*
X40579Y148622D01*
X73921D01*
X79000Y153701D01*
X84079Y148622D01*
X116921D01*
X122000Y153701D01*
X127079Y148622D01*
X160421D01*
X165500Y153701D01*
X38386Y103347D02*
X42401Y99331D01*
X42953D01*
X39370Y128937D02*
Y143701D01*
Y128937D02*
X48228Y120079D01*
Y106299D02*
Y120079D01*
X52953Y99331D02*
Y101575D01*
X27559Y82677D02*
Y93937D01*
Y82677D02*
X30512Y79724D01*
X113189D02*
X128937Y63976D01*
Y52165D02*
Y63976D01*
X124606Y47835D02*
X128937Y52165D01*
X122047Y47835D02*
X124606D01*
X94488Y79724D02*
X108169Y66043D01*
Y65059D02*
Y66043D01*
X30512Y79724D02*
X94488D01*
X113189D01*
X99823Y56713D02*
X108169Y65059D01*
X94291Y56713D02*
X99823D01*
X94291Y41713D02*
X101555Y34449D01*
X115748D01*
X122047Y40748D01*
X94291Y46713D02*
X97972D01*
X103937Y40748D01*
X106299D01*
Y47835D02*
X122047D01*
X170579Y148622D02*
X184055D01*
X186024Y150591D01*
X22638Y127953D02*
X28500Y122090D01*
X22638Y127953D02*
Y153543D01*
X30512Y161417D01*
X32638Y153701D02*
X35500D01*
X25591Y135827D02*
X38386Y123031D01*
X25591Y135827D02*
Y146653D01*
X32638Y153701D01*
X106299Y40748D02*
X113583D01*
X114173Y41339D01*
X122047Y40748D02*
X129331D01*
X129921Y41339D01*
X216100Y39370D02*
X232284D01*
D18*
X220472Y39370D02*
D03*
X145669D02*
D03*
D19*
X106299Y47835D02*
D03*
Y40748D02*
D03*
X122047Y47835D02*
D03*
Y40748D02*
D03*
D20*
X73032Y56713D02*
D03*
Y51713D02*
D03*
Y46713D02*
D03*
Y41713D02*
D03*
X94291Y56713D02*
D03*
Y51713D02*
D03*
Y46713D02*
D03*
Y41713D02*
D03*
D21*
X29937Y43307D02*
D03*
X24032D02*
D03*
X29937Y59055D02*
D03*
X24032D02*
D03*
X114075Y65059D02*
D03*
X108169D02*
D03*
D22*
X51181Y59055D02*
D03*
Y49213D02*
D03*
D39*
X198819Y38870D02*
D03*
X169488Y39370D02*
D03*
D40*
X32953Y99331D02*
D03*
D41*
Y109331D02*
D03*
X42953Y99331D02*
D03*
Y109331D02*
D03*
X52953Y99331D02*
D03*
Y109331D02*
D03*
X62953Y99331D02*
D03*
Y109331D02*
D03*
X72953Y99331D02*
D03*
Y109331D02*
D03*
X82953Y99331D02*
D03*
Y109331D02*
D03*
X92953Y99331D02*
D03*
Y109331D02*
D03*
X102953Y99331D02*
D03*
Y109331D02*
D03*
X112953Y99331D02*
D03*
Y109331D02*
D03*
X122953Y99331D02*
D03*
Y109331D02*
D03*
X132953Y99331D02*
D03*
Y109331D02*
D03*
X142953Y99331D02*
D03*
Y109331D02*
D03*
X152953Y99331D02*
D03*
Y109331D02*
D03*
X162953Y99331D02*
D03*
Y109331D02*
D03*
X172953Y99331D02*
D03*
Y109331D02*
D03*
X182953Y99331D02*
D03*
Y109331D02*
D03*
X192953Y99331D02*
D03*
Y109331D02*
D03*
X202953Y99331D02*
D03*
Y109331D02*
D03*
X212953Y99331D02*
D03*
Y109331D02*
D03*
X222953Y99331D02*
D03*
Y109331D02*
D03*
D42*
X230709Y169016D02*
D03*
D43*
X220709Y174016D02*
D03*
X230709Y179016D02*
D03*
X220709Y184016D02*
D03*
X230709Y189016D02*
D03*
X220709Y194016D02*
D03*
X230709Y199016D02*
D03*
X220709Y204016D02*
D03*
D44*
X267717Y218504D02*
D03*
Y154528D02*
D03*
D45*
X255709Y209016D02*
D03*
Y164016D02*
D03*
D46*
X199500Y139201D02*
D03*
X13500Y171201D02*
D03*
X199047Y202972D02*
D03*
X13047Y234972D02*
D03*
D47*
X161500Y143701D02*
D03*
X169370D02*
D03*
X177240D02*
D03*
X165500Y153701D02*
D03*
X173370D02*
D03*
X181240D02*
D03*
X118000Y143701D02*
D03*
X125870D02*
D03*
X133740D02*
D03*
X122000Y153701D02*
D03*
X129870D02*
D03*
X137740D02*
D03*
X75000Y143701D02*
D03*
X82870D02*
D03*
X90740D02*
D03*
X79000Y153701D02*
D03*
X86870D02*
D03*
X94740D02*
D03*
X51240D02*
D03*
X43370D02*
D03*
X35500D02*
D03*
X47240Y143701D02*
D03*
X39370D02*
D03*
X31500D02*
D03*
X181047Y230472D02*
D03*
X173177D02*
D03*
X165307D02*
D03*
X177047Y220472D02*
D03*
X169177D02*
D03*
X161307D02*
D03*
X117807D02*
D03*
X125677D02*
D03*
X133547D02*
D03*
X121807Y230472D02*
D03*
X129677D02*
D03*
X137547D02*
D03*
X74807Y220472D02*
D03*
X82677D02*
D03*
X90547D02*
D03*
X78807Y230472D02*
D03*
X86677D02*
D03*
X94547D02*
D03*
X31307Y220472D02*
D03*
X39177D02*
D03*
X47047D02*
D03*
X35307Y230472D02*
D03*
X43177D02*
D03*
X51047D02*
D03*
D48*
X13780Y104331D02*
D03*
X242126D02*
D03*
Y13780D02*
D03*
X13780D02*
D03*
X13780Y257874D02*
D03*
X242126D02*
D03*
D49*
X66929Y35433D02*
D03*
X11811Y43307D02*
D03*
Y59055D02*
D03*
X124016Y61024D02*
D03*
X129921Y41339D02*
D03*
X236221Y62992D02*
D03*
X114173Y41339D02*
D03*
M02*
