M48
;Layer_Color=9474304
;FILE_FORMAT=2:5
INCH,TZ
;TYPE=PLATED
T1F00S00C0.01181
T2F00S00C0.02992
T3F00S00C0.03200
T4F00S00C0.03543
T5F00S00C0.04921
T6F00S00C0.07598
T7F00S00C0.10827
T8F00S00C0.11500
;TYPE=NON_PLATED
T9F00S00C0.12795
%
T01
X11811Y43307
X66929Y35433
X114173Y41339
X129921
X236221Y62992
X124016Y61024
X11811Y59055
T02
X220709Y174016
Y184016
Y194016
Y204016
X230709Y199016
Y189016
Y179016
Y169016
T03
X75000Y143701
X82870
X90740
X86870Y153701
X79000
X94740
X122000
X129870
X137740
X133740Y143701
X125870
X118000
X161500
X169370
X177240
X173370Y153701
X165500
X181240
X51240
X43370
X35500
X39370Y143701
X47240
X31500
X31307Y220472
X39177
X47047
X43177Y230472
X35307
X51047
X78807
X86677
X94547
X90547Y220472
X82677
X74807
X117807
X125677
X133547
X129677Y230472
X121807
X137547
X165307
X173177
X181047
X177047Y220472
X169177
X161307
T04
X212953Y99331
Y109331
X222953
Y99331
X202953
X192953
X182953
X172953
X162953
X152953
X142953
X132953
X122953
X112953
X102953
X92953
X82953
X72953
X62953
Y109331
X72953
X82953
X92953
X102953
X112953
X122953
X132953
X142953
X152953
X162953
X172953
X182953
X192953
X202953
X52953
X42953
X32953
Y99331
X42953
X52953
T05
X169488Y39370
X198819Y38870
T06
X267717Y154528
Y218504
T07
X13780Y13780
X242126
Y104331
X13780
X13780Y257874
X242126
T08
X199500Y139201
X199047Y202972
X13500Y171201
X13047Y234972
T09
X255709Y164016
Y209016
M30
