G04*
G04 #@! TF.GenerationSoftware,Altium Limited,Altium Designer,18.0.7 (293)*
G04*
G04 Layer_Physical_Order=2*
G04 Layer_Color=16711680*
%FSLAX25Y25*%
%MOIN*%
G70*
G01*
G75*
%ADD10C,0.01000*%
%ADD39C,0.09843*%
%ADD40R,0.05906X0.05906*%
%ADD41C,0.05906*%
%ADD42R,0.04992X0.04992*%
%ADD43C,0.04992*%
%ADD44C,0.11398*%
%ADD45C,0.12795*%
%ADD46C,0.14500*%
%ADD47C,0.06000*%
%ADD48C,0.23622*%
%ADD49C,0.02500*%
G36*
X237017Y269624D02*
X236292Y269324D01*
X234573Y268270D01*
X233039Y266961D01*
X231730Y265427D01*
X230676Y263708D01*
X229904Y261845D01*
X229434Y259884D01*
X229275Y257874D01*
X229434Y255864D01*
X229904Y253903D01*
X230676Y252040D01*
X231730Y250321D01*
X233039Y248787D01*
X234573Y247478D01*
X236292Y246424D01*
X238155Y245652D01*
X240116Y245182D01*
X242126Y245023D01*
X244136Y245182D01*
X246097Y245652D01*
X247960Y246424D01*
X249679Y247478D01*
X251213Y248787D01*
X252522Y250321D01*
X253576Y252040D01*
X253876Y252765D01*
X254376Y252665D01*
Y246063D01*
X254492Y245478D01*
X254824Y244982D01*
X276030Y223776D01*
Y149256D01*
X267619Y140845D01*
X254824Y128050D01*
X254492Y127554D01*
X254376Y126969D01*
Y118110D01*
Y109540D01*
X253876Y109440D01*
X253576Y110165D01*
X252522Y111884D01*
X251213Y113418D01*
X249679Y114727D01*
X247960Y115781D01*
X246097Y116552D01*
X244136Y117023D01*
X242126Y117181D01*
X240116Y117023D01*
X238155Y116552D01*
X236292Y115781D01*
X234573Y114727D01*
X233039Y113418D01*
X231730Y111884D01*
X230676Y110165D01*
X229904Y108302D01*
X229434Y106341D01*
X229275Y104331D01*
X229434Y102321D01*
X229904Y100360D01*
X230676Y98497D01*
X231730Y96777D01*
X233039Y95244D01*
X234573Y93934D01*
X236292Y92881D01*
X238155Y92109D01*
X240116Y91638D01*
X242126Y91480D01*
X244136Y91638D01*
X246097Y92109D01*
X247960Y92881D01*
X249679Y93934D01*
X251213Y95244D01*
X252522Y96777D01*
X253576Y98497D01*
X253876Y99221D01*
X254376Y99122D01*
Y18989D01*
X253876Y18889D01*
X253576Y19614D01*
X252522Y21333D01*
X251213Y22866D01*
X249679Y24176D01*
X247960Y25230D01*
X246097Y26001D01*
X244136Y26472D01*
X242126Y26630D01*
X240116Y26472D01*
X238155Y26001D01*
X236292Y25230D01*
X234573Y24176D01*
X233039Y22866D01*
X231730Y21333D01*
X230676Y19614D01*
X229904Y17751D01*
X229434Y15790D01*
X229275Y13780D01*
X229434Y11769D01*
X229904Y9809D01*
X230676Y7946D01*
X231730Y6226D01*
X233039Y4693D01*
X234573Y3383D01*
X236292Y2330D01*
X237017Y2029D01*
X236917Y1529D01*
X18988D01*
X18889Y2029D01*
X19614Y2330D01*
X21333Y3383D01*
X22866Y4693D01*
X24176Y6226D01*
X25230Y7946D01*
X26001Y9809D01*
X26472Y11769D01*
X26630Y13780D01*
X26472Y15790D01*
X26001Y17751D01*
X25230Y19614D01*
X24176Y21333D01*
X22866Y22866D01*
X21333Y24176D01*
X19614Y25230D01*
X17751Y26001D01*
X15790Y26472D01*
X13780Y26630D01*
X11769Y26472D01*
X9809Y26001D01*
X7946Y25230D01*
X6226Y24176D01*
X4693Y22866D01*
X3383Y21333D01*
X2330Y19614D01*
X2029Y18889D01*
X1529Y18988D01*
Y99122D01*
X2029Y99221D01*
X2330Y98497D01*
X3383Y96777D01*
X4693Y95244D01*
X6226Y93934D01*
X7946Y92881D01*
X9809Y92109D01*
X11769Y91638D01*
X13780Y91480D01*
X15790Y91638D01*
X17751Y92109D01*
X19614Y92881D01*
X21333Y93934D01*
X22866Y95244D01*
X24176Y96777D01*
X25230Y98497D01*
X26001Y100360D01*
X26472Y102321D01*
X26630Y104331D01*
X26472Y106341D01*
X26001Y108302D01*
X25230Y110165D01*
X24176Y111884D01*
X22866Y113418D01*
X21333Y114727D01*
X19614Y115781D01*
X17751Y116552D01*
X15790Y117023D01*
X13780Y117181D01*
X11769Y117023D01*
X9809Y116552D01*
X7946Y115781D01*
X6226Y114727D01*
X4693Y113418D01*
X3383Y111884D01*
X2330Y110165D01*
X2029Y109440D01*
X1529Y109540D01*
Y252665D01*
X2029Y252765D01*
X2330Y252040D01*
X3383Y250321D01*
X4693Y248787D01*
X6226Y247478D01*
X7946Y246424D01*
X9809Y245652D01*
X11769Y245182D01*
X13780Y245023D01*
X15790Y245182D01*
X17751Y245652D01*
X19614Y246424D01*
X21333Y247478D01*
X22866Y248787D01*
X24176Y250321D01*
X25229Y252040D01*
X26001Y253903D01*
X26472Y255864D01*
X26630Y257874D01*
X26472Y259884D01*
X26001Y261845D01*
X25229Y263708D01*
X24176Y265427D01*
X22866Y266961D01*
X21333Y268270D01*
X19614Y269324D01*
X18889Y269624D01*
X18989Y270124D01*
X236917D01*
X237017Y269624D01*
D02*
G37*
%LPC*%
G36*
X181047Y234507D02*
X180003Y234369D01*
X179030Y233966D01*
X178194Y233325D01*
X177553Y232490D01*
X177383Y232078D01*
X176842D01*
X176671Y232490D01*
X176030Y233325D01*
X175194Y233966D01*
X174221Y234369D01*
X173177Y234507D01*
X172133Y234369D01*
X171160Y233966D01*
X170324Y233325D01*
X169683Y232490D01*
X169513Y232078D01*
X168972D01*
X168801Y232490D01*
X168160Y233325D01*
X167324Y233966D01*
X166351Y234369D01*
X165807Y234441D01*
Y230472D01*
Y226504D01*
X166351Y226575D01*
X167324Y226978D01*
X168160Y227620D01*
X168801Y228455D01*
X168972Y228867D01*
X169513D01*
X169683Y228455D01*
X170324Y227620D01*
X171160Y226978D01*
X172133Y226575D01*
X173177Y226438D01*
X174221Y226575D01*
X175194Y226978D01*
X176030Y227620D01*
X176671Y228455D01*
X176842Y228867D01*
X177383D01*
X177553Y228455D01*
X178194Y227620D01*
X179030Y226978D01*
X180003Y226575D01*
X181047Y226438D01*
X182091Y226575D01*
X183064Y226978D01*
X183900Y227620D01*
X184541Y228455D01*
X184944Y229428D01*
X185082Y230472D01*
X184944Y231517D01*
X184541Y232490D01*
X183900Y233325D01*
X183064Y233966D01*
X182091Y234369D01*
X181047Y234507D01*
D02*
G37*
G36*
X137547D02*
X136503Y234369D01*
X135530Y233966D01*
X134694Y233325D01*
X134053Y232490D01*
X133883Y232078D01*
X133342D01*
X133171Y232490D01*
X132530Y233325D01*
X131694Y233966D01*
X130721Y234369D01*
X129677Y234507D01*
X128633Y234369D01*
X127660Y233966D01*
X126824Y233325D01*
X126183Y232490D01*
X126013Y232078D01*
X125472D01*
X125301Y232490D01*
X124660Y233325D01*
X123824Y233966D01*
X122851Y234369D01*
X122307Y234441D01*
Y230472D01*
Y226504D01*
X122851Y226575D01*
X123824Y226978D01*
X124660Y227620D01*
X125301Y228455D01*
X125472Y228867D01*
X126013D01*
X126183Y228455D01*
X126824Y227620D01*
X127660Y226978D01*
X128633Y226575D01*
X129677Y226438D01*
X130721Y226575D01*
X131694Y226978D01*
X132530Y227620D01*
X133171Y228455D01*
X133342Y228867D01*
X133883D01*
X134053Y228455D01*
X134694Y227620D01*
X135530Y226978D01*
X136503Y226575D01*
X137547Y226438D01*
X138591Y226575D01*
X139564Y226978D01*
X140400Y227620D01*
X141041Y228455D01*
X141444Y229428D01*
X141582Y230472D01*
X141444Y231517D01*
X141041Y232490D01*
X140400Y233325D01*
X139564Y233966D01*
X138591Y234369D01*
X137547Y234507D01*
D02*
G37*
G36*
X94547D02*
X93503Y234369D01*
X92530Y233966D01*
X91694Y233325D01*
X91053Y232490D01*
X90883Y232078D01*
X90342D01*
X90171Y232490D01*
X89530Y233325D01*
X88694Y233966D01*
X87721Y234369D01*
X86677Y234507D01*
X85633Y234369D01*
X84660Y233966D01*
X83824Y233325D01*
X83183Y232490D01*
X83013Y232078D01*
X82472D01*
X82301Y232490D01*
X81660Y233325D01*
X80824Y233966D01*
X79851Y234369D01*
X79307Y234441D01*
Y230472D01*
Y226504D01*
X79851Y226575D01*
X80824Y226978D01*
X81660Y227620D01*
X82301Y228455D01*
X82472Y228867D01*
X83013D01*
X83183Y228455D01*
X83824Y227620D01*
X84660Y226978D01*
X85633Y226575D01*
X86677Y226438D01*
X87721Y226575D01*
X88694Y226978D01*
X89530Y227620D01*
X90171Y228455D01*
X90342Y228867D01*
X90883D01*
X91053Y228455D01*
X91694Y227620D01*
X92530Y226978D01*
X93503Y226575D01*
X94547Y226438D01*
X95591Y226575D01*
X96564Y226978D01*
X97400Y227620D01*
X98041Y228455D01*
X98444Y229428D01*
X98582Y230472D01*
X98444Y231517D01*
X98041Y232490D01*
X97400Y233325D01*
X96564Y233966D01*
X95591Y234369D01*
X94547Y234507D01*
D02*
G37*
G36*
X51047D02*
X50003Y234369D01*
X49030Y233966D01*
X48194Y233325D01*
X47553Y232490D01*
X47383Y232078D01*
X46842D01*
X46671Y232490D01*
X46030Y233325D01*
X45194Y233966D01*
X44221Y234369D01*
X43177Y234507D01*
X42133Y234369D01*
X41160Y233966D01*
X40324Y233325D01*
X39683Y232490D01*
X39513Y232078D01*
X38972D01*
X38801Y232490D01*
X38160Y233325D01*
X37324Y233966D01*
X36351Y234369D01*
X35807Y234441D01*
Y230472D01*
Y226504D01*
X36351Y226575D01*
X37324Y226978D01*
X38160Y227620D01*
X38801Y228455D01*
X38972Y228867D01*
X39513D01*
X39683Y228455D01*
X40324Y227620D01*
X41160Y226978D01*
X42133Y226575D01*
X43177Y226438D01*
X44221Y226575D01*
X45194Y226978D01*
X46030Y227620D01*
X46671Y228455D01*
X46842Y228867D01*
X47383D01*
X47553Y228455D01*
X48194Y227620D01*
X49030Y226978D01*
X50003Y226575D01*
X51047Y226438D01*
X52091Y226575D01*
X53064Y226978D01*
X53900Y227620D01*
X54541Y228455D01*
X54944Y229428D01*
X55082Y230472D01*
X54944Y231517D01*
X54541Y232490D01*
X53900Y233325D01*
X53064Y233966D01*
X52091Y234369D01*
X51047Y234507D01*
D02*
G37*
G36*
X164807Y234441D02*
X164263Y234369D01*
X163290Y233966D01*
X162454Y233325D01*
X161813Y232490D01*
X161410Y231517D01*
X161338Y230972D01*
X164807D01*
Y234441D01*
D02*
G37*
G36*
X78307D02*
X77763Y234369D01*
X76790Y233966D01*
X75954Y233325D01*
X75313Y232490D01*
X74910Y231517D01*
X74839Y230972D01*
X78307D01*
Y234441D01*
D02*
G37*
G36*
X121307D02*
X120763Y234369D01*
X119790Y233966D01*
X118954Y233325D01*
X118313Y232490D01*
X117910Y231517D01*
X117839Y230972D01*
X121307D01*
Y234441D01*
D02*
G37*
G36*
X34807Y234441D02*
X34263Y234369D01*
X33290Y233966D01*
X32454Y233325D01*
X31813Y232490D01*
X31410Y231517D01*
X31339Y230972D01*
X34807D01*
Y234441D01*
D02*
G37*
G36*
X13047Y243262D02*
X11430Y243103D01*
X9875Y242631D01*
X8442Y241865D01*
X7185Y240834D01*
X6154Y239578D01*
X5388Y238145D01*
X4916Y236590D01*
X4757Y234972D01*
X4916Y233355D01*
X5388Y231800D01*
X6154Y230367D01*
X7185Y229111D01*
X8442Y228080D01*
X9875Y227313D01*
X11430Y226842D01*
X13047Y226682D01*
X14664Y226842D01*
X16220Y227313D01*
X17653Y228080D01*
X18909Y229111D01*
X19940Y230367D01*
X20706Y231800D01*
X21178Y233355D01*
X21337Y234972D01*
X21178Y236590D01*
X20706Y238145D01*
X19940Y239578D01*
X18909Y240834D01*
X17653Y241865D01*
X16220Y242631D01*
X14664Y243103D01*
X13047Y243262D01*
D02*
G37*
G36*
X164807Y229972D02*
X161338D01*
X161410Y229428D01*
X161813Y228455D01*
X162454Y227620D01*
X163290Y226978D01*
X164263Y226575D01*
X164807Y226504D01*
Y229972D01*
D02*
G37*
G36*
X121307D02*
X117839D01*
X117910Y229428D01*
X118313Y228455D01*
X118954Y227620D01*
X119790Y226978D01*
X120763Y226575D01*
X121307Y226504D01*
Y229972D01*
D02*
G37*
G36*
X78307D02*
X74839D01*
X74910Y229428D01*
X75313Y228455D01*
X75954Y227620D01*
X76790Y226978D01*
X77763Y226575D01*
X78307Y226504D01*
Y229972D01*
D02*
G37*
G36*
X34807D02*
X31339D01*
X31410Y229428D01*
X31813Y228455D01*
X32454Y227620D01*
X33290Y226978D01*
X34263Y226575D01*
X34807Y226504D01*
Y229972D01*
D02*
G37*
G36*
X177047Y224507D02*
X176003Y224370D01*
X175030Y223966D01*
X174194Y223325D01*
X173553Y222490D01*
X173383Y222078D01*
X172842D01*
X172671Y222490D01*
X172030Y223325D01*
X171194Y223966D01*
X170221Y224370D01*
X169177Y224507D01*
X168133Y224370D01*
X167160Y223966D01*
X166324Y223325D01*
X165683Y222490D01*
X165513Y222078D01*
X164972D01*
X164801Y222490D01*
X164160Y223325D01*
X163324Y223966D01*
X162351Y224370D01*
X161307Y224507D01*
X160263Y224370D01*
X159290Y223966D01*
X158454Y223325D01*
X157813Y222490D01*
X157410Y221517D01*
X157273Y220472D01*
X157410Y219428D01*
X157813Y218455D01*
X158454Y217620D01*
X159290Y216978D01*
X160263Y216575D01*
X161307Y216438D01*
X162351Y216575D01*
X163324Y216978D01*
X164160Y217620D01*
X164801Y218455D01*
X164972Y218867D01*
X165513D01*
X165683Y218455D01*
X166324Y217620D01*
X167160Y216978D01*
X168133Y216575D01*
X169177Y216438D01*
X170221Y216575D01*
X171194Y216978D01*
X172030Y217620D01*
X172671Y218455D01*
X172842Y218867D01*
X173383D01*
X173553Y218455D01*
X174194Y217620D01*
X175030Y216978D01*
X176003Y216575D01*
X177047Y216438D01*
X178091Y216575D01*
X179064Y216978D01*
X179900Y217620D01*
X180541Y218455D01*
X180944Y219428D01*
X181082Y220472D01*
X180944Y221517D01*
X180541Y222490D01*
X179900Y223325D01*
X179064Y223966D01*
X178091Y224370D01*
X177047Y224507D01*
D02*
G37*
G36*
X133547D02*
X132503Y224370D01*
X131530Y223966D01*
X130694Y223325D01*
X130053Y222490D01*
X129883Y222078D01*
X129342D01*
X129171Y222490D01*
X128530Y223325D01*
X127694Y223966D01*
X126721Y224370D01*
X125677Y224507D01*
X124633Y224370D01*
X123660Y223966D01*
X122824Y223325D01*
X122183Y222490D01*
X122013Y222078D01*
X121472D01*
X121301Y222490D01*
X120660Y223325D01*
X119824Y223966D01*
X118851Y224370D01*
X117807Y224507D01*
X116763Y224370D01*
X115790Y223966D01*
X114954Y223325D01*
X114313Y222490D01*
X113910Y221517D01*
X113773Y220472D01*
X113910Y219428D01*
X114313Y218455D01*
X114954Y217620D01*
X115790Y216978D01*
X116763Y216575D01*
X117807Y216438D01*
X118851Y216575D01*
X119824Y216978D01*
X120660Y217620D01*
X121301Y218455D01*
X121472Y218867D01*
X122013D01*
X122183Y218455D01*
X122824Y217620D01*
X123660Y216978D01*
X124633Y216575D01*
X125677Y216438D01*
X126721Y216575D01*
X127694Y216978D01*
X128530Y217620D01*
X129171Y218455D01*
X129342Y218867D01*
X129883D01*
X130053Y218455D01*
X130694Y217620D01*
X131530Y216978D01*
X132503Y216575D01*
X133547Y216438D01*
X134591Y216575D01*
X135564Y216978D01*
X136400Y217620D01*
X137041Y218455D01*
X137444Y219428D01*
X137582Y220472D01*
X137444Y221517D01*
X137041Y222490D01*
X136400Y223325D01*
X135564Y223966D01*
X134591Y224370D01*
X133547Y224507D01*
D02*
G37*
G36*
X90547D02*
X89503Y224370D01*
X88530Y223966D01*
X87694Y223325D01*
X87053Y222490D01*
X86883Y222078D01*
X86342D01*
X86171Y222490D01*
X85530Y223325D01*
X84694Y223966D01*
X83721Y224370D01*
X82677Y224507D01*
X81633Y224370D01*
X80660Y223966D01*
X79824Y223325D01*
X79183Y222490D01*
X79013Y222078D01*
X78472D01*
X78301Y222490D01*
X77660Y223325D01*
X76824Y223966D01*
X75851Y224370D01*
X74807Y224507D01*
X73763Y224370D01*
X72790Y223966D01*
X71954Y223325D01*
X71313Y222490D01*
X70910Y221517D01*
X70773Y220472D01*
X70910Y219428D01*
X71313Y218455D01*
X71954Y217620D01*
X72790Y216978D01*
X73763Y216575D01*
X74807Y216438D01*
X75851Y216575D01*
X76824Y216978D01*
X77660Y217620D01*
X78301Y218455D01*
X78472Y218867D01*
X79013D01*
X79183Y218455D01*
X79824Y217620D01*
X80660Y216978D01*
X81633Y216575D01*
X82677Y216438D01*
X83721Y216575D01*
X84694Y216978D01*
X85530Y217620D01*
X86171Y218455D01*
X86342Y218867D01*
X86883D01*
X87053Y218455D01*
X87694Y217620D01*
X88530Y216978D01*
X89503Y216575D01*
X90547Y216438D01*
X91591Y216575D01*
X92564Y216978D01*
X93400Y217620D01*
X94041Y218455D01*
X94444Y219428D01*
X94582Y220472D01*
X94444Y221517D01*
X94041Y222490D01*
X93400Y223325D01*
X92564Y223966D01*
X91591Y224370D01*
X90547Y224507D01*
D02*
G37*
G36*
X47047D02*
X46003Y224370D01*
X45030Y223966D01*
X44194Y223325D01*
X43553Y222490D01*
X43383Y222078D01*
X42842D01*
X42671Y222490D01*
X42030Y223325D01*
X41194Y223966D01*
X40221Y224370D01*
X39177Y224507D01*
X38133Y224370D01*
X37160Y223966D01*
X36324Y223325D01*
X35683Y222490D01*
X35513Y222078D01*
X34972D01*
X34801Y222490D01*
X34160Y223325D01*
X33324Y223966D01*
X32351Y224370D01*
X31307Y224507D01*
X30263Y224370D01*
X29290Y223966D01*
X28454Y223325D01*
X27813Y222490D01*
X27410Y221517D01*
X27273Y220472D01*
X27410Y219428D01*
X27813Y218455D01*
X28454Y217620D01*
X29290Y216978D01*
X30263Y216575D01*
X31307Y216438D01*
X32351Y216575D01*
X33324Y216978D01*
X34160Y217620D01*
X34801Y218455D01*
X34972Y218867D01*
X35513D01*
X35683Y218455D01*
X36324Y217620D01*
X37160Y216978D01*
X38133Y216575D01*
X39177Y216438D01*
X40221Y216575D01*
X41194Y216978D01*
X42030Y217620D01*
X42671Y218455D01*
X42842Y218867D01*
X43383D01*
X43553Y218455D01*
X44194Y217620D01*
X45030Y216978D01*
X46003Y216575D01*
X47047Y216438D01*
X48091Y216575D01*
X49064Y216978D01*
X49900Y217620D01*
X50541Y218455D01*
X50944Y219428D01*
X51082Y220472D01*
X50944Y221517D01*
X50541Y222490D01*
X49900Y223325D01*
X49064Y223966D01*
X48091Y224370D01*
X47047Y224507D01*
D02*
G37*
G36*
X255809Y216459D02*
X255709Y216449D01*
X255609Y216459D01*
X254355Y216336D01*
X254258Y216306D01*
X254158Y216297D01*
X252953Y215931D01*
X252864Y215883D01*
X252768Y215854D01*
X251657Y215260D01*
X251579Y215196D01*
X251490Y215149D01*
X250516Y214350D01*
X250452Y214272D01*
X250375Y214208D01*
X249575Y213234D01*
X249528Y213145D01*
X249464Y213068D01*
X248870Y211957D01*
X248841Y211860D01*
X248794Y211772D01*
X248428Y210566D01*
X248418Y210466D01*
X248389Y210370D01*
X248265Y209116D01*
X248270Y209065D01*
X248260Y209016D01*
X248270Y208966D01*
X248265Y208916D01*
X248389Y207662D01*
X248418Y207566D01*
X248428Y207466D01*
X248794Y206260D01*
X248841Y206171D01*
X248870Y206075D01*
X249464Y204964D01*
X249528Y204886D01*
X249575Y204797D01*
X250375Y203823D01*
X250452Y203760D01*
X250516Y203682D01*
X251490Y202882D01*
X251579Y202835D01*
X251657Y202771D01*
X252768Y202177D01*
X252864Y202148D01*
X252953Y202101D01*
X254158Y201735D01*
X254258Y201725D01*
X254355Y201696D01*
X255609Y201572D01*
X255709Y201582D01*
X255809Y201572D01*
X257063Y201696D01*
X257159Y201725D01*
X257259Y201735D01*
X258465Y202101D01*
X258553Y202148D01*
X258649Y202177D01*
X259761Y202771D01*
X259839Y202835D01*
X259927Y202882D01*
X260901Y203682D01*
X260965Y203760D01*
X261042Y203823D01*
X261842Y204797D01*
X261889Y204886D01*
X261953Y204964D01*
X262547Y206075D01*
X262576Y206171D01*
X262624Y206260D01*
X262989Y207466D01*
X262999Y207566D01*
X263028Y207662D01*
X263152Y208916D01*
X263147Y208966D01*
X263157Y209016D01*
X263147Y209065D01*
X263152Y209116D01*
X263028Y210370D01*
X262999Y210466D01*
X262989Y210566D01*
X262624Y211772D01*
X262576Y211860D01*
X262547Y211957D01*
X261953Y213068D01*
X261889Y213145D01*
X261842Y213234D01*
X261042Y214208D01*
X260965Y214272D01*
X260901Y214350D01*
X259927Y215149D01*
X259839Y215196D01*
X259761Y215260D01*
X258649Y215854D01*
X258553Y215883D01*
X258465Y215931D01*
X257259Y216297D01*
X257159Y216306D01*
X257063Y216336D01*
X255809Y216459D01*
D02*
G37*
G36*
X267717Y225235D02*
X266403Y225106D01*
X265141Y224723D01*
X263977Y224101D01*
X262957Y223264D01*
X262120Y222244D01*
X261498Y221080D01*
X261115Y219817D01*
X260985Y218504D01*
X261115Y217191D01*
X261498Y215928D01*
X262120Y214764D01*
X262957Y213744D01*
X263977Y212907D01*
X265141Y212285D01*
X266403Y211902D01*
X267717Y211773D01*
X269030Y211902D01*
X270292Y212285D01*
X271456Y212907D01*
X272476Y213744D01*
X273313Y214764D01*
X273935Y215928D01*
X274318Y217191D01*
X274448Y218504D01*
X274318Y219817D01*
X273935Y221080D01*
X273313Y222244D01*
X272476Y223264D01*
X271456Y224101D01*
X270292Y224723D01*
X269030Y225106D01*
X267717Y225235D01*
D02*
G37*
G36*
X220709Y207542D02*
X219796Y207422D01*
X218946Y207069D01*
X218215Y206509D01*
X217655Y205779D01*
X217303Y204928D01*
X217182Y204016D01*
X217303Y203103D01*
X217655Y202253D01*
X218215Y201522D01*
X218946Y200962D01*
X219796Y200610D01*
X220709Y200489D01*
X221621Y200610D01*
X222472Y200962D01*
X223202Y201522D01*
X223762Y202253D01*
X224115Y203103D01*
X224235Y204016D01*
X224115Y204928D01*
X223762Y205779D01*
X223202Y206509D01*
X222472Y207069D01*
X221621Y207422D01*
X220709Y207542D01*
D02*
G37*
G36*
X230709Y202542D02*
X229796Y202422D01*
X228946Y202070D01*
X228215Y201509D01*
X227655Y200779D01*
X227303Y199928D01*
X227182Y199016D01*
X227303Y198103D01*
X227655Y197253D01*
X228215Y196522D01*
X228946Y195962D01*
X229796Y195610D01*
X230709Y195490D01*
X231621Y195610D01*
X232472Y195962D01*
X233202Y196522D01*
X233763Y197253D01*
X234115Y198103D01*
X234235Y199016D01*
X234115Y199928D01*
X233763Y200779D01*
X233202Y201509D01*
X232472Y202070D01*
X231621Y202422D01*
X230709Y202542D01*
D02*
G37*
G36*
X199047Y211262D02*
X197430Y211103D01*
X195875Y210631D01*
X194441Y209865D01*
X193185Y208834D01*
X192154Y207578D01*
X191388Y206145D01*
X190917Y204590D01*
X190757Y202972D01*
X190917Y201355D01*
X191388Y199800D01*
X192154Y198367D01*
X193185Y197111D01*
X194441Y196080D01*
X195875Y195314D01*
X197430Y194842D01*
X199047Y194683D01*
X200664Y194842D01*
X202220Y195314D01*
X203653Y196080D01*
X204909Y197111D01*
X205940Y198367D01*
X206706Y199800D01*
X207178Y201355D01*
X207337Y202972D01*
X207178Y204590D01*
X206706Y206145D01*
X205940Y207578D01*
X204909Y208834D01*
X203653Y209865D01*
X202220Y210631D01*
X200664Y211103D01*
X199047Y211262D01*
D02*
G37*
G36*
X220709Y197542D02*
X219796Y197422D01*
X218946Y197070D01*
X218215Y196509D01*
X217655Y195779D01*
X217303Y194928D01*
X217182Y194016D01*
X217303Y193103D01*
X217655Y192253D01*
X218215Y191522D01*
X218946Y190962D01*
X219796Y190610D01*
X220709Y190489D01*
X221621Y190610D01*
X222472Y190962D01*
X223202Y191522D01*
X223762Y192253D01*
X224115Y193103D01*
X224235Y194016D01*
X224115Y194928D01*
X223762Y195779D01*
X223202Y196509D01*
X222472Y197070D01*
X221621Y197422D01*
X220709Y197542D01*
D02*
G37*
G36*
X230709Y192542D02*
X229796Y192422D01*
X228946Y192070D01*
X228215Y191509D01*
X227655Y190779D01*
X227303Y189928D01*
X227182Y189016D01*
X227303Y188103D01*
X227655Y187253D01*
X228215Y186522D01*
X228946Y185962D01*
X229796Y185610D01*
X230709Y185489D01*
X231621Y185610D01*
X232472Y185962D01*
X233202Y186522D01*
X233763Y187253D01*
X234115Y188103D01*
X234235Y189016D01*
X234115Y189928D01*
X233763Y190779D01*
X233202Y191509D01*
X232472Y192070D01*
X231621Y192422D01*
X230709Y192542D01*
D02*
G37*
G36*
X220709Y187542D02*
X219796Y187422D01*
X218946Y187070D01*
X218215Y186509D01*
X217655Y185779D01*
X217303Y184928D01*
X217182Y184016D01*
X217303Y183103D01*
X217655Y182253D01*
X218215Y181522D01*
X218946Y180962D01*
X219796Y180610D01*
X220709Y180490D01*
X221621Y180610D01*
X222472Y180962D01*
X223202Y181522D01*
X223762Y182253D01*
X224115Y183103D01*
X224235Y184016D01*
X224115Y184928D01*
X223762Y185779D01*
X223202Y186509D01*
X222472Y187070D01*
X221621Y187422D01*
X220709Y187542D01*
D02*
G37*
G36*
X230709Y182542D02*
X229796Y182422D01*
X228946Y182070D01*
X228215Y181509D01*
X227655Y180779D01*
X227303Y179928D01*
X227182Y179016D01*
X227303Y178103D01*
X227655Y177253D01*
X228215Y176522D01*
X228946Y175962D01*
X229796Y175610D01*
X230709Y175489D01*
X231621Y175610D01*
X232472Y175962D01*
X233202Y176522D01*
X233763Y177253D01*
X234115Y178103D01*
X234235Y179016D01*
X234115Y179928D01*
X233763Y180779D01*
X233202Y181509D01*
X232472Y182070D01*
X231621Y182422D01*
X230709Y182542D01*
D02*
G37*
G36*
X255809Y171459D02*
X255709Y171449D01*
X255609Y171459D01*
X254355Y171335D01*
X254258Y171306D01*
X254158Y171297D01*
X252953Y170931D01*
X252864Y170883D01*
X252768Y170854D01*
X251657Y170260D01*
X251579Y170196D01*
X251490Y170149D01*
X250516Y169350D01*
X250452Y169272D01*
X250375Y169208D01*
X249575Y168234D01*
X249528Y168146D01*
X249464Y168068D01*
X248870Y166956D01*
X248841Y166860D01*
X248794Y166772D01*
X248428Y165566D01*
X248418Y165466D01*
X248389Y165370D01*
X248265Y164116D01*
X248270Y164065D01*
X248260Y164016D01*
X248270Y163966D01*
X248265Y163916D01*
X248389Y162662D01*
X248418Y162566D01*
X248428Y162466D01*
X248794Y161260D01*
X248841Y161171D01*
X248870Y161075D01*
X249464Y159964D01*
X249528Y159886D01*
X249575Y159797D01*
X250375Y158823D01*
X250452Y158759D01*
X250516Y158682D01*
X251490Y157882D01*
X251579Y157835D01*
X251657Y157771D01*
X252768Y157177D01*
X252864Y157148D01*
X252953Y157101D01*
X254158Y156735D01*
X254258Y156725D01*
X254355Y156696D01*
X255609Y156572D01*
X255709Y156582D01*
X255809Y156572D01*
X257063Y156696D01*
X257159Y156725D01*
X257259Y156735D01*
X258465Y157101D01*
X258553Y157148D01*
X258649Y157177D01*
X259761Y157771D01*
X259839Y157835D01*
X259927Y157882D01*
X260901Y158682D01*
X260965Y158759D01*
X261042Y158823D01*
X261842Y159797D01*
X261889Y159886D01*
X261953Y159964D01*
X262547Y161075D01*
X262576Y161171D01*
X262624Y161260D01*
X262989Y162466D01*
X262999Y162566D01*
X263028Y162662D01*
X263152Y163916D01*
X263147Y163966D01*
X263157Y164016D01*
X263147Y164065D01*
X263152Y164116D01*
X263028Y165370D01*
X262999Y165466D01*
X262989Y165566D01*
X262624Y166772D01*
X262576Y166860D01*
X262547Y166956D01*
X261953Y168068D01*
X261889Y168146D01*
X261842Y168234D01*
X261042Y169208D01*
X260965Y169272D01*
X260901Y169350D01*
X259927Y170149D01*
X259839Y170196D01*
X259761Y170260D01*
X258649Y170854D01*
X258553Y170883D01*
X258465Y170931D01*
X257259Y171297D01*
X257159Y171306D01*
X257063Y171335D01*
X255809Y171459D01*
D02*
G37*
G36*
X220709Y177542D02*
X219796Y177422D01*
X218946Y177070D01*
X218215Y176509D01*
X217655Y175779D01*
X217303Y174928D01*
X217182Y174016D01*
X217303Y173103D01*
X217655Y172253D01*
X218215Y171522D01*
X218946Y170962D01*
X219796Y170610D01*
X220709Y170490D01*
X221621Y170610D01*
X222472Y170962D01*
X223202Y171522D01*
X223762Y172253D01*
X224115Y173103D01*
X224235Y174016D01*
X224115Y174928D01*
X223762Y175779D01*
X223202Y176509D01*
X222472Y177070D01*
X221621Y177422D01*
X220709Y177542D01*
D02*
G37*
G36*
X233205Y172531D02*
X231209D01*
Y169516D01*
X234224D01*
Y171512D01*
X234147Y171902D01*
X233926Y172233D01*
X233595Y172454D01*
X233205Y172531D01*
D02*
G37*
G36*
X230209D02*
X228213D01*
X227822Y172454D01*
X227492Y172233D01*
X227271Y171902D01*
X227193Y171512D01*
Y169516D01*
X230209D01*
Y172531D01*
D02*
G37*
G36*
X234224Y168516D02*
X231209D01*
Y165500D01*
X233205D01*
X233595Y165578D01*
X233926Y165799D01*
X234147Y166130D01*
X234224Y166520D01*
Y168516D01*
D02*
G37*
G36*
X230209D02*
X227193D01*
Y166520D01*
X227271Y166130D01*
X227492Y165799D01*
X227822Y165578D01*
X228213Y165500D01*
X230209D01*
Y168516D01*
D02*
G37*
G36*
X13500Y179491D02*
X11883Y179331D01*
X10328Y178860D01*
X8895Y178094D01*
X7638Y177063D01*
X6607Y175806D01*
X5841Y174373D01*
X5369Y172818D01*
X5210Y171201D01*
X5369Y169583D01*
X5841Y168028D01*
X6607Y166595D01*
X7638Y165339D01*
X8895Y164308D01*
X10328Y163542D01*
X11883Y163070D01*
X13500Y162911D01*
X15117Y163070D01*
X16672Y163542D01*
X18106Y164308D01*
X19362Y165339D01*
X20393Y166595D01*
X21159Y168028D01*
X21631Y169583D01*
X21790Y171201D01*
X21631Y172818D01*
X21159Y174373D01*
X20393Y175806D01*
X19362Y177063D01*
X18106Y178094D01*
X16672Y178860D01*
X15117Y179331D01*
X13500Y179491D01*
D02*
G37*
G36*
X181240Y157735D02*
X180196Y157598D01*
X179223Y157195D01*
X178387Y156554D01*
X177746Y155718D01*
X177576Y155307D01*
X177034D01*
X176864Y155718D01*
X176223Y156554D01*
X175387Y157195D01*
X174414Y157598D01*
X173370Y157735D01*
X172326Y157598D01*
X171353Y157195D01*
X170517Y156554D01*
X169876Y155718D01*
X169706Y155307D01*
X169165D01*
X168994Y155718D01*
X168353Y156554D01*
X167517Y157195D01*
X166544Y157598D01*
X165500Y157735D01*
X164456Y157598D01*
X163483Y157195D01*
X162647Y156554D01*
X162006Y155718D01*
X161603Y154745D01*
X161466Y153701D01*
X161603Y152657D01*
X162006Y151683D01*
X162647Y150848D01*
X163483Y150207D01*
X164456Y149804D01*
X165500Y149666D01*
X166544Y149804D01*
X167517Y150207D01*
X168353Y150848D01*
X168994Y151683D01*
X169165Y152095D01*
X169706D01*
X169876Y151683D01*
X170517Y150848D01*
X171353Y150207D01*
X172326Y149804D01*
X173370Y149666D01*
X174414Y149804D01*
X175387Y150207D01*
X176223Y150848D01*
X176864Y151683D01*
X177034Y152095D01*
X177576D01*
X177746Y151683D01*
X178387Y150848D01*
X179223Y150207D01*
X180196Y149804D01*
X181240Y149666D01*
X182284Y149804D01*
X183257Y150207D01*
X184093Y150848D01*
X184734Y151683D01*
X185137Y152657D01*
X185275Y153701D01*
X185137Y154745D01*
X184734Y155718D01*
X184093Y156554D01*
X183257Y157195D01*
X182284Y157598D01*
X181240Y157735D01*
D02*
G37*
G36*
X137740D02*
X136696Y157598D01*
X135723Y157195D01*
X134887Y156554D01*
X134246Y155718D01*
X134076Y155307D01*
X133535D01*
X133364Y155718D01*
X132723Y156554D01*
X131887Y157195D01*
X130914Y157598D01*
X129870Y157735D01*
X128826Y157598D01*
X127853Y157195D01*
X127017Y156554D01*
X126376Y155718D01*
X126206Y155307D01*
X125664D01*
X125494Y155718D01*
X124853Y156554D01*
X124017Y157195D01*
X123044Y157598D01*
X122000Y157735D01*
X120956Y157598D01*
X119983Y157195D01*
X119147Y156554D01*
X118506Y155718D01*
X118103Y154745D01*
X117966Y153701D01*
X118103Y152657D01*
X118506Y151683D01*
X119147Y150848D01*
X119983Y150207D01*
X120956Y149804D01*
X122000Y149666D01*
X123044Y149804D01*
X124017Y150207D01*
X124853Y150848D01*
X125494Y151683D01*
X125664Y152095D01*
X126206D01*
X126376Y151683D01*
X127017Y150848D01*
X127853Y150207D01*
X128826Y149804D01*
X129870Y149666D01*
X130914Y149804D01*
X131887Y150207D01*
X132723Y150848D01*
X133364Y151683D01*
X133535Y152095D01*
X134076D01*
X134246Y151683D01*
X134887Y150848D01*
X135723Y150207D01*
X136696Y149804D01*
X137740Y149666D01*
X138784Y149804D01*
X139757Y150207D01*
X140593Y150848D01*
X141234Y151683D01*
X141637Y152657D01*
X141775Y153701D01*
X141637Y154745D01*
X141234Y155718D01*
X140593Y156554D01*
X139757Y157195D01*
X138784Y157598D01*
X137740Y157735D01*
D02*
G37*
G36*
X94740D02*
X93696Y157598D01*
X92723Y157195D01*
X91887Y156554D01*
X91246Y155718D01*
X91076Y155307D01*
X90535D01*
X90364Y155718D01*
X89723Y156554D01*
X88887Y157195D01*
X87914Y157598D01*
X86870Y157735D01*
X85826Y157598D01*
X84853Y157195D01*
X84017Y156554D01*
X83376Y155718D01*
X83206Y155307D01*
X82665D01*
X82494Y155718D01*
X81853Y156554D01*
X81017Y157195D01*
X80044Y157598D01*
X79000Y157735D01*
X77956Y157598D01*
X76983Y157195D01*
X76147Y156554D01*
X75506Y155718D01*
X75103Y154745D01*
X74966Y153701D01*
X75103Y152657D01*
X75506Y151683D01*
X76147Y150848D01*
X76983Y150207D01*
X77956Y149804D01*
X79000Y149666D01*
X80044Y149804D01*
X81017Y150207D01*
X81853Y150848D01*
X82494Y151683D01*
X82665Y152095D01*
X83206D01*
X83376Y151683D01*
X84017Y150848D01*
X84853Y150207D01*
X85826Y149804D01*
X86870Y149666D01*
X87914Y149804D01*
X88887Y150207D01*
X89723Y150848D01*
X90364Y151683D01*
X90535Y152095D01*
X91076D01*
X91246Y151683D01*
X91887Y150848D01*
X92723Y150207D01*
X93696Y149804D01*
X94740Y149666D01*
X95784Y149804D01*
X96757Y150207D01*
X97593Y150848D01*
X98234Y151683D01*
X98637Y152657D01*
X98775Y153701D01*
X98637Y154745D01*
X98234Y155718D01*
X97593Y156554D01*
X96757Y157195D01*
X95784Y157598D01*
X94740Y157735D01*
D02*
G37*
G36*
X51240D02*
X50196Y157598D01*
X49223Y157195D01*
X48387Y156554D01*
X47746Y155718D01*
X47576Y155307D01*
X47034D01*
X46864Y155718D01*
X46223Y156554D01*
X45387Y157195D01*
X44414Y157598D01*
X43370Y157735D01*
X42326Y157598D01*
X41353Y157195D01*
X40517Y156554D01*
X39876Y155718D01*
X39706Y155307D01*
X39165D01*
X38994Y155718D01*
X38353Y156554D01*
X37517Y157195D01*
X36544Y157598D01*
X35500Y157735D01*
X34456Y157598D01*
X33483Y157195D01*
X32647Y156554D01*
X32006Y155718D01*
X31603Y154745D01*
X31466Y153701D01*
X31603Y152657D01*
X32006Y151683D01*
X32647Y150848D01*
X33483Y150207D01*
X34456Y149804D01*
X35500Y149666D01*
X36544Y149804D01*
X37517Y150207D01*
X38353Y150848D01*
X38994Y151683D01*
X39165Y152095D01*
X39706D01*
X39876Y151683D01*
X40517Y150848D01*
X41353Y150207D01*
X42326Y149804D01*
X43370Y149666D01*
X44414Y149804D01*
X45387Y150207D01*
X46223Y150848D01*
X46864Y151683D01*
X47034Y152095D01*
X47576D01*
X47746Y151683D01*
X48387Y150848D01*
X49223Y150207D01*
X50196Y149804D01*
X51240Y149666D01*
X52284Y149804D01*
X53257Y150207D01*
X54093Y150848D01*
X54734Y151683D01*
X55137Y152657D01*
X55275Y153701D01*
X55137Y154745D01*
X54734Y155718D01*
X54093Y156554D01*
X53257Y157195D01*
X52284Y157598D01*
X51240Y157735D01*
D02*
G37*
G36*
X267717Y161259D02*
X266403Y161129D01*
X265141Y160746D01*
X263977Y160124D01*
X262957Y159287D01*
X262120Y158267D01*
X261498Y157104D01*
X261115Y155841D01*
X260985Y154528D01*
X261115Y153214D01*
X261498Y151952D01*
X262120Y150788D01*
X262957Y149768D01*
X263977Y148931D01*
X265141Y148309D01*
X266403Y147926D01*
X267717Y147796D01*
X269030Y147926D01*
X270292Y148309D01*
X271456Y148931D01*
X272476Y149768D01*
X273313Y150788D01*
X273935Y151952D01*
X274318Y153214D01*
X274448Y154528D01*
X274318Y155841D01*
X273935Y157104D01*
X273313Y158267D01*
X272476Y159287D01*
X271456Y160124D01*
X270292Y160746D01*
X269030Y161129D01*
X267717Y161259D01*
D02*
G37*
G36*
X169370Y147735D02*
X168326Y147598D01*
X167353Y147195D01*
X166517Y146554D01*
X165876Y145718D01*
X165706Y145307D01*
X165164D01*
X164994Y145718D01*
X164353Y146554D01*
X163517Y147195D01*
X162544Y147598D01*
X161500Y147735D01*
X160456Y147598D01*
X159483Y147195D01*
X158647Y146554D01*
X158006Y145718D01*
X157603Y144745D01*
X157466Y143701D01*
X157603Y142657D01*
X158006Y141683D01*
X158647Y140848D01*
X159483Y140207D01*
X160456Y139804D01*
X161500Y139666D01*
X162544Y139804D01*
X163517Y140207D01*
X164353Y140848D01*
X164994Y141683D01*
X165164Y142095D01*
X165706D01*
X165876Y141683D01*
X166517Y140848D01*
X167353Y140207D01*
X168326Y139804D01*
X169370Y139666D01*
X170414Y139804D01*
X171387Y140207D01*
X172223Y140848D01*
X172864Y141683D01*
X173035Y142095D01*
X173576D01*
X173746Y141683D01*
X174387Y140848D01*
X175223Y140207D01*
X176196Y139804D01*
X176740Y139732D01*
Y143701D01*
Y147669D01*
X176196Y147598D01*
X175223Y147195D01*
X174387Y146554D01*
X173746Y145718D01*
X173576Y145307D01*
X173035D01*
X172864Y145718D01*
X172223Y146554D01*
X171387Y147195D01*
X170414Y147598D01*
X169370Y147735D01*
D02*
G37*
G36*
X125870D02*
X124826Y147598D01*
X123853Y147195D01*
X123017Y146554D01*
X122376Y145718D01*
X122206Y145307D01*
X121665D01*
X121494Y145718D01*
X120853Y146554D01*
X120017Y147195D01*
X119044Y147598D01*
X118000Y147735D01*
X116956Y147598D01*
X115983Y147195D01*
X115147Y146554D01*
X114506Y145718D01*
X114103Y144745D01*
X113966Y143701D01*
X114103Y142657D01*
X114506Y141683D01*
X115147Y140848D01*
X115983Y140207D01*
X116956Y139804D01*
X118000Y139666D01*
X119044Y139804D01*
X120017Y140207D01*
X120853Y140848D01*
X121494Y141683D01*
X121665Y142095D01*
X122206D01*
X122376Y141683D01*
X123017Y140848D01*
X123853Y140207D01*
X124826Y139804D01*
X125870Y139666D01*
X126914Y139804D01*
X127887Y140207D01*
X128723Y140848D01*
X129364Y141683D01*
X129534Y142095D01*
X130076D01*
X130246Y141683D01*
X130887Y140848D01*
X131723Y140207D01*
X132696Y139804D01*
X133240Y139732D01*
Y143701D01*
Y147669D01*
X132696Y147598D01*
X131723Y147195D01*
X130887Y146554D01*
X130246Y145718D01*
X130076Y145307D01*
X129534D01*
X129364Y145718D01*
X128723Y146554D01*
X127887Y147195D01*
X126914Y147598D01*
X125870Y147735D01*
D02*
G37*
G36*
X82870D02*
X81826Y147598D01*
X80853Y147195D01*
X80017Y146554D01*
X79376Y145718D01*
X79206Y145307D01*
X78664D01*
X78494Y145718D01*
X77853Y146554D01*
X77017Y147195D01*
X76044Y147598D01*
X75000Y147735D01*
X73956Y147598D01*
X72983Y147195D01*
X72147Y146554D01*
X71506Y145718D01*
X71103Y144745D01*
X70966Y143701D01*
X71103Y142657D01*
X71506Y141683D01*
X72147Y140848D01*
X72983Y140207D01*
X73956Y139804D01*
X75000Y139666D01*
X76044Y139804D01*
X77017Y140207D01*
X77853Y140848D01*
X78494Y141683D01*
X78664Y142095D01*
X79206D01*
X79376Y141683D01*
X80017Y140848D01*
X80853Y140207D01*
X81826Y139804D01*
X82870Y139666D01*
X83914Y139804D01*
X84887Y140207D01*
X85723Y140848D01*
X86364Y141683D01*
X86535Y142095D01*
X87076D01*
X87246Y141683D01*
X87887Y140848D01*
X88723Y140207D01*
X89696Y139804D01*
X90240Y139732D01*
Y143701D01*
Y147669D01*
X89696Y147598D01*
X88723Y147195D01*
X87887Y146554D01*
X87246Y145718D01*
X87076Y145307D01*
X86535D01*
X86364Y145718D01*
X85723Y146554D01*
X84887Y147195D01*
X83914Y147598D01*
X82870Y147735D01*
D02*
G37*
G36*
X39370D02*
X38326Y147598D01*
X37353Y147195D01*
X36517Y146554D01*
X35876Y145718D01*
X35706Y145307D01*
X35164D01*
X34994Y145718D01*
X34353Y146554D01*
X33517Y147195D01*
X32544Y147598D01*
X31500Y147735D01*
X30456Y147598D01*
X29483Y147195D01*
X28647Y146554D01*
X28006Y145718D01*
X27603Y144745D01*
X27466Y143701D01*
X27603Y142657D01*
X28006Y141683D01*
X28647Y140848D01*
X29483Y140207D01*
X30456Y139804D01*
X31500Y139666D01*
X32544Y139804D01*
X33517Y140207D01*
X34353Y140848D01*
X34994Y141683D01*
X35164Y142095D01*
X35706D01*
X35876Y141683D01*
X36517Y140848D01*
X37353Y140207D01*
X38326Y139804D01*
X39370Y139666D01*
X40414Y139804D01*
X41387Y140207D01*
X42223Y140848D01*
X42864Y141683D01*
X43034Y142095D01*
X43576D01*
X43746Y141683D01*
X44387Y140848D01*
X45223Y140207D01*
X46196Y139804D01*
X46740Y139732D01*
Y143701D01*
Y147669D01*
X46196Y147598D01*
X45223Y147195D01*
X44387Y146554D01*
X43746Y145718D01*
X43576Y145307D01*
X43034D01*
X42864Y145718D01*
X42223Y146554D01*
X41387Y147195D01*
X40414Y147598D01*
X39370Y147735D01*
D02*
G37*
G36*
X177740Y147669D02*
Y144201D01*
X181209D01*
X181137Y144745D01*
X180734Y145718D01*
X180093Y146554D01*
X179257Y147195D01*
X178284Y147598D01*
X177740Y147669D01*
D02*
G37*
G36*
X134240D02*
Y144201D01*
X137709D01*
X137637Y144745D01*
X137234Y145718D01*
X136593Y146554D01*
X135757Y147195D01*
X134784Y147598D01*
X134240Y147669D01*
D02*
G37*
G36*
X91240D02*
Y144201D01*
X94709D01*
X94637Y144745D01*
X94234Y145718D01*
X93593Y146554D01*
X92757Y147195D01*
X91784Y147598D01*
X91240Y147669D01*
D02*
G37*
G36*
X47740D02*
Y144201D01*
X51209D01*
X51137Y144745D01*
X50734Y145718D01*
X50093Y146554D01*
X49257Y147195D01*
X48284Y147598D01*
X47740Y147669D01*
D02*
G37*
G36*
X181209Y143201D02*
X177740D01*
Y139732D01*
X178284Y139804D01*
X179257Y140207D01*
X180093Y140848D01*
X180734Y141683D01*
X181137Y142657D01*
X181209Y143201D01*
D02*
G37*
G36*
X137709D02*
X134240D01*
Y139732D01*
X134784Y139804D01*
X135757Y140207D01*
X136593Y140848D01*
X137234Y141683D01*
X137637Y142657D01*
X137709Y143201D01*
D02*
G37*
G36*
X94709D02*
X91240D01*
Y139732D01*
X91784Y139804D01*
X92757Y140207D01*
X93593Y140848D01*
X94234Y141683D01*
X94637Y142657D01*
X94709Y143201D01*
D02*
G37*
G36*
X51209D02*
X47740D01*
Y139732D01*
X48284Y139804D01*
X49257Y140207D01*
X50093Y140848D01*
X50734Y141683D01*
X51137Y142657D01*
X51209Y143201D01*
D02*
G37*
G36*
X199500Y147491D02*
X197883Y147331D01*
X196328Y146860D01*
X194895Y146094D01*
X193638Y145063D01*
X192607Y143806D01*
X191841Y142373D01*
X191369Y140818D01*
X191210Y139201D01*
X191369Y137583D01*
X191841Y136028D01*
X192607Y134595D01*
X193638Y133339D01*
X194895Y132308D01*
X196328Y131542D01*
X197883Y131070D01*
X199500Y130911D01*
X201117Y131070D01*
X202673Y131542D01*
X204106Y132308D01*
X205362Y133339D01*
X206393Y134595D01*
X207159Y136028D01*
X207631Y137583D01*
X207790Y139201D01*
X207631Y140818D01*
X207159Y142373D01*
X206393Y143806D01*
X205362Y145063D01*
X204106Y146094D01*
X202673Y146860D01*
X201117Y147331D01*
X199500Y147491D01*
D02*
G37*
G36*
X193453Y113252D02*
Y109831D01*
X196874D01*
X196804Y110363D01*
X196405Y111324D01*
X195772Y112150D01*
X194946Y112784D01*
X193985Y113182D01*
X193453Y113252D01*
D02*
G37*
G36*
X192453D02*
X191921Y113182D01*
X190959Y112784D01*
X190134Y112150D01*
X189500Y111324D01*
X189102Y110363D01*
X189032Y109831D01*
X192453D01*
Y113252D01*
D02*
G37*
G36*
X173453D02*
Y109831D01*
X176874D01*
X176804Y110363D01*
X176406Y111324D01*
X175772Y112150D01*
X174946Y112784D01*
X173985Y113182D01*
X173453Y113252D01*
D02*
G37*
G36*
X172453D02*
X171921Y113182D01*
X170959Y112784D01*
X170134Y112150D01*
X169500Y111324D01*
X169102Y110363D01*
X169032Y109831D01*
X172453D01*
Y113252D01*
D02*
G37*
G36*
X123453D02*
Y109831D01*
X126874D01*
X126804Y110363D01*
X126406Y111324D01*
X125772Y112150D01*
X124946Y112784D01*
X123985Y113182D01*
X123453Y113252D01*
D02*
G37*
G36*
X122453D02*
X121921Y113182D01*
X120959Y112784D01*
X120134Y112150D01*
X119500Y111324D01*
X119102Y110363D01*
X119032Y109831D01*
X122453D01*
Y113252D01*
D02*
G37*
G36*
X93453D02*
Y109831D01*
X96874D01*
X96804Y110363D01*
X96406Y111324D01*
X95772Y112150D01*
X94946Y112784D01*
X93985Y113182D01*
X93453Y113252D01*
D02*
G37*
G36*
X92453D02*
X91921Y113182D01*
X90959Y112784D01*
X90134Y112150D01*
X89500Y111324D01*
X89102Y110363D01*
X89032Y109831D01*
X92453D01*
Y113252D01*
D02*
G37*
G36*
X53453D02*
Y109831D01*
X56874D01*
X56804Y110363D01*
X56406Y111324D01*
X55772Y112150D01*
X54946Y112784D01*
X53985Y113182D01*
X53453Y113252D01*
D02*
G37*
G36*
X52453D02*
X51921Y113182D01*
X50959Y112784D01*
X50134Y112150D01*
X49500Y111324D01*
X49102Y110363D01*
X49032Y109831D01*
X52453D01*
Y113252D01*
D02*
G37*
G36*
X196874Y108831D02*
X193453D01*
Y105410D01*
X193985Y105480D01*
X194946Y105878D01*
X195772Y106512D01*
X196405Y107337D01*
X196804Y108299D01*
X196874Y108831D01*
D02*
G37*
G36*
X192453D02*
X189032D01*
X189102Y108299D01*
X189500Y107337D01*
X190134Y106512D01*
X190959Y105878D01*
X191921Y105480D01*
X192453Y105410D01*
Y108831D01*
D02*
G37*
G36*
X176874D02*
X173453D01*
Y105410D01*
X173985Y105480D01*
X174946Y105878D01*
X175772Y106512D01*
X176406Y107337D01*
X176804Y108299D01*
X176874Y108831D01*
D02*
G37*
G36*
X172453D02*
X169032D01*
X169102Y108299D01*
X169500Y107337D01*
X170134Y106512D01*
X170959Y105878D01*
X171921Y105480D01*
X172453Y105410D01*
Y108831D01*
D02*
G37*
G36*
X126874D02*
X123453D01*
Y105410D01*
X123985Y105480D01*
X124946Y105878D01*
X125772Y106512D01*
X126406Y107337D01*
X126804Y108299D01*
X126874Y108831D01*
D02*
G37*
G36*
X122453D02*
X119032D01*
X119102Y108299D01*
X119500Y107337D01*
X120134Y106512D01*
X120959Y105878D01*
X121921Y105480D01*
X122453Y105410D01*
Y108831D01*
D02*
G37*
G36*
X96874D02*
X93453D01*
Y105410D01*
X93985Y105480D01*
X94946Y105878D01*
X95772Y106512D01*
X96406Y107337D01*
X96804Y108299D01*
X96874Y108831D01*
D02*
G37*
G36*
X92453D02*
X89032D01*
X89102Y108299D01*
X89500Y107337D01*
X90134Y106512D01*
X90959Y105878D01*
X91921Y105480D01*
X92453Y105410D01*
Y108831D01*
D02*
G37*
G36*
X56874D02*
X53453D01*
Y105410D01*
X53985Y105480D01*
X54946Y105878D01*
X55772Y106512D01*
X56406Y107337D01*
X56804Y108299D01*
X56874Y108831D01*
D02*
G37*
G36*
X52453D02*
X49032D01*
X49102Y108299D01*
X49500Y107337D01*
X50134Y106512D01*
X50959Y105878D01*
X51921Y105480D01*
X52453Y105410D01*
Y108831D01*
D02*
G37*
G36*
X222953Y113318D02*
X221921Y113182D01*
X220959Y112784D01*
X220134Y112150D01*
X219500Y111324D01*
X219102Y110363D01*
X218966Y109331D01*
X219102Y108299D01*
X219500Y107337D01*
X220134Y106512D01*
X220959Y105878D01*
X221921Y105480D01*
X222953Y105344D01*
X223985Y105480D01*
X224946Y105878D01*
X225772Y106512D01*
X226406Y107337D01*
X226804Y108299D01*
X226940Y109331D01*
X226804Y110363D01*
X226406Y111324D01*
X225772Y112150D01*
X224946Y112784D01*
X223985Y113182D01*
X222953Y113318D01*
D02*
G37*
G36*
X212953D02*
X211921Y113182D01*
X210959Y112784D01*
X210134Y112150D01*
X209500Y111324D01*
X209102Y110363D01*
X208966Y109331D01*
X209102Y108299D01*
X209500Y107337D01*
X210134Y106512D01*
X210959Y105878D01*
X211921Y105480D01*
X212953Y105344D01*
X213985Y105480D01*
X214946Y105878D01*
X215772Y106512D01*
X216406Y107337D01*
X216804Y108299D01*
X216940Y109331D01*
X216804Y110363D01*
X216406Y111324D01*
X215772Y112150D01*
X214946Y112784D01*
X213985Y113182D01*
X212953Y113318D01*
D02*
G37*
G36*
X202953D02*
X201921Y113182D01*
X200959Y112784D01*
X200134Y112150D01*
X199500Y111324D01*
X199102Y110363D01*
X198966Y109331D01*
X199102Y108299D01*
X199500Y107337D01*
X200134Y106512D01*
X200959Y105878D01*
X201921Y105480D01*
X202953Y105344D01*
X203985Y105480D01*
X204946Y105878D01*
X205772Y106512D01*
X206405Y107337D01*
X206804Y108299D01*
X206940Y109331D01*
X206804Y110363D01*
X206405Y111324D01*
X205772Y112150D01*
X204946Y112784D01*
X203985Y113182D01*
X202953Y113318D01*
D02*
G37*
G36*
X182953D02*
X181921Y113182D01*
X180959Y112784D01*
X180134Y112150D01*
X179500Y111324D01*
X179102Y110363D01*
X178966Y109331D01*
X179102Y108299D01*
X179500Y107337D01*
X180134Y106512D01*
X180959Y105878D01*
X181921Y105480D01*
X182953Y105344D01*
X183985Y105480D01*
X184946Y105878D01*
X185772Y106512D01*
X186406Y107337D01*
X186804Y108299D01*
X186940Y109331D01*
X186804Y110363D01*
X186406Y111324D01*
X185772Y112150D01*
X184946Y112784D01*
X183985Y113182D01*
X182953Y113318D01*
D02*
G37*
G36*
X162953D02*
X161921Y113182D01*
X160959Y112784D01*
X160134Y112150D01*
X159500Y111324D01*
X159102Y110363D01*
X158966Y109331D01*
X159102Y108299D01*
X159500Y107337D01*
X160134Y106512D01*
X160959Y105878D01*
X161921Y105480D01*
X162953Y105344D01*
X163985Y105480D01*
X164946Y105878D01*
X165772Y106512D01*
X166405Y107337D01*
X166804Y108299D01*
X166940Y109331D01*
X166804Y110363D01*
X166405Y111324D01*
X165772Y112150D01*
X164946Y112784D01*
X163985Y113182D01*
X162953Y113318D01*
D02*
G37*
G36*
X152953D02*
X151921Y113182D01*
X150959Y112784D01*
X150134Y112150D01*
X149500Y111324D01*
X149102Y110363D01*
X148966Y109331D01*
X149102Y108299D01*
X149500Y107337D01*
X150134Y106512D01*
X150959Y105878D01*
X151921Y105480D01*
X152953Y105344D01*
X153985Y105480D01*
X154946Y105878D01*
X155772Y106512D01*
X156405Y107337D01*
X156804Y108299D01*
X156940Y109331D01*
X156804Y110363D01*
X156405Y111324D01*
X155772Y112150D01*
X154946Y112784D01*
X153985Y113182D01*
X152953Y113318D01*
D02*
G37*
G36*
X142953D02*
X141921Y113182D01*
X140959Y112784D01*
X140134Y112150D01*
X139500Y111324D01*
X139102Y110363D01*
X138966Y109331D01*
X139102Y108299D01*
X139500Y107337D01*
X140134Y106512D01*
X140959Y105878D01*
X141921Y105480D01*
X142953Y105344D01*
X143985Y105480D01*
X144946Y105878D01*
X145772Y106512D01*
X146405Y107337D01*
X146804Y108299D01*
X146940Y109331D01*
X146804Y110363D01*
X146405Y111324D01*
X145772Y112150D01*
X144946Y112784D01*
X143985Y113182D01*
X142953Y113318D01*
D02*
G37*
G36*
X132953D02*
X131921Y113182D01*
X130959Y112784D01*
X130134Y112150D01*
X129500Y111324D01*
X129102Y110363D01*
X128966Y109331D01*
X129102Y108299D01*
X129500Y107337D01*
X130134Y106512D01*
X130959Y105878D01*
X131921Y105480D01*
X132953Y105344D01*
X133985Y105480D01*
X134946Y105878D01*
X135772Y106512D01*
X136406Y107337D01*
X136804Y108299D01*
X136940Y109331D01*
X136804Y110363D01*
X136406Y111324D01*
X135772Y112150D01*
X134946Y112784D01*
X133985Y113182D01*
X132953Y113318D01*
D02*
G37*
G36*
X112953D02*
X111921Y113182D01*
X110959Y112784D01*
X110134Y112150D01*
X109500Y111324D01*
X109102Y110363D01*
X108966Y109331D01*
X109102Y108299D01*
X109500Y107337D01*
X110134Y106512D01*
X110959Y105878D01*
X111921Y105480D01*
X112953Y105344D01*
X113985Y105480D01*
X114946Y105878D01*
X115772Y106512D01*
X116405Y107337D01*
X116804Y108299D01*
X116940Y109331D01*
X116804Y110363D01*
X116405Y111324D01*
X115772Y112150D01*
X114946Y112784D01*
X113985Y113182D01*
X112953Y113318D01*
D02*
G37*
G36*
X102953D02*
X101921Y113182D01*
X100959Y112784D01*
X100134Y112150D01*
X99500Y111324D01*
X99102Y110363D01*
X98966Y109331D01*
X99102Y108299D01*
X99500Y107337D01*
X100134Y106512D01*
X100959Y105878D01*
X101921Y105480D01*
X102953Y105344D01*
X103985Y105480D01*
X104946Y105878D01*
X105772Y106512D01*
X106405Y107337D01*
X106804Y108299D01*
X106940Y109331D01*
X106804Y110363D01*
X106405Y111324D01*
X105772Y112150D01*
X104946Y112784D01*
X103985Y113182D01*
X102953Y113318D01*
D02*
G37*
G36*
X82953D02*
X81921Y113182D01*
X80959Y112784D01*
X80134Y112150D01*
X79500Y111324D01*
X79102Y110363D01*
X78966Y109331D01*
X79102Y108299D01*
X79500Y107337D01*
X80134Y106512D01*
X80959Y105878D01*
X81921Y105480D01*
X82953Y105344D01*
X83985Y105480D01*
X84946Y105878D01*
X85772Y106512D01*
X86405Y107337D01*
X86804Y108299D01*
X86940Y109331D01*
X86804Y110363D01*
X86405Y111324D01*
X85772Y112150D01*
X84946Y112784D01*
X83985Y113182D01*
X82953Y113318D01*
D02*
G37*
G36*
X72953D02*
X71921Y113182D01*
X70959Y112784D01*
X70134Y112150D01*
X69500Y111324D01*
X69102Y110363D01*
X68966Y109331D01*
X69102Y108299D01*
X69500Y107337D01*
X70134Y106512D01*
X70959Y105878D01*
X71921Y105480D01*
X72953Y105344D01*
X73985Y105480D01*
X74946Y105878D01*
X75772Y106512D01*
X76406Y107337D01*
X76804Y108299D01*
X76940Y109331D01*
X76804Y110363D01*
X76406Y111324D01*
X75772Y112150D01*
X74946Y112784D01*
X73985Y113182D01*
X72953Y113318D01*
D02*
G37*
G36*
X62953D02*
X61921Y113182D01*
X60959Y112784D01*
X60134Y112150D01*
X59500Y111324D01*
X59102Y110363D01*
X58966Y109331D01*
X59102Y108299D01*
X59500Y107337D01*
X60134Y106512D01*
X60959Y105878D01*
X61921Y105480D01*
X62953Y105344D01*
X63985Y105480D01*
X64946Y105878D01*
X65772Y106512D01*
X66405Y107337D01*
X66804Y108299D01*
X66940Y109331D01*
X66804Y110363D01*
X66405Y111324D01*
X65772Y112150D01*
X64946Y112784D01*
X63985Y113182D01*
X62953Y113318D01*
D02*
G37*
G36*
X42953D02*
X41921Y113182D01*
X40959Y112784D01*
X40134Y112150D01*
X39500Y111324D01*
X39102Y110363D01*
X38966Y109331D01*
X39102Y108299D01*
X39500Y107337D01*
X40134Y106512D01*
X40959Y105878D01*
X41921Y105480D01*
X42953Y105344D01*
X43985Y105480D01*
X44946Y105878D01*
X45772Y106512D01*
X46406Y107337D01*
X46804Y108299D01*
X46940Y109331D01*
X46804Y110363D01*
X46406Y111324D01*
X45772Y112150D01*
X44946Y112784D01*
X43985Y113182D01*
X42953Y113318D01*
D02*
G37*
G36*
X32953D02*
X31921Y113182D01*
X30959Y112784D01*
X30134Y112150D01*
X29500Y111324D01*
X29102Y110363D01*
X28966Y109331D01*
X29102Y108299D01*
X29500Y107337D01*
X30134Y106512D01*
X30959Y105878D01*
X31921Y105480D01*
X32953Y105344D01*
X33985Y105480D01*
X34946Y105878D01*
X35772Y106512D01*
X36406Y107337D01*
X36804Y108299D01*
X36940Y109331D01*
X36804Y110363D01*
X36406Y111324D01*
X35772Y112150D01*
X34946Y112784D01*
X33985Y113182D01*
X32953Y113318D01*
D02*
G37*
G36*
X223453Y103252D02*
Y99831D01*
X226874D01*
X226804Y100363D01*
X226406Y101324D01*
X225772Y102150D01*
X224946Y102784D01*
X223985Y103182D01*
X223453Y103252D01*
D02*
G37*
G36*
X222453D02*
X221921Y103182D01*
X220959Y102784D01*
X220134Y102150D01*
X219500Y101324D01*
X219102Y100363D01*
X219032Y99831D01*
X222453D01*
Y103252D01*
D02*
G37*
G36*
X153453D02*
Y99831D01*
X156874D01*
X156804Y100363D01*
X156405Y101324D01*
X155772Y102150D01*
X154946Y102784D01*
X153985Y103182D01*
X153453Y103252D01*
D02*
G37*
G36*
X152453D02*
X151921Y103182D01*
X150959Y102784D01*
X150134Y102150D01*
X149500Y101324D01*
X149102Y100363D01*
X149032Y99831D01*
X152453D01*
Y103252D01*
D02*
G37*
G36*
X73453D02*
Y99831D01*
X76874D01*
X76804Y100363D01*
X76406Y101324D01*
X75772Y102150D01*
X74946Y102784D01*
X73985Y103182D01*
X73453Y103252D01*
D02*
G37*
G36*
X72453D02*
X71921Y103182D01*
X70959Y102784D01*
X70134Y102150D01*
X69500Y101324D01*
X69102Y100363D01*
X69032Y99831D01*
X72453D01*
Y103252D01*
D02*
G37*
G36*
X226874Y98831D02*
X223453D01*
Y95410D01*
X223985Y95480D01*
X224946Y95878D01*
X225772Y96512D01*
X226406Y97337D01*
X226804Y98299D01*
X226874Y98831D01*
D02*
G37*
G36*
X222453D02*
X219032D01*
X219102Y98299D01*
X219500Y97337D01*
X220134Y96512D01*
X220959Y95878D01*
X221921Y95480D01*
X222453Y95410D01*
Y98831D01*
D02*
G37*
G36*
X156874D02*
X153453D01*
Y95410D01*
X153985Y95480D01*
X154946Y95878D01*
X155772Y96512D01*
X156405Y97337D01*
X156804Y98299D01*
X156874Y98831D01*
D02*
G37*
G36*
X152453D02*
X149032D01*
X149102Y98299D01*
X149500Y97337D01*
X150134Y96512D01*
X150959Y95878D01*
X151921Y95480D01*
X152453Y95410D01*
Y98831D01*
D02*
G37*
G36*
X76874D02*
X73453D01*
Y95410D01*
X73985Y95480D01*
X74946Y95878D01*
X75772Y96512D01*
X76406Y97337D01*
X76804Y98299D01*
X76874Y98831D01*
D02*
G37*
G36*
X72453D02*
X69032D01*
X69102Y98299D01*
X69500Y97337D01*
X70134Y96512D01*
X70959Y95878D01*
X71921Y95480D01*
X72453Y95410D01*
Y98831D01*
D02*
G37*
G36*
X35906Y103303D02*
X30000D01*
X29610Y103226D01*
X29279Y103005D01*
X29058Y102674D01*
X28980Y102284D01*
Y96378D01*
X29058Y95988D01*
X29279Y95657D01*
X29610Y95436D01*
X30000Y95359D01*
X35906D01*
X36296Y95436D01*
X36626Y95657D01*
X36847Y95988D01*
X36925Y96378D01*
Y102284D01*
X36847Y102674D01*
X36626Y103005D01*
X36296Y103226D01*
X35906Y103303D01*
D02*
G37*
G36*
X212953Y103318D02*
X211921Y103182D01*
X210959Y102784D01*
X210134Y102150D01*
X209500Y101324D01*
X209102Y100363D01*
X208966Y99331D01*
X209102Y98299D01*
X209500Y97337D01*
X210134Y96512D01*
X210959Y95878D01*
X211921Y95480D01*
X212953Y95344D01*
X213985Y95480D01*
X214946Y95878D01*
X215772Y96512D01*
X216406Y97337D01*
X216804Y98299D01*
X216940Y99331D01*
X216804Y100363D01*
X216406Y101324D01*
X215772Y102150D01*
X214946Y102784D01*
X213985Y103182D01*
X212953Y103318D01*
D02*
G37*
G36*
X202953D02*
X201921Y103182D01*
X200959Y102784D01*
X200134Y102150D01*
X199500Y101324D01*
X199102Y100363D01*
X198966Y99331D01*
X199102Y98299D01*
X199500Y97337D01*
X200134Y96512D01*
X200959Y95878D01*
X201921Y95480D01*
X202953Y95344D01*
X203985Y95480D01*
X204946Y95878D01*
X205772Y96512D01*
X206405Y97337D01*
X206804Y98299D01*
X206940Y99331D01*
X206804Y100363D01*
X206405Y101324D01*
X205772Y102150D01*
X204946Y102784D01*
X203985Y103182D01*
X202953Y103318D01*
D02*
G37*
G36*
X192953D02*
X191921Y103182D01*
X190959Y102784D01*
X190134Y102150D01*
X189500Y101324D01*
X189102Y100363D01*
X188966Y99331D01*
X189102Y98299D01*
X189500Y97337D01*
X190134Y96512D01*
X190959Y95878D01*
X191921Y95480D01*
X192953Y95344D01*
X193985Y95480D01*
X194946Y95878D01*
X195772Y96512D01*
X196405Y97337D01*
X196804Y98299D01*
X196940Y99331D01*
X196804Y100363D01*
X196405Y101324D01*
X195772Y102150D01*
X194946Y102784D01*
X193985Y103182D01*
X192953Y103318D01*
D02*
G37*
G36*
X182953D02*
X181921Y103182D01*
X180959Y102784D01*
X180134Y102150D01*
X179500Y101324D01*
X179102Y100363D01*
X178966Y99331D01*
X179102Y98299D01*
X179500Y97337D01*
X180134Y96512D01*
X180959Y95878D01*
X181921Y95480D01*
X182953Y95344D01*
X183985Y95480D01*
X184946Y95878D01*
X185772Y96512D01*
X186406Y97337D01*
X186804Y98299D01*
X186940Y99331D01*
X186804Y100363D01*
X186406Y101324D01*
X185772Y102150D01*
X184946Y102784D01*
X183985Y103182D01*
X182953Y103318D01*
D02*
G37*
G36*
X172953D02*
X171921Y103182D01*
X170959Y102784D01*
X170134Y102150D01*
X169500Y101324D01*
X169102Y100363D01*
X168966Y99331D01*
X169102Y98299D01*
X169500Y97337D01*
X170134Y96512D01*
X170959Y95878D01*
X171921Y95480D01*
X172953Y95344D01*
X173985Y95480D01*
X174946Y95878D01*
X175772Y96512D01*
X176406Y97337D01*
X176804Y98299D01*
X176940Y99331D01*
X176804Y100363D01*
X176406Y101324D01*
X175772Y102150D01*
X174946Y102784D01*
X173985Y103182D01*
X172953Y103318D01*
D02*
G37*
G36*
X162953D02*
X161921Y103182D01*
X160959Y102784D01*
X160134Y102150D01*
X159500Y101324D01*
X159102Y100363D01*
X158966Y99331D01*
X159102Y98299D01*
X159500Y97337D01*
X160134Y96512D01*
X160959Y95878D01*
X161921Y95480D01*
X162953Y95344D01*
X163985Y95480D01*
X164946Y95878D01*
X165772Y96512D01*
X166405Y97337D01*
X166804Y98299D01*
X166940Y99331D01*
X166804Y100363D01*
X166405Y101324D01*
X165772Y102150D01*
X164946Y102784D01*
X163985Y103182D01*
X162953Y103318D01*
D02*
G37*
G36*
X142953D02*
X141921Y103182D01*
X140959Y102784D01*
X140134Y102150D01*
X139500Y101324D01*
X139102Y100363D01*
X138966Y99331D01*
X139102Y98299D01*
X139500Y97337D01*
X140134Y96512D01*
X140959Y95878D01*
X141921Y95480D01*
X142953Y95344D01*
X143985Y95480D01*
X144946Y95878D01*
X145772Y96512D01*
X146405Y97337D01*
X146804Y98299D01*
X146940Y99331D01*
X146804Y100363D01*
X146405Y101324D01*
X145772Y102150D01*
X144946Y102784D01*
X143985Y103182D01*
X142953Y103318D01*
D02*
G37*
G36*
X132953D02*
X131921Y103182D01*
X130959Y102784D01*
X130134Y102150D01*
X129500Y101324D01*
X129102Y100363D01*
X128966Y99331D01*
X129102Y98299D01*
X129500Y97337D01*
X130134Y96512D01*
X130959Y95878D01*
X131921Y95480D01*
X132953Y95344D01*
X133985Y95480D01*
X134946Y95878D01*
X135772Y96512D01*
X136406Y97337D01*
X136804Y98299D01*
X136940Y99331D01*
X136804Y100363D01*
X136406Y101324D01*
X135772Y102150D01*
X134946Y102784D01*
X133985Y103182D01*
X132953Y103318D01*
D02*
G37*
G36*
X122953D02*
X121921Y103182D01*
X120959Y102784D01*
X120134Y102150D01*
X119500Y101324D01*
X119102Y100363D01*
X118966Y99331D01*
X119102Y98299D01*
X119500Y97337D01*
X120134Y96512D01*
X120959Y95878D01*
X121921Y95480D01*
X122953Y95344D01*
X123985Y95480D01*
X124946Y95878D01*
X125772Y96512D01*
X126406Y97337D01*
X126804Y98299D01*
X126940Y99331D01*
X126804Y100363D01*
X126406Y101324D01*
X125772Y102150D01*
X124946Y102784D01*
X123985Y103182D01*
X122953Y103318D01*
D02*
G37*
G36*
X112953D02*
X111921Y103182D01*
X110959Y102784D01*
X110134Y102150D01*
X109500Y101324D01*
X109102Y100363D01*
X108966Y99331D01*
X109102Y98299D01*
X109500Y97337D01*
X110134Y96512D01*
X110959Y95878D01*
X111921Y95480D01*
X112953Y95344D01*
X113985Y95480D01*
X114946Y95878D01*
X115772Y96512D01*
X116405Y97337D01*
X116804Y98299D01*
X116940Y99331D01*
X116804Y100363D01*
X116405Y101324D01*
X115772Y102150D01*
X114946Y102784D01*
X113985Y103182D01*
X112953Y103318D01*
D02*
G37*
G36*
X102953D02*
X101921Y103182D01*
X100959Y102784D01*
X100134Y102150D01*
X99500Y101324D01*
X99102Y100363D01*
X98966Y99331D01*
X99102Y98299D01*
X99500Y97337D01*
X100134Y96512D01*
X100959Y95878D01*
X101921Y95480D01*
X102953Y95344D01*
X103985Y95480D01*
X104946Y95878D01*
X105772Y96512D01*
X106405Y97337D01*
X106804Y98299D01*
X106940Y99331D01*
X106804Y100363D01*
X106405Y101324D01*
X105772Y102150D01*
X104946Y102784D01*
X103985Y103182D01*
X102953Y103318D01*
D02*
G37*
G36*
X92953D02*
X91921Y103182D01*
X90959Y102784D01*
X90134Y102150D01*
X89500Y101324D01*
X89102Y100363D01*
X88966Y99331D01*
X89102Y98299D01*
X89500Y97337D01*
X90134Y96512D01*
X90959Y95878D01*
X91921Y95480D01*
X92953Y95344D01*
X93985Y95480D01*
X94946Y95878D01*
X95772Y96512D01*
X96406Y97337D01*
X96804Y98299D01*
X96940Y99331D01*
X96804Y100363D01*
X96406Y101324D01*
X95772Y102150D01*
X94946Y102784D01*
X93985Y103182D01*
X92953Y103318D01*
D02*
G37*
G36*
X82953D02*
X81921Y103182D01*
X80959Y102784D01*
X80134Y102150D01*
X79500Y101324D01*
X79102Y100363D01*
X78966Y99331D01*
X79102Y98299D01*
X79500Y97337D01*
X80134Y96512D01*
X80959Y95878D01*
X81921Y95480D01*
X82953Y95344D01*
X83985Y95480D01*
X84946Y95878D01*
X85772Y96512D01*
X86405Y97337D01*
X86804Y98299D01*
X86940Y99331D01*
X86804Y100363D01*
X86405Y101324D01*
X85772Y102150D01*
X84946Y102784D01*
X83985Y103182D01*
X82953Y103318D01*
D02*
G37*
G36*
X62953D02*
X61921Y103182D01*
X60959Y102784D01*
X60134Y102150D01*
X59500Y101324D01*
X59102Y100363D01*
X58966Y99331D01*
X59102Y98299D01*
X59500Y97337D01*
X60134Y96512D01*
X60959Y95878D01*
X61921Y95480D01*
X62953Y95344D01*
X63985Y95480D01*
X64946Y95878D01*
X65772Y96512D01*
X66405Y97337D01*
X66804Y98299D01*
X66940Y99331D01*
X66804Y100363D01*
X66405Y101324D01*
X65772Y102150D01*
X64946Y102784D01*
X63985Y103182D01*
X62953Y103318D01*
D02*
G37*
G36*
X236720Y65187D02*
Y63492D01*
X238415D01*
X238340Y63870D01*
X237843Y64614D01*
X237098Y65112D01*
X236720Y65187D01*
D02*
G37*
G36*
X235720D02*
X235343Y65112D01*
X234598Y64614D01*
X234101Y63870D01*
X234026Y63492D01*
X235720D01*
Y65187D01*
D02*
G37*
G36*
X124516Y63218D02*
Y61524D01*
X126210D01*
X126135Y61901D01*
X125638Y62646D01*
X124894Y63143D01*
X124516Y63218D01*
D02*
G37*
G36*
X123516D02*
X123138Y63143D01*
X122394Y62646D01*
X121896Y61901D01*
X121821Y61524D01*
X123516D01*
Y63218D01*
D02*
G37*
G36*
X238415Y62492D02*
X236720D01*
Y60798D01*
X237098Y60873D01*
X237843Y61370D01*
X238340Y62114D01*
X238415Y62492D01*
D02*
G37*
G36*
X235720D02*
X234026D01*
X234101Y62114D01*
X234598Y61370D01*
X235343Y60873D01*
X235720Y60798D01*
Y62492D01*
D02*
G37*
G36*
X12311Y61250D02*
Y59555D01*
X14006D01*
X13930Y59933D01*
X13433Y60677D01*
X12689Y61175D01*
X12311Y61250D01*
D02*
G37*
G36*
X11311D02*
X10933Y61175D01*
X10189Y60677D01*
X9692Y59933D01*
X9616Y59555D01*
X11311D01*
Y61250D01*
D02*
G37*
G36*
X126210Y60524D02*
X124516D01*
Y58829D01*
X124894Y58904D01*
X125638Y59402D01*
X126135Y60146D01*
X126210Y60524D01*
D02*
G37*
G36*
X123516D02*
X121821D01*
X121896Y60146D01*
X122394Y59402D01*
X123138Y58904D01*
X123516Y58829D01*
Y60524D01*
D02*
G37*
G36*
X14006Y58555D02*
X12311D01*
Y56861D01*
X12689Y56936D01*
X13433Y57433D01*
X13930Y58177D01*
X14006Y58555D01*
D02*
G37*
G36*
X11311D02*
X9616D01*
X9692Y58177D01*
X10189Y57433D01*
X10933Y56936D01*
X11311Y56861D01*
Y58555D01*
D02*
G37*
G36*
X12311Y45502D02*
Y43807D01*
X14006D01*
X13930Y44185D01*
X13433Y44929D01*
X12689Y45426D01*
X12311Y45502D01*
D02*
G37*
G36*
X11311D02*
X10933Y45426D01*
X10189Y44929D01*
X9692Y44185D01*
X9616Y43807D01*
X11311D01*
Y45502D01*
D02*
G37*
G36*
X14006Y42807D02*
X12311D01*
Y41113D01*
X12689Y41188D01*
X13433Y41685D01*
X13930Y42429D01*
X14006Y42807D01*
D02*
G37*
G36*
X11311D02*
X9616D01*
X9692Y42429D01*
X10189Y41685D01*
X10933Y41188D01*
X11311Y41113D01*
Y42807D01*
D02*
G37*
G36*
X52953Y103318D02*
X51921Y103182D01*
X50959Y102784D01*
X50134Y102150D01*
X49500Y101324D01*
X49102Y100363D01*
X48966Y99331D01*
X49102Y98299D01*
X49500Y97337D01*
X50134Y96512D01*
X50959Y95878D01*
X51921Y95480D01*
X52953Y95344D01*
X53985Y95480D01*
X54449Y95672D01*
X109864Y40257D01*
X110360Y39926D01*
X110945Y39809D01*
X112489D01*
X112551Y39716D01*
X112978Y39431D01*
X112827Y38931D01*
X105516D01*
X46612Y97835D01*
X46804Y98299D01*
X46940Y99331D01*
X46804Y100363D01*
X46406Y101324D01*
X45772Y102150D01*
X44946Y102784D01*
X43985Y103182D01*
X42953Y103318D01*
X41921Y103182D01*
X40959Y102784D01*
X40134Y102150D01*
X39500Y101324D01*
X39102Y100363D01*
X38966Y99331D01*
X39102Y98299D01*
X39500Y97337D01*
X40134Y96512D01*
X40959Y95878D01*
X41921Y95480D01*
X42953Y95344D01*
X43985Y95480D01*
X44449Y95672D01*
X103801Y36320D01*
X104297Y35989D01*
X104882Y35872D01*
X125984D01*
X126569Y35989D01*
X127066Y36320D01*
X129812Y39066D01*
X129921Y39044D01*
X130799Y39219D01*
X131543Y39716D01*
X132041Y40461D01*
X132215Y41339D01*
X132041Y42217D01*
X131543Y42961D01*
X130799Y43458D01*
X129921Y43633D01*
X129043Y43458D01*
X128299Y42961D01*
X127802Y42217D01*
X127627Y41339D01*
X127649Y41229D01*
X125351Y38931D01*
X115520D01*
X115368Y39431D01*
X115795Y39716D01*
X116293Y40461D01*
X116467Y41339D01*
X116293Y42217D01*
X115795Y42961D01*
X115051Y43458D01*
X114173Y43633D01*
X113295Y43458D01*
X112551Y42961D01*
X112489Y42868D01*
X111579D01*
X56612Y97835D01*
X56804Y98299D01*
X56940Y99331D01*
X56804Y100363D01*
X56406Y101324D01*
X55772Y102150D01*
X54946Y102784D01*
X53985Y103182D01*
X52953Y103318D01*
D02*
G37*
G36*
X67429Y37628D02*
Y35933D01*
X69124D01*
X69049Y36311D01*
X68551Y37055D01*
X67807Y37552D01*
X67429Y37628D01*
D02*
G37*
G36*
X66429D02*
X66051Y37552D01*
X65307Y37055D01*
X64810Y36311D01*
X64735Y35933D01*
X66429D01*
Y37628D01*
D02*
G37*
G36*
X169488Y45320D02*
X168327Y45206D01*
X167211Y44867D01*
X166183Y44317D01*
X165281Y43577D01*
X164541Y42676D01*
X163991Y41647D01*
X163653Y40531D01*
X163538Y39370D01*
X163653Y38209D01*
X163991Y37093D01*
X164541Y36064D01*
X165281Y35163D01*
X166183Y34423D01*
X167211Y33873D01*
X168327Y33535D01*
X169488Y33420D01*
X170649Y33535D01*
X171765Y33873D01*
X172794Y34423D01*
X173695Y35163D01*
X174435Y36064D01*
X174985Y37093D01*
X175324Y38209D01*
X175438Y39370D01*
X175324Y40531D01*
X174985Y41647D01*
X174435Y42676D01*
X173695Y43577D01*
X172794Y44317D01*
X171765Y44867D01*
X170649Y45206D01*
X169488Y45320D01*
D02*
G37*
G36*
X69124Y34933D02*
X67429D01*
Y33239D01*
X67807Y33314D01*
X68551Y33811D01*
X69049Y34555D01*
X69124Y34933D01*
D02*
G37*
G36*
X66429D02*
X64735D01*
X64810Y34555D01*
X65307Y33811D01*
X66051Y33314D01*
X66429Y33239D01*
Y34933D01*
D02*
G37*
G36*
X198819Y44820D02*
X197658Y44706D01*
X196542Y44367D01*
X195513Y43817D01*
X194612Y43077D01*
X193872Y42176D01*
X193322Y41147D01*
X192983Y40031D01*
X192869Y38870D01*
X192983Y37709D01*
X193322Y36593D01*
X193872Y35565D01*
X194612Y34663D01*
X195513Y33923D01*
X196542Y33373D01*
X197658Y33035D01*
X198819Y32920D01*
X199980Y33035D01*
X201096Y33373D01*
X202125Y33923D01*
X203026Y34663D01*
X203766Y35565D01*
X204316Y36593D01*
X204655Y37709D01*
X204769Y38870D01*
X204655Y40031D01*
X204316Y41147D01*
X203766Y42176D01*
X203026Y43077D01*
X202125Y43817D01*
X201096Y44367D01*
X199980Y44706D01*
X198819Y44820D01*
D02*
G37*
%LPD*%
D10*
X52953Y99331D02*
X110945Y41339D01*
X114173D01*
X42953Y99331D02*
X104882Y37402D01*
X125984D01*
X129921Y41339D01*
D39*
X198819Y38870D02*
D03*
X169488Y39370D02*
D03*
D40*
X32953Y99331D02*
D03*
D41*
Y109331D02*
D03*
X42953Y99331D02*
D03*
Y109331D02*
D03*
X52953Y99331D02*
D03*
Y109331D02*
D03*
X62953Y99331D02*
D03*
Y109331D02*
D03*
X72953Y99331D02*
D03*
Y109331D02*
D03*
X82953Y99331D02*
D03*
Y109331D02*
D03*
X92953Y99331D02*
D03*
Y109331D02*
D03*
X102953Y99331D02*
D03*
Y109331D02*
D03*
X112953Y99331D02*
D03*
Y109331D02*
D03*
X122953Y99331D02*
D03*
Y109331D02*
D03*
X132953Y99331D02*
D03*
Y109331D02*
D03*
X142953Y99331D02*
D03*
Y109331D02*
D03*
X152953Y99331D02*
D03*
Y109331D02*
D03*
X162953Y99331D02*
D03*
Y109331D02*
D03*
X172953Y99331D02*
D03*
Y109331D02*
D03*
X182953Y99331D02*
D03*
Y109331D02*
D03*
X192953Y99331D02*
D03*
Y109331D02*
D03*
X202953Y99331D02*
D03*
Y109331D02*
D03*
X212953Y99331D02*
D03*
Y109331D02*
D03*
X222953Y99331D02*
D03*
Y109331D02*
D03*
D42*
X230709Y169016D02*
D03*
D43*
X220709Y174016D02*
D03*
X230709Y179016D02*
D03*
X220709Y184016D02*
D03*
X230709Y189016D02*
D03*
X220709Y194016D02*
D03*
X230709Y199016D02*
D03*
X220709Y204016D02*
D03*
D44*
X267717Y218504D02*
D03*
Y154528D02*
D03*
D45*
X255709Y209016D02*
D03*
Y164016D02*
D03*
D46*
X199500Y139201D02*
D03*
X13500Y171201D02*
D03*
X199047Y202972D02*
D03*
X13047Y234972D02*
D03*
D47*
X161500Y143701D02*
D03*
X169370D02*
D03*
X177240D02*
D03*
X165500Y153701D02*
D03*
X173370D02*
D03*
X181240D02*
D03*
X118000Y143701D02*
D03*
X125870D02*
D03*
X133740D02*
D03*
X122000Y153701D02*
D03*
X129870D02*
D03*
X137740D02*
D03*
X75000Y143701D02*
D03*
X82870D02*
D03*
X90740D02*
D03*
X79000Y153701D02*
D03*
X86870D02*
D03*
X94740D02*
D03*
X51240D02*
D03*
X43370D02*
D03*
X35500D02*
D03*
X47240Y143701D02*
D03*
X39370D02*
D03*
X31500D02*
D03*
X181047Y230472D02*
D03*
X173177D02*
D03*
X165307D02*
D03*
X177047Y220472D02*
D03*
X169177D02*
D03*
X161307D02*
D03*
X117807D02*
D03*
X125677D02*
D03*
X133547D02*
D03*
X121807Y230472D02*
D03*
X129677D02*
D03*
X137547D02*
D03*
X74807Y220472D02*
D03*
X82677D02*
D03*
X90547D02*
D03*
X78807Y230472D02*
D03*
X86677D02*
D03*
X94547D02*
D03*
X31307Y220472D02*
D03*
X39177D02*
D03*
X47047D02*
D03*
X35307Y230472D02*
D03*
X43177D02*
D03*
X51047D02*
D03*
D48*
X13780Y104331D02*
D03*
X242126D02*
D03*
Y13780D02*
D03*
X13780D02*
D03*
X13780Y257874D02*
D03*
X242126D02*
D03*
D49*
X66929Y35433D02*
D03*
X11811Y43307D02*
D03*
Y59055D02*
D03*
X124016Y61024D02*
D03*
X129921Y41339D02*
D03*
X236221Y62992D02*
D03*
X114173Y41339D02*
D03*
M02*
