G04*
G04 #@! TF.GenerationSoftware,Altium Limited,Altium Designer,18.0.7 (293)*
G04*
G04 Layer_Color=16711935*
%FSLAX25Y25*%
%MOIN*%
G70*
G01*
G75*
%ADD10C,0.01000*%
D10*
X255906Y257874D02*
X255870Y258857D01*
X255765Y259835D01*
X255591Y260803D01*
X255347Y261756D01*
X255037Y262689D01*
X254660Y263598D01*
X254220Y264478D01*
X253718Y265324D01*
X253157Y266132D01*
X252540Y266898D01*
X251870Y267618D01*
X251150Y268288D01*
X250384Y268905D01*
X249576Y269466D01*
X248730Y269968D01*
X247850Y270408D01*
X246941Y270785D01*
X246008Y271095D01*
X245055Y271339D01*
X244087Y271513D01*
X243109Y271618D01*
X242126Y271654D01*
X13780D02*
X12797Y271618D01*
X11818Y271513D01*
X10851Y271339D01*
X9897Y271095D01*
X8964Y270785D01*
X8055Y270408D01*
X7176Y269968D01*
X6330Y269466D01*
X5522Y268905D01*
X4756Y268288D01*
X4036Y267618D01*
X3366Y266898D01*
X2748Y266132D01*
X2187Y265324D01*
X1685Y264478D01*
X1245Y263598D01*
X869Y262689D01*
X558Y261756D01*
X315Y260803D01*
X140Y259835D01*
X35Y258857D01*
X0Y257874D01*
Y13780D02*
X35Y12797D01*
X140Y11818D01*
X315Y10851D01*
X558Y9897D01*
X869Y8964D01*
X1245Y8055D01*
X1685Y7176D01*
X2187Y6330D01*
X2748Y5522D01*
X3366Y4756D01*
X4036Y4036D01*
X4756Y3366D01*
X5522Y2748D01*
X6330Y2187D01*
X7176Y1685D01*
X8055Y1245D01*
X8964Y869D01*
X9897Y558D01*
X10851Y315D01*
X11818Y140D01*
X12797Y35D01*
X13780Y0D01*
X242126D02*
X243109Y35D01*
X244087Y140D01*
X245055Y315D01*
X246008Y558D01*
X246941Y869D01*
X247850Y1245D01*
X248730Y1685D01*
X249576Y2187D01*
X250384Y2748D01*
X251150Y3366D01*
X251870Y4036D01*
X252540Y4756D01*
X253157Y5522D01*
X253718Y6330D01*
X254220Y7176D01*
X254660Y8055D01*
X255037Y8964D01*
X255347Y9897D01*
X255591Y10851D01*
X255765Y11818D01*
X255870Y12797D01*
X255906Y13780D01*
X277559Y148622D02*
Y224410D01*
X255906Y246063D02*
X277559Y224410D01*
X255906Y246063D02*
Y257874D01*
X13780Y271654D02*
X242126D01*
X0Y13780D02*
Y257874D01*
X13780Y0D02*
X242126D01*
X255906Y13780D02*
Y118110D01*
Y126969D01*
X268701Y139764D01*
X277559Y148622D01*
M02*
