G04*
G04 #@! TF.GenerationSoftware,Altium Limited,Altium Designer,18.0.7 (293)*
G04*
G04 Layer_Color=8388736*
%FSLAX25Y25*%
%MOIN*%
G70*
G01*
G75*
%ADD23R,0.18517X0.09855*%
%ADD24R,0.06312X0.05524*%
%ADD25R,0.06496X0.02756*%
%ADD26R,0.05131X0.06312*%
%ADD27R,0.08871X0.05721*%
%ADD28C,0.10642*%
%ADD29R,0.06706X0.06706*%
%ADD30C,0.06706*%
%ADD31R,0.05792X0.05792*%
%ADD32C,0.05792*%
%ADD33C,0.12198*%
%ADD34C,0.13595*%
%ADD35C,0.15300*%
%ADD36C,0.06800*%
%ADD37C,0.24422*%
%ADD38C,0.03300*%
D23*
X220472Y39370D02*
D03*
X145669D02*
D03*
D24*
X106299Y47835D02*
D03*
Y40748D02*
D03*
X122047Y47835D02*
D03*
Y40748D02*
D03*
D25*
X73032Y56713D02*
D03*
Y51713D02*
D03*
Y46713D02*
D03*
Y41713D02*
D03*
X94291Y56713D02*
D03*
Y51713D02*
D03*
Y46713D02*
D03*
Y41713D02*
D03*
D26*
X29937Y43307D02*
D03*
X24032D02*
D03*
X29937Y59055D02*
D03*
X24032D02*
D03*
X114075Y65059D02*
D03*
X108169D02*
D03*
D27*
X51181Y59055D02*
D03*
Y49213D02*
D03*
D28*
X198819Y38870D02*
D03*
X169488Y39370D02*
D03*
D29*
X32953Y99331D02*
D03*
D30*
Y109331D02*
D03*
X42953Y99331D02*
D03*
Y109331D02*
D03*
X52953Y99331D02*
D03*
Y109331D02*
D03*
X62953Y99331D02*
D03*
Y109331D02*
D03*
X72953Y99331D02*
D03*
Y109331D02*
D03*
X82953Y99331D02*
D03*
Y109331D02*
D03*
X92953Y99331D02*
D03*
Y109331D02*
D03*
X102953Y99331D02*
D03*
Y109331D02*
D03*
X112953Y99331D02*
D03*
Y109331D02*
D03*
X122953Y99331D02*
D03*
Y109331D02*
D03*
X132953Y99331D02*
D03*
Y109331D02*
D03*
X142953Y99331D02*
D03*
Y109331D02*
D03*
X152953Y99331D02*
D03*
Y109331D02*
D03*
X162953Y99331D02*
D03*
Y109331D02*
D03*
X172953Y99331D02*
D03*
Y109331D02*
D03*
X182953Y99331D02*
D03*
Y109331D02*
D03*
X192953Y99331D02*
D03*
Y109331D02*
D03*
X202953Y99331D02*
D03*
Y109331D02*
D03*
X212953Y99331D02*
D03*
Y109331D02*
D03*
X222953Y99331D02*
D03*
Y109331D02*
D03*
D31*
X230709Y169016D02*
D03*
D32*
X220709Y174016D02*
D03*
X230709Y179016D02*
D03*
X220709Y184016D02*
D03*
X230709Y189016D02*
D03*
X220709Y194016D02*
D03*
X230709Y199016D02*
D03*
X220709Y204016D02*
D03*
D33*
X267717Y218504D02*
D03*
Y154528D02*
D03*
D34*
X255709Y209016D02*
D03*
Y164016D02*
D03*
D35*
X199500Y139201D02*
D03*
X13500Y171201D02*
D03*
X199047Y202972D02*
D03*
X13047Y234972D02*
D03*
D36*
X161500Y143701D02*
D03*
X169370D02*
D03*
X177240D02*
D03*
X165500Y153701D02*
D03*
X173370D02*
D03*
X181240D02*
D03*
X118000Y143701D02*
D03*
X125870D02*
D03*
X133740D02*
D03*
X122000Y153701D02*
D03*
X129870D02*
D03*
X137740D02*
D03*
X75000Y143701D02*
D03*
X82870D02*
D03*
X90740D02*
D03*
X79000Y153701D02*
D03*
X86870D02*
D03*
X94740D02*
D03*
X51240D02*
D03*
X43370D02*
D03*
X35500D02*
D03*
X47240Y143701D02*
D03*
X39370D02*
D03*
X31500D02*
D03*
X181047Y230472D02*
D03*
X173177D02*
D03*
X165307D02*
D03*
X177047Y220472D02*
D03*
X169177D02*
D03*
X161307D02*
D03*
X117807D02*
D03*
X125677D02*
D03*
X133547D02*
D03*
X121807Y230472D02*
D03*
X129677D02*
D03*
X137547D02*
D03*
X74807Y220472D02*
D03*
X82677D02*
D03*
X90547D02*
D03*
X78807Y230472D02*
D03*
X86677D02*
D03*
X94547D02*
D03*
X31307Y220472D02*
D03*
X39177D02*
D03*
X47047D02*
D03*
X35307Y230472D02*
D03*
X43177D02*
D03*
X51047D02*
D03*
D37*
X13780Y104331D02*
D03*
X242126D02*
D03*
Y13780D02*
D03*
X13780D02*
D03*
X13780Y257874D02*
D03*
X242126D02*
D03*
D38*
X66929Y35433D02*
D03*
X11811Y43307D02*
D03*
Y59055D02*
D03*
X124016Y61024D02*
D03*
X129921Y41339D02*
D03*
X236221Y62992D02*
D03*
X114173Y41339D02*
D03*
M02*
