G04*
G04 #@! TF.GenerationSoftware,Altium Limited,Altium Designer,18.0.7 (293)*
G04*
G04 Layer_Color=2752767*
%FSLAX25Y25*%
%MOIN*%
G70*
G01*
G75*
%ADD52C,0.00200*%
%ADD53C,0.00267*%
D52*
X198019Y38070D02*
Y39670D01*
X199619D01*
Y38070D01*
X198019D01*
X168688Y38570D02*
Y40170D01*
X170288D01*
Y38570D01*
X168688D01*
X230709Y168216D02*
X229909Y169816D01*
X231509D01*
X230709Y168216D01*
X220709Y173216D02*
X219909Y174816D01*
X221509D01*
X220709Y173216D01*
X230709Y178216D02*
X229909Y179816D01*
X231509D01*
X230709Y178216D01*
X220709Y183216D02*
X219909Y184816D01*
X221509D01*
X220709Y183216D01*
X230709Y188216D02*
X229909Y189816D01*
X231509D01*
X230709Y188216D01*
X220709Y193216D02*
X219909Y194816D01*
X221509D01*
X220709Y193216D01*
X230709Y198216D02*
X229909Y199816D01*
X231509D01*
X230709Y198216D01*
X220709Y203216D02*
X219909Y204816D01*
X221509D01*
X220709Y203216D01*
X267717Y217704D02*
X268116Y218104D01*
X268516D01*
X268116Y218504D01*
X268516Y218904D01*
X268116D01*
X267717Y219304D01*
X267317Y218904D01*
X266916D01*
X267317Y218504D01*
X266916Y218104D01*
X267317D01*
X267717Y217704D01*
Y153728D02*
X268116Y154128D01*
X268516D01*
X268116Y154528D01*
X268516Y154928D01*
X268116D01*
X267717Y155328D01*
X267317Y154928D01*
X266916D01*
X267317Y154528D01*
X266916Y154128D01*
X267317D01*
X267717Y153728D01*
X254909Y208216D02*
X255309Y209016D01*
X254909Y209816D01*
X255709Y209416D01*
X256509Y209816D01*
X256109Y209016D01*
X256509Y208216D01*
X255709Y208616D01*
X254909Y208216D01*
Y163216D02*
X255309Y164016D01*
X254909Y164816D01*
X255709Y164416D01*
X256509Y164816D01*
X256109Y164016D01*
X256509Y163216D01*
X255709Y163616D01*
X254909Y163216D01*
X199100Y138801D02*
Y138401D01*
X199900D01*
Y138801D01*
X200300D01*
Y139601D01*
X199900D01*
Y140001D01*
X199100D01*
Y139601D01*
X198700D01*
Y138801D01*
X199100D01*
X13100Y170801D02*
Y170401D01*
X13900D01*
Y170801D01*
X14300D01*
Y171601D01*
X13900D01*
Y172001D01*
X13100D01*
Y171601D01*
X12700D01*
Y170801D01*
X13100D01*
X160700Y142901D02*
X161100D01*
X161500Y143301D01*
X161900Y142901D01*
X162300D01*
Y143301D01*
X161900Y143701D01*
X162300Y144101D01*
Y144501D01*
X161900D01*
X161500Y144101D01*
X161100Y144501D01*
X160700D01*
Y144101D01*
X161100Y143701D01*
X160700Y143301D01*
Y142901D01*
X168570D02*
X168970D01*
X169370Y143301D01*
X169770Y142901D01*
X170170D01*
Y143301D01*
X169770Y143701D01*
X170170Y144101D01*
Y144501D01*
X169770D01*
X169370Y144101D01*
X168970Y144501D01*
X168570D01*
Y144101D01*
X168970Y143701D01*
X168570Y143301D01*
Y142901D01*
X176440D02*
X176840D01*
X177240Y143301D01*
X177640Y142901D01*
X178040D01*
Y143301D01*
X177640Y143701D01*
X178040Y144101D01*
Y144501D01*
X177640D01*
X177240Y144101D01*
X176840Y144501D01*
X176440D01*
Y144101D01*
X176840Y143701D01*
X176440Y143301D01*
Y142901D01*
X164700Y152901D02*
X165100D01*
X165500Y153301D01*
X165900Y152901D01*
X166300D01*
Y153301D01*
X165900Y153701D01*
X166300Y154101D01*
Y154501D01*
X165900D01*
X165500Y154101D01*
X165100Y154501D01*
X164700D01*
Y154101D01*
X165100Y153701D01*
X164700Y153301D01*
Y152901D01*
X172570D02*
X172970D01*
X173370Y153301D01*
X173770Y152901D01*
X174170D01*
Y153301D01*
X173770Y153701D01*
X174170Y154101D01*
Y154501D01*
X173770D01*
X173370Y154101D01*
X172970Y154501D01*
X172570D01*
Y154101D01*
X172970Y153701D01*
X172570Y153301D01*
Y152901D01*
X180440D02*
X180840D01*
X181240Y153301D01*
X181640Y152901D01*
X182040D01*
Y153301D01*
X181640Y153701D01*
X182040Y154101D01*
Y154501D01*
X181640D01*
X181240Y154101D01*
X180840Y154501D01*
X180440D01*
Y154101D01*
X180840Y153701D01*
X180440Y153301D01*
Y152901D01*
X117200Y142901D02*
X117600D01*
X118000Y143301D01*
X118400Y142901D01*
X118800D01*
Y143301D01*
X118400Y143701D01*
X118800Y144101D01*
Y144501D01*
X118400D01*
X118000Y144101D01*
X117600Y144501D01*
X117200D01*
Y144101D01*
X117600Y143701D01*
X117200Y143301D01*
Y142901D01*
X125070D02*
X125470D01*
X125870Y143301D01*
X126270Y142901D01*
X126670D01*
Y143301D01*
X126270Y143701D01*
X126670Y144101D01*
Y144501D01*
X126270D01*
X125870Y144101D01*
X125470Y144501D01*
X125070D01*
Y144101D01*
X125470Y143701D01*
X125070Y143301D01*
Y142901D01*
X132940D02*
X133340D01*
X133740Y143301D01*
X134140Y142901D01*
X134540D01*
Y143301D01*
X134140Y143701D01*
X134540Y144101D01*
Y144501D01*
X134140D01*
X133740Y144101D01*
X133340Y144501D01*
X132940D01*
Y144101D01*
X133340Y143701D01*
X132940Y143301D01*
Y142901D01*
X121200Y152901D02*
X121600D01*
X122000Y153301D01*
X122400Y152901D01*
X122800D01*
Y153301D01*
X122400Y153701D01*
X122800Y154101D01*
Y154501D01*
X122400D01*
X122000Y154101D01*
X121600Y154501D01*
X121200D01*
Y154101D01*
X121600Y153701D01*
X121200Y153301D01*
Y152901D01*
X129070D02*
X129470D01*
X129870Y153301D01*
X130270Y152901D01*
X130670D01*
Y153301D01*
X130270Y153701D01*
X130670Y154101D01*
Y154501D01*
X130270D01*
X129870Y154101D01*
X129470Y154501D01*
X129070D01*
Y154101D01*
X129470Y153701D01*
X129070Y153301D01*
Y152901D01*
X136940D02*
X137340D01*
X137740Y153301D01*
X138140Y152901D01*
X138540D01*
Y153301D01*
X138140Y153701D01*
X138540Y154101D01*
Y154501D01*
X138140D01*
X137740Y154101D01*
X137340Y154501D01*
X136940D01*
Y154101D01*
X137340Y153701D01*
X136940Y153301D01*
Y152901D01*
X74200Y142901D02*
X74600D01*
X75000Y143301D01*
X75400Y142901D01*
X75800D01*
Y143301D01*
X75400Y143701D01*
X75800Y144101D01*
Y144501D01*
X75400D01*
X75000Y144101D01*
X74600Y144501D01*
X74200D01*
Y144101D01*
X74600Y143701D01*
X74200Y143301D01*
Y142901D01*
X82070D02*
X82470D01*
X82870Y143301D01*
X83270Y142901D01*
X83670D01*
Y143301D01*
X83270Y143701D01*
X83670Y144101D01*
Y144501D01*
X83270D01*
X82870Y144101D01*
X82470Y144501D01*
X82070D01*
Y144101D01*
X82470Y143701D01*
X82070Y143301D01*
Y142901D01*
X89940D02*
X90340D01*
X90740Y143301D01*
X91140Y142901D01*
X91540D01*
Y143301D01*
X91140Y143701D01*
X91540Y144101D01*
Y144501D01*
X91140D01*
X90740Y144101D01*
X90340Y144501D01*
X89940D01*
Y144101D01*
X90340Y143701D01*
X89940Y143301D01*
Y142901D01*
X78200Y152901D02*
X78600D01*
X79000Y153301D01*
X79400Y152901D01*
X79800D01*
Y153301D01*
X79400Y153701D01*
X79800Y154101D01*
Y154501D01*
X79400D01*
X79000Y154101D01*
X78600Y154501D01*
X78200D01*
Y154101D01*
X78600Y153701D01*
X78200Y153301D01*
Y152901D01*
X86070D02*
X86470D01*
X86870Y153301D01*
X87270Y152901D01*
X87670D01*
Y153301D01*
X87270Y153701D01*
X87670Y154101D01*
Y154501D01*
X87270D01*
X86870Y154101D01*
X86470Y154501D01*
X86070D01*
Y154101D01*
X86470Y153701D01*
X86070Y153301D01*
Y152901D01*
X93940D02*
X94340D01*
X94740Y153301D01*
X95140Y152901D01*
X95540D01*
Y153301D01*
X95140Y153701D01*
X95540Y154101D01*
Y154501D01*
X95140D01*
X94740Y154101D01*
X94340Y154501D01*
X93940D01*
Y154101D01*
X94340Y153701D01*
X93940Y153301D01*
Y152901D01*
X50440D02*
X50840D01*
X51240Y153301D01*
X51640Y152901D01*
X52040D01*
Y153301D01*
X51640Y153701D01*
X52040Y154101D01*
Y154501D01*
X51640D01*
X51240Y154101D01*
X50840Y154501D01*
X50440D01*
Y154101D01*
X50840Y153701D01*
X50440Y153301D01*
Y152901D01*
X42570D02*
X42970D01*
X43370Y153301D01*
X43770Y152901D01*
X44170D01*
Y153301D01*
X43770Y153701D01*
X44170Y154101D01*
Y154501D01*
X43770D01*
X43370Y154101D01*
X42970Y154501D01*
X42570D01*
Y154101D01*
X42970Y153701D01*
X42570Y153301D01*
Y152901D01*
X34700D02*
X35100D01*
X35500Y153301D01*
X35900Y152901D01*
X36300D01*
Y153301D01*
X35900Y153701D01*
X36300Y154101D01*
Y154501D01*
X35900D01*
X35500Y154101D01*
X35100Y154501D01*
X34700D01*
Y154101D01*
X35100Y153701D01*
X34700Y153301D01*
Y152901D01*
X46440Y142901D02*
X46840D01*
X47240Y143301D01*
X47640Y142901D01*
X48040D01*
Y143301D01*
X47640Y143701D01*
X48040Y144101D01*
Y144501D01*
X47640D01*
X47240Y144101D01*
X46840Y144501D01*
X46440D01*
Y144101D01*
X46840Y143701D01*
X46440Y143301D01*
Y142901D01*
X38570D02*
X38970D01*
X39370Y143301D01*
X39770Y142901D01*
X40170D01*
Y143301D01*
X39770Y143701D01*
X40170Y144101D01*
Y144501D01*
X39770D01*
X39370Y144101D01*
X38970Y144501D01*
X38570D01*
Y144101D01*
X38970Y143701D01*
X38570Y143301D01*
Y142901D01*
X30700D02*
X31100D01*
X31500Y143301D01*
X31900Y142901D01*
X32300D01*
Y143301D01*
X31900Y143701D01*
X32300Y144101D01*
Y144501D01*
X31900D01*
X31500Y144101D01*
X31100Y144501D01*
X30700D01*
Y144101D01*
X31100Y143701D01*
X30700Y143301D01*
Y142901D01*
X12980Y104331D02*
X13780Y105131D01*
X14580Y104331D01*
X13780Y103531D01*
X12980Y104331D01*
X241326D02*
X242126Y105131D01*
X242926Y104331D01*
X242126Y103531D01*
X241326Y104331D01*
Y13780D02*
X242126Y14580D01*
X242926Y13780D01*
X242126Y12980D01*
X241326Y13780D01*
X12980D02*
X13780Y14580D01*
X14580Y13780D01*
X13780Y12980D01*
X12980Y13780D01*
X12979Y257874D02*
X13780Y258674D01*
X14580Y257874D01*
X13780Y257074D01*
X12979Y257874D01*
X241326D02*
X242126Y258674D01*
X242926Y257874D01*
X242126Y257074D01*
X241326Y257874D01*
X180247Y229672D02*
X180647D01*
X181047Y230072D01*
X181447Y229672D01*
X181847D01*
Y230072D01*
X181447Y230472D01*
X181847Y230872D01*
Y231272D01*
X181447D01*
X181047Y230872D01*
X180647Y231272D01*
X180247D01*
Y230872D01*
X180647Y230472D01*
X180247Y230072D01*
Y229672D01*
X172377D02*
X172777D01*
X173177Y230072D01*
X173577Y229672D01*
X173977D01*
Y230072D01*
X173577Y230472D01*
X173977Y230872D01*
Y231272D01*
X173577D01*
X173177Y230872D01*
X172777Y231272D01*
X172377D01*
Y230872D01*
X172777Y230472D01*
X172377Y230072D01*
Y229672D01*
X164507D02*
X164907D01*
X165307Y230072D01*
X165707Y229672D01*
X166107D01*
Y230072D01*
X165707Y230472D01*
X166107Y230872D01*
Y231272D01*
X165707D01*
X165307Y230872D01*
X164907Y231272D01*
X164507D01*
Y230872D01*
X164907Y230472D01*
X164507Y230072D01*
Y229672D01*
X176247Y219672D02*
X176647D01*
X177047Y220072D01*
X177447Y219672D01*
X177847D01*
Y220072D01*
X177447Y220472D01*
X177847Y220872D01*
Y221272D01*
X177447D01*
X177047Y220872D01*
X176647Y221272D01*
X176247D01*
Y220872D01*
X176647Y220472D01*
X176247Y220072D01*
Y219672D01*
X168377D02*
X168777D01*
X169177Y220072D01*
X169577Y219672D01*
X169977D01*
Y220072D01*
X169577Y220472D01*
X169977Y220872D01*
Y221272D01*
X169577D01*
X169177Y220872D01*
X168777Y221272D01*
X168377D01*
Y220872D01*
X168777Y220472D01*
X168377Y220072D01*
Y219672D01*
X160507D02*
X160907D01*
X161307Y220072D01*
X161707Y219672D01*
X162107D01*
Y220072D01*
X161707Y220472D01*
X162107Y220872D01*
Y221272D01*
X161707D01*
X161307Y220872D01*
X160907Y221272D01*
X160507D01*
Y220872D01*
X160907Y220472D01*
X160507Y220072D01*
Y219672D01*
X117007D02*
X117407D01*
X117807Y220072D01*
X118207Y219672D01*
X118607D01*
Y220072D01*
X118207Y220472D01*
X118607Y220872D01*
Y221272D01*
X118207D01*
X117807Y220872D01*
X117407Y221272D01*
X117007D01*
Y220872D01*
X117407Y220472D01*
X117007Y220072D01*
Y219672D01*
X124877D02*
X125277D01*
X125677Y220072D01*
X126077Y219672D01*
X126477D01*
Y220072D01*
X126077Y220472D01*
X126477Y220872D01*
Y221272D01*
X126077D01*
X125677Y220872D01*
X125277Y221272D01*
X124877D01*
Y220872D01*
X125277Y220472D01*
X124877Y220072D01*
Y219672D01*
X132747D02*
X133147D01*
X133547Y220072D01*
X133947Y219672D01*
X134347D01*
Y220072D01*
X133947Y220472D01*
X134347Y220872D01*
Y221272D01*
X133947D01*
X133547Y220872D01*
X133147Y221272D01*
X132747D01*
Y220872D01*
X133147Y220472D01*
X132747Y220072D01*
Y219672D01*
X121007Y229672D02*
X121407D01*
X121807Y230072D01*
X122207Y229672D01*
X122607D01*
Y230072D01*
X122207Y230472D01*
X122607Y230872D01*
Y231272D01*
X122207D01*
X121807Y230872D01*
X121407Y231272D01*
X121007D01*
Y230872D01*
X121407Y230472D01*
X121007Y230072D01*
Y229672D01*
X128877D02*
X129277D01*
X129677Y230072D01*
X130077Y229672D01*
X130477D01*
Y230072D01*
X130077Y230472D01*
X130477Y230872D01*
Y231272D01*
X130077D01*
X129677Y230872D01*
X129277Y231272D01*
X128877D01*
Y230872D01*
X129277Y230472D01*
X128877Y230072D01*
Y229672D01*
X136747D02*
X137147D01*
X137547Y230072D01*
X137947Y229672D01*
X138347D01*
Y230072D01*
X137947Y230472D01*
X138347Y230872D01*
Y231272D01*
X137947D01*
X137547Y230872D01*
X137147Y231272D01*
X136747D01*
Y230872D01*
X137147Y230472D01*
X136747Y230072D01*
Y229672D01*
X74007Y219672D02*
X74407D01*
X74807Y220072D01*
X75207Y219672D01*
X75607D01*
Y220072D01*
X75207Y220472D01*
X75607Y220872D01*
Y221272D01*
X75207D01*
X74807Y220872D01*
X74407Y221272D01*
X74007D01*
Y220872D01*
X74407Y220472D01*
X74007Y220072D01*
Y219672D01*
X81877D02*
X82277D01*
X82677Y220072D01*
X83077Y219672D01*
X83477D01*
Y220072D01*
X83077Y220472D01*
X83477Y220872D01*
Y221272D01*
X83077D01*
X82677Y220872D01*
X82277Y221272D01*
X81877D01*
Y220872D01*
X82277Y220472D01*
X81877Y220072D01*
Y219672D01*
X89747D02*
X90147D01*
X90547Y220072D01*
X90947Y219672D01*
X91347D01*
Y220072D01*
X90947Y220472D01*
X91347Y220872D01*
Y221272D01*
X90947D01*
X90547Y220872D01*
X90147Y221272D01*
X89747D01*
Y220872D01*
X90147Y220472D01*
X89747Y220072D01*
Y219672D01*
X78007Y229672D02*
X78407D01*
X78807Y230072D01*
X79207Y229672D01*
X79607D01*
Y230072D01*
X79207Y230472D01*
X79607Y230872D01*
Y231272D01*
X79207D01*
X78807Y230872D01*
X78407Y231272D01*
X78007D01*
Y230872D01*
X78407Y230472D01*
X78007Y230072D01*
Y229672D01*
X85877D02*
X86277D01*
X86677Y230072D01*
X87077Y229672D01*
X87477D01*
Y230072D01*
X87077Y230472D01*
X87477Y230872D01*
Y231272D01*
X87077D01*
X86677Y230872D01*
X86277Y231272D01*
X85877D01*
Y230872D01*
X86277Y230472D01*
X85877Y230072D01*
Y229672D01*
X93747D02*
X94147D01*
X94547Y230072D01*
X94947Y229672D01*
X95347D01*
Y230072D01*
X94947Y230472D01*
X95347Y230872D01*
Y231272D01*
X94947D01*
X94547Y230872D01*
X94147Y231272D01*
X93747D01*
Y230872D01*
X94147Y230472D01*
X93747Y230072D01*
Y229672D01*
X30507Y219672D02*
X30907D01*
X31307Y220072D01*
X31707Y219672D01*
X32107D01*
Y220072D01*
X31707Y220472D01*
X32107Y220872D01*
Y221272D01*
X31707D01*
X31307Y220872D01*
X30907Y221272D01*
X30507D01*
Y220872D01*
X30907Y220472D01*
X30507Y220072D01*
Y219672D01*
X38377D02*
X38777D01*
X39177Y220072D01*
X39577Y219672D01*
X39977D01*
Y220072D01*
X39577Y220472D01*
X39977Y220872D01*
Y221272D01*
X39577D01*
X39177Y220872D01*
X38777Y221272D01*
X38377D01*
Y220872D01*
X38777Y220472D01*
X38377Y220072D01*
Y219672D01*
X46247D02*
X46647D01*
X47047Y220072D01*
X47447Y219672D01*
X47847D01*
Y220072D01*
X47447Y220472D01*
X47847Y220872D01*
Y221272D01*
X47447D01*
X47047Y220872D01*
X46647Y221272D01*
X46247D01*
Y220872D01*
X46647Y220472D01*
X46247Y220072D01*
Y219672D01*
X34507Y229672D02*
X34907D01*
X35307Y230072D01*
X35707Y229672D01*
X36107D01*
Y230072D01*
X35707Y230472D01*
X36107Y230872D01*
Y231272D01*
X35707D01*
X35307Y230872D01*
X34907Y231272D01*
X34507D01*
Y230872D01*
X34907Y230472D01*
X34507Y230072D01*
Y229672D01*
X42377D02*
X42777D01*
X43177Y230072D01*
X43577Y229672D01*
X43977D01*
Y230072D01*
X43577Y230472D01*
X43977Y230872D01*
Y231272D01*
X43577D01*
X43177Y230872D01*
X42777Y231272D01*
X42377D01*
Y230872D01*
X42777Y230472D01*
X42377Y230072D01*
Y229672D01*
X50247D02*
X50647D01*
X51047Y230072D01*
X51447Y229672D01*
X51847D01*
Y230072D01*
X51447Y230472D01*
X51847Y230872D01*
Y231272D01*
X51447D01*
X51047Y230872D01*
X50647Y231272D01*
X50247D01*
Y230872D01*
X50647Y230472D01*
X50247Y230072D01*
Y229672D01*
X198647Y202572D02*
Y202172D01*
X199447D01*
Y202572D01*
X199847D01*
Y203372D01*
X199447D01*
Y203772D01*
X198647D01*
Y203372D01*
X198247D01*
Y202572D01*
X198647D01*
X12647Y234572D02*
Y234172D01*
X13447D01*
Y234572D01*
X13847D01*
Y235372D01*
X13447D01*
Y235772D01*
X12647D01*
Y235372D01*
X12247D01*
Y234572D01*
X12647D01*
X66129Y34633D02*
Y36233D01*
X67729D01*
Y34633D01*
X66129D01*
X66529Y35033D02*
Y35833D01*
X67329D01*
Y35033D01*
X66529D01*
X11011Y42507D02*
Y44107D01*
X12611D01*
Y42507D01*
X11011D01*
X11411Y42907D02*
Y43707D01*
X12211D01*
Y42907D01*
X11411D01*
X11011Y58255D02*
Y59855D01*
X12611D01*
Y58255D01*
X11011D01*
X11411Y58655D02*
Y59455D01*
X12211D01*
Y58655D01*
X11411D01*
X123216Y60224D02*
Y61824D01*
X124816D01*
Y60224D01*
X123216D01*
X123616Y60624D02*
Y61424D01*
X124416D01*
Y60624D01*
X123616D01*
X129121Y40539D02*
Y42139D01*
X130721D01*
Y40539D01*
X129121D01*
X129521Y40939D02*
Y41739D01*
X130321D01*
Y40939D01*
X129521D01*
X235420Y62192D02*
Y63792D01*
X237020D01*
Y62192D01*
X235420D01*
X235821Y62592D02*
Y63392D01*
X236620D01*
Y62592D01*
X235821D01*
X113373Y40539D02*
Y42139D01*
X114973D01*
Y40539D01*
X113373D01*
X113773Y40939D02*
Y41739D01*
X114573D01*
Y40939D01*
X113773D01*
D53*
X33753Y99331D02*
X33200Y100092D01*
X32306Y99801D01*
Y98861D01*
X33200Y98570D01*
X33753Y99331D01*
Y109331D02*
X33200Y110092D01*
X32306Y109801D01*
Y108861D01*
X33200Y108570D01*
X33753Y109331D01*
X43753Y99331D02*
X43200Y100092D01*
X42306Y99801D01*
Y98861D01*
X43200Y98570D01*
X43753Y99331D01*
Y109331D02*
X43200Y110092D01*
X42306Y109801D01*
Y108861D01*
X43200Y108570D01*
X43753Y109331D01*
X53753Y99331D02*
X53200Y100092D01*
X52306Y99801D01*
Y98861D01*
X53200Y98570D01*
X53753Y99331D01*
Y109331D02*
X53200Y110092D01*
X52306Y109801D01*
Y108861D01*
X53200Y108570D01*
X53753Y109331D01*
X63753Y99331D02*
X63200Y100092D01*
X62306Y99801D01*
Y98861D01*
X63200Y98570D01*
X63753Y99331D01*
Y109331D02*
X63200Y110092D01*
X62306Y109801D01*
Y108861D01*
X63200Y108570D01*
X63753Y109331D01*
X73753Y99331D02*
X73200Y100092D01*
X72306Y99801D01*
Y98861D01*
X73200Y98570D01*
X73753Y99331D01*
Y109331D02*
X73200Y110092D01*
X72306Y109801D01*
Y108861D01*
X73200Y108570D01*
X73753Y109331D01*
X83753Y99331D02*
X83200Y100092D01*
X82306Y99801D01*
Y98861D01*
X83200Y98570D01*
X83753Y99331D01*
Y109331D02*
X83200Y110092D01*
X82306Y109801D01*
Y108861D01*
X83200Y108570D01*
X83753Y109331D01*
X93753Y99331D02*
X93200Y100092D01*
X92306Y99801D01*
Y98861D01*
X93200Y98570D01*
X93753Y99331D01*
Y109331D02*
X93200Y110092D01*
X92306Y109801D01*
Y108861D01*
X93200Y108570D01*
X93753Y109331D01*
X103753Y99331D02*
X103200Y100092D01*
X102306Y99801D01*
Y98861D01*
X103200Y98570D01*
X103753Y99331D01*
Y109331D02*
X103200Y110092D01*
X102306Y109801D01*
Y108861D01*
X103200Y108570D01*
X103753Y109331D01*
X113753Y99331D02*
X113200Y100092D01*
X112306Y99801D01*
Y98861D01*
X113200Y98570D01*
X113753Y99331D01*
Y109331D02*
X113200Y110092D01*
X112306Y109801D01*
Y108861D01*
X113200Y108570D01*
X113753Y109331D01*
X123753Y99331D02*
X123200Y100092D01*
X122306Y99801D01*
Y98861D01*
X123200Y98570D01*
X123753Y99331D01*
Y109331D02*
X123200Y110092D01*
X122306Y109801D01*
Y108861D01*
X123200Y108570D01*
X123753Y109331D01*
X133753Y99331D02*
X133200Y100092D01*
X132306Y99801D01*
Y98861D01*
X133200Y98570D01*
X133753Y99331D01*
Y109331D02*
X133200Y110092D01*
X132306Y109801D01*
Y108861D01*
X133200Y108570D01*
X133753Y109331D01*
X143753Y99331D02*
X143200Y100092D01*
X142306Y99801D01*
Y98861D01*
X143200Y98570D01*
X143753Y99331D01*
Y109331D02*
X143200Y110092D01*
X142306Y109801D01*
Y108861D01*
X143200Y108570D01*
X143753Y109331D01*
X153753Y99331D02*
X153200Y100092D01*
X152306Y99801D01*
Y98861D01*
X153200Y98570D01*
X153753Y99331D01*
Y109331D02*
X153200Y110092D01*
X152306Y109801D01*
Y108861D01*
X153200Y108570D01*
X153753Y109331D01*
X163753Y99331D02*
X163200Y100092D01*
X162306Y99801D01*
Y98861D01*
X163200Y98570D01*
X163753Y99331D01*
Y109331D02*
X163200Y110092D01*
X162306Y109801D01*
Y108861D01*
X163200Y108570D01*
X163753Y109331D01*
X173753Y99331D02*
X173200Y100092D01*
X172306Y99801D01*
Y98861D01*
X173200Y98570D01*
X173753Y99331D01*
Y109331D02*
X173200Y110092D01*
X172306Y109801D01*
Y108861D01*
X173200Y108570D01*
X173753Y109331D01*
X183753Y99331D02*
X183200Y100092D01*
X182306Y99801D01*
Y98861D01*
X183200Y98570D01*
X183753Y99331D01*
Y109331D02*
X183200Y110092D01*
X182306Y109801D01*
Y108861D01*
X183200Y108570D01*
X183753Y109331D01*
X193753Y99331D02*
X193200Y100092D01*
X192306Y99801D01*
Y98861D01*
X193200Y98570D01*
X193753Y99331D01*
Y109331D02*
X193200Y110092D01*
X192306Y109801D01*
Y108861D01*
X193200Y108570D01*
X193753Y109331D01*
X203753Y99331D02*
X203200Y100092D01*
X202306Y99801D01*
Y98861D01*
X203200Y98570D01*
X203753Y99331D01*
Y109331D02*
X203200Y110092D01*
X202306Y109801D01*
Y108861D01*
X203200Y108570D01*
X203753Y109331D01*
X213753Y99331D02*
X213200Y100092D01*
X212306Y99801D01*
Y98861D01*
X213200Y98570D01*
X213753Y99331D01*
Y109331D02*
X213200Y110092D01*
X212306Y109801D01*
Y108861D01*
X213200Y108570D01*
X213753Y109331D01*
X223753Y99331D02*
X223200Y100092D01*
X222306Y99801D01*
Y98861D01*
X223200Y98570D01*
X223753Y99331D01*
Y109331D02*
X223200Y110092D01*
X222306Y109801D01*
Y108861D01*
X223200Y108570D01*
X223753Y109331D01*
M02*
