M48
;Layer_Color=9474304
;FILE_FORMAT=2:5
INCH,TZ
;TYPE=PLATED
T1F00S00C0.01181
T2F00S00C0.03600
T3F00S00C0.04000
T4F00S00C0.10827
T5F00S00C0.11200
T6F00S00C0.12800
%
T01
X31496Y33661
X45497
X59498
X73499
X87500
X101501
X115502
X129503
X143504
X179921Y42913
X194882Y7874
X212992Y12205
X225197Y11024
X242913Y8661
T02
X223346Y31339
X233347
X243347
X238347Y41339
X228346
X218347
T03
X68898Y56929
Y66929
X78898
Y56929
X88898
X98898
X108898
X118898
X128898
X138898
X148898
X158898
Y66929
X148898
X138898
X128898
X118898
X108898
X98898
X88898
T04
X13780Y13780
X273622
Y61024
X13780
T05
X181898Y62929
X45898
T06
X250847Y66339
X210846
M30
