G04*
G04 #@! TF.GenerationSoftware,Altium Limited,Altium Designer,18.0.7 (293)*
G04*
G04 Layer_Color=2752767*
%FSLAX25Y25*%
%MOIN*%
G70*
G01*
G75*
%ADD33C,0.00200*%
%ADD34C,0.00267*%
D33*
X217547Y40539D02*
Y42139D01*
X219146D01*
Y40539D01*
X217547D01*
X227547D02*
Y42139D01*
X229147D01*
Y40539D01*
X227547D01*
X237546D02*
Y42139D01*
X239146D01*
Y40539D01*
X237546D01*
X222547Y30539D02*
Y32139D01*
X224147D01*
Y30539D01*
X222547D01*
X232546D02*
Y32139D01*
X234146D01*
Y30539D01*
X232546D01*
X242547D02*
Y32139D01*
X244146D01*
Y30539D01*
X242547D01*
X68898Y66129D02*
X68098Y67729D01*
X69698D01*
X68898Y66129D01*
Y56129D02*
X68098Y57729D01*
X69698D01*
X68898Y56129D01*
X78898D02*
X78098Y57729D01*
X79698D01*
X78898Y56129D01*
X88898D02*
X88098Y57729D01*
X89698D01*
X88898Y56129D01*
X98898D02*
X98098Y57729D01*
X99698D01*
X98898Y56129D01*
X108898D02*
X108098Y57729D01*
X109698D01*
X108898Y56129D01*
X118898D02*
X118098Y57729D01*
X119698D01*
X118898Y56129D01*
X128898D02*
X128098Y57729D01*
X129698D01*
X128898Y56129D01*
X138898D02*
X138098Y57729D01*
X139698D01*
X138898Y56129D01*
X148898D02*
X148098Y57729D01*
X149698D01*
X148898Y56129D01*
X158898D02*
X158098Y57729D01*
X159698D01*
X158898Y56129D01*
X78898Y66129D02*
X78098Y67729D01*
X79698D01*
X78898Y66129D01*
X88898D02*
X88098Y67729D01*
X89698D01*
X88898Y66129D01*
X98898D02*
X98098Y67729D01*
X99698D01*
X98898Y66129D01*
X108898D02*
X108098Y67729D01*
X109698D01*
X108898Y66129D01*
X118898D02*
X118098Y67729D01*
X119698D01*
X118898Y66129D01*
X128898D02*
X128098Y67729D01*
X129698D01*
X128898Y66129D01*
X138898D02*
X138098Y67729D01*
X139698D01*
X138898Y66129D01*
X148898D02*
X148098Y67729D01*
X149698D01*
X148898Y66129D01*
X158898D02*
X158098Y67729D01*
X159698D01*
X158898Y66129D01*
X181898Y62129D02*
X182298Y62529D01*
X182698D01*
X182298Y62929D01*
X182698Y63329D01*
X182298D01*
X181898Y63729D01*
X181498Y63329D01*
X181098D01*
X181498Y62929D01*
X181098Y62529D01*
X181498D01*
X181898Y62129D01*
X45898D02*
X46298Y62529D01*
X46698D01*
X46298Y62929D01*
X46698Y63329D01*
X46298D01*
X45898Y63729D01*
X45498Y63329D01*
X45098D01*
X45498Y62929D01*
X45098Y62529D01*
X45498D01*
X45898Y62129D01*
X272822Y60224D02*
X273222Y61024D01*
X272822Y61824D01*
X273622Y61424D01*
X274422Y61824D01*
X274022Y61024D01*
X274422Y60224D01*
X273622Y60624D01*
X272822Y60224D01*
Y12979D02*
X273222Y13780D01*
X272822Y14580D01*
X273622Y14179D01*
X274422Y14580D01*
X274022Y13780D01*
X274422Y12979D01*
X273622Y13379D01*
X272822Y12979D01*
X12979D02*
X13379Y13780D01*
X12979Y14580D01*
X13780Y14179D01*
X14580Y14580D01*
X14179Y13780D01*
X14580Y12979D01*
X13780Y13379D01*
X12979Y12979D01*
Y60224D02*
X13379Y61024D01*
X12979Y61824D01*
X13780Y61424D01*
X14580Y61824D01*
X14179Y61024D01*
X14580Y60224D01*
X13780Y60624D01*
X12979Y60224D01*
X224797Y10624D02*
Y10224D01*
X225597D01*
Y10624D01*
X225997D01*
Y11424D01*
X225597D01*
Y11824D01*
X224797D01*
Y11424D01*
X224397D01*
Y10624D01*
X224797D01*
X242513Y8261D02*
Y7861D01*
X243313D01*
Y8261D01*
X243713D01*
Y9061D01*
X243313D01*
Y9461D01*
X242513D01*
Y9061D01*
X242113D01*
Y8261D01*
X242513D01*
X179521Y42513D02*
Y42113D01*
X180321D01*
Y42513D01*
X180721D01*
Y43313D01*
X180321D01*
Y43713D01*
X179521D01*
Y43313D01*
X179121D01*
Y42513D01*
X179521D01*
X31096Y33261D02*
Y32861D01*
X31896D01*
Y33261D01*
X32296D01*
Y34061D01*
X31896D01*
Y34461D01*
X31096D01*
Y34061D01*
X30696D01*
Y33261D01*
X31096D01*
X45097D02*
Y32861D01*
X45897D01*
Y33261D01*
X46297D01*
Y34061D01*
X45897D01*
Y34461D01*
X45097D01*
Y34061D01*
X44697D01*
Y33261D01*
X45097D01*
X59098D02*
Y32861D01*
X59898D01*
Y33261D01*
X60298D01*
Y34061D01*
X59898D01*
Y34461D01*
X59098D01*
Y34061D01*
X58698D01*
Y33261D01*
X59098D01*
X73099D02*
Y32861D01*
X73899D01*
Y33261D01*
X74299D01*
Y34061D01*
X73899D01*
Y34461D01*
X73099D01*
Y34061D01*
X72699D01*
Y33261D01*
X73099D01*
X87100D02*
Y32861D01*
X87900D01*
Y33261D01*
X88300D01*
Y34061D01*
X87900D01*
Y34461D01*
X87100D01*
Y34061D01*
X86700D01*
Y33261D01*
X87100D01*
X101101D02*
Y32861D01*
X101901D01*
Y33261D01*
X102301D01*
Y34061D01*
X101901D01*
Y34461D01*
X101101D01*
Y34061D01*
X100701D01*
Y33261D01*
X101101D01*
X115102D02*
Y32861D01*
X115902D01*
Y33261D01*
X116302D01*
Y34061D01*
X115902D01*
Y34461D01*
X115102D01*
Y34061D01*
X114702D01*
Y33261D01*
X115102D01*
X129103D02*
Y32861D01*
X129903D01*
Y33261D01*
X130303D01*
Y34061D01*
X129903D01*
Y34461D01*
X129103D01*
Y34061D01*
X128703D01*
Y33261D01*
X129103D01*
X194482Y7474D02*
Y7074D01*
X195282D01*
Y7474D01*
X195682D01*
Y8274D01*
X195282D01*
Y8674D01*
X194482D01*
Y8274D01*
X194082D01*
Y7474D01*
X194482D01*
X212592Y11805D02*
Y11405D01*
X213392D01*
Y11805D01*
X213792D01*
Y12605D01*
X213392D01*
Y13005D01*
X212592D01*
Y12605D01*
X212192D01*
Y11805D01*
X212592D01*
X143104Y33261D02*
Y32861D01*
X143904D01*
Y33261D01*
X144304D01*
Y34061D01*
X143904D01*
Y34461D01*
X143104D01*
Y34061D01*
X142704D01*
Y33261D01*
X143104D01*
D34*
X211647Y66339D02*
X211094Y67099D01*
X210199Y66809D01*
Y65868D01*
X211094Y65578D01*
X211647Y66339D01*
X251646D02*
X251094Y67099D01*
X250199Y66809D01*
Y65868D01*
X251094Y65578D01*
X251646Y66339D01*
M02*
