G04*
G04 #@! TF.GenerationSoftware,Altium Limited,Altium Designer,18.0.7 (293)*
G04*
G04 Layer_Color=16711935*
%FSLAX25Y25*%
%MOIN*%
G70*
G01*
G75*
%ADD24C,0.07300*%
%ADD25C,0.00800*%
%ADD26C,0.07800*%
%ADD27C,0.24422*%
%ADD28C,0.03300*%
D24*
X218347Y41339D02*
D03*
X228346D02*
D03*
X238347D02*
D03*
X223346Y31339D02*
D03*
X233347D02*
D03*
X243347D02*
D03*
D25*
X210846Y66339D02*
D03*
X250847D02*
D03*
X181898Y62929D02*
D03*
X45898D02*
D03*
D26*
X68898Y66929D02*
D03*
Y56929D02*
D03*
X78898D02*
D03*
X88898D02*
D03*
X98898D02*
D03*
X108898D02*
D03*
X118898D02*
D03*
X128898D02*
D03*
X138898D02*
D03*
X148898D02*
D03*
X158898D02*
D03*
X78898Y66929D02*
D03*
X88898D02*
D03*
X98898D02*
D03*
X108898D02*
D03*
X118898D02*
D03*
X128898D02*
D03*
X138898D02*
D03*
X148898D02*
D03*
X158898D02*
D03*
D27*
X273622Y61024D02*
D03*
Y13780D02*
D03*
X13780D02*
D03*
Y61024D02*
D03*
D28*
X225197Y11024D02*
D03*
X242913Y8661D02*
D03*
X179921Y42913D02*
D03*
X31496Y33661D02*
D03*
X45497D02*
D03*
X59498D02*
D03*
X73499D02*
D03*
X87500D02*
D03*
X101501D02*
D03*
X115502D02*
D03*
X129503D02*
D03*
X194882Y7874D02*
D03*
X212992Y12205D02*
D03*
X143504Y33661D02*
D03*
M02*
