G04*
G04 #@! TF.GenerationSoftware,Altium Limited,Altium Designer,18.0.7 (293)*
G04*
G04 Layer_Physical_Order=2*
G04 Layer_Color=16711680*
%FSLAX25Y25*%
%MOIN*%
G70*
G01*
G75*
%ADD12C,0.01000*%
%ADD29C,0.06500*%
%ADD30C,0.07000*%
%ADD31C,0.23622*%
%ADD32C,0.02500*%
G36*
X268513Y72774D02*
X267788Y72474D01*
X266069Y71420D01*
X264535Y70110D01*
X263226Y68577D01*
X262172Y66858D01*
X261400Y64995D01*
X260930Y63034D01*
X260771Y61024D01*
X260930Y59013D01*
X261400Y57053D01*
X262172Y55190D01*
X263226Y53470D01*
X264535Y51937D01*
X266069Y50627D01*
X267788Y49574D01*
X269651Y48802D01*
X271612Y48331D01*
X273622Y48173D01*
X275632Y48331D01*
X277593Y48802D01*
X279456Y49574D01*
X281175Y50627D01*
X282709Y51937D01*
X284018Y53470D01*
X285072Y55190D01*
X285372Y55914D01*
X285872Y55815D01*
Y18989D01*
X285372Y18889D01*
X285072Y19614D01*
X284018Y21333D01*
X282709Y22866D01*
X281175Y24176D01*
X279456Y25229D01*
X277593Y26001D01*
X275632Y26472D01*
X273622Y26630D01*
X271612Y26472D01*
X269651Y26001D01*
X267788Y25229D01*
X266069Y24176D01*
X264535Y22866D01*
X263226Y21333D01*
X262172Y19614D01*
X261400Y17751D01*
X260930Y15790D01*
X260771Y13780D01*
X260930Y11769D01*
X261400Y9809D01*
X262172Y7946D01*
X263226Y6226D01*
X264535Y4693D01*
X266069Y3383D01*
X267788Y2330D01*
X268513Y2029D01*
X268413Y1529D01*
X18989D01*
X18889Y2029D01*
X19614Y2330D01*
X21333Y3383D01*
X22866Y4693D01*
X24176Y6226D01*
X25229Y7946D01*
X26001Y9809D01*
X26472Y11769D01*
X26630Y13780D01*
X26472Y15790D01*
X26001Y17751D01*
X25229Y19614D01*
X24176Y21333D01*
X22866Y22866D01*
X21333Y24176D01*
X19614Y25229D01*
X17751Y26001D01*
X15790Y26472D01*
X13780Y26630D01*
X11769Y26472D01*
X9809Y26001D01*
X7946Y25229D01*
X6226Y24176D01*
X4693Y22866D01*
X3383Y21333D01*
X2330Y19614D01*
X2029Y18889D01*
X1529Y18989D01*
Y55815D01*
X2029Y55914D01*
X2330Y55190D01*
X3383Y53470D01*
X4693Y51937D01*
X6226Y50627D01*
X7946Y49574D01*
X9809Y48802D01*
X11769Y48331D01*
X13780Y48173D01*
X15790Y48331D01*
X17751Y48802D01*
X19614Y49574D01*
X21333Y50627D01*
X22866Y51937D01*
X24176Y53470D01*
X25229Y55190D01*
X26001Y57053D01*
X26472Y59013D01*
X26630Y61024D01*
X26472Y63034D01*
X26001Y64995D01*
X25229Y66858D01*
X24176Y68577D01*
X22866Y70110D01*
X21333Y71420D01*
X19614Y72474D01*
X18889Y72774D01*
X18989Y73274D01*
X207063D01*
X207188Y72774D01*
X206715Y72521D01*
X205589Y71596D01*
X204664Y70470D01*
X203977Y69184D01*
X203554Y67789D01*
X203411Y66339D01*
X203554Y64888D01*
X203977Y63493D01*
X204664Y62208D01*
X205589Y61081D01*
X206715Y60156D01*
X208001Y59469D01*
X209396Y59046D01*
X210846Y58903D01*
X212297Y59046D01*
X213692Y59469D01*
X214978Y60156D01*
X216104Y61081D01*
X217029Y62208D01*
X217716Y63493D01*
X218139Y64888D01*
X218282Y66339D01*
X218139Y67789D01*
X217716Y69184D01*
X217029Y70470D01*
X216104Y71596D01*
X214978Y72521D01*
X214505Y72774D01*
X214630Y73274D01*
X247063D01*
X247188Y72774D01*
X246715Y72521D01*
X245588Y71596D01*
X244664Y70470D01*
X243977Y69184D01*
X243553Y67789D01*
X243411Y66339D01*
X243553Y64888D01*
X243977Y63493D01*
X244664Y62208D01*
X245588Y61081D01*
X246715Y60156D01*
X248001Y59469D01*
X249396Y59046D01*
X250847Y58903D01*
X252297Y59046D01*
X253692Y59469D01*
X254978Y60156D01*
X256104Y61081D01*
X257029Y62208D01*
X257716Y63493D01*
X258139Y64888D01*
X258282Y66339D01*
X258139Y67789D01*
X257716Y69184D01*
X257029Y70470D01*
X256104Y71596D01*
X254978Y72521D01*
X254505Y72774D01*
X254630Y73274D01*
X268413D01*
X268513Y72774D01*
D02*
G37*
%LPC*%
G36*
X158898Y71468D02*
X157723Y71313D01*
X156628Y70860D01*
X155688Y70139D01*
X154967Y69199D01*
X154514Y68104D01*
X154359Y66929D01*
X154514Y65754D01*
X154967Y64660D01*
X155688Y63720D01*
X156628Y62998D01*
X157723Y62545D01*
X158898Y62390D01*
X160072Y62545D01*
X161167Y62998D01*
X162107Y63720D01*
X162828Y64660D01*
X163282Y65754D01*
X163436Y66929D01*
X163282Y68104D01*
X162828Y69199D01*
X162107Y70139D01*
X161167Y70860D01*
X160072Y71313D01*
X158898Y71468D01*
D02*
G37*
G36*
X148898D02*
X147723Y71313D01*
X146628Y70860D01*
X145688Y70139D01*
X144967Y69199D01*
X144513Y68104D01*
X144359Y66929D01*
X144513Y65754D01*
X144967Y64660D01*
X145688Y63720D01*
X146628Y62998D01*
X147723Y62545D01*
X148898Y62390D01*
X150072Y62545D01*
X151167Y62998D01*
X152107Y63720D01*
X152828Y64660D01*
X153282Y65754D01*
X153437Y66929D01*
X153282Y68104D01*
X152828Y69199D01*
X152107Y70139D01*
X151167Y70860D01*
X150072Y71313D01*
X148898Y71468D01*
D02*
G37*
G36*
X138898D02*
X137723Y71313D01*
X136628Y70860D01*
X135688Y70139D01*
X134967Y69199D01*
X134513Y68104D01*
X134359Y66929D01*
X134513Y65754D01*
X134967Y64660D01*
X135688Y63720D01*
X136628Y62998D01*
X137723Y62545D01*
X138898Y62390D01*
X140072Y62545D01*
X141167Y62998D01*
X142107Y63720D01*
X142828Y64660D01*
X143282Y65754D01*
X143437Y66929D01*
X143282Y68104D01*
X142828Y69199D01*
X142107Y70139D01*
X141167Y70860D01*
X140072Y71313D01*
X138898Y71468D01*
D02*
G37*
G36*
X128898D02*
X127723Y71313D01*
X126628Y70860D01*
X125688Y70139D01*
X124967Y69199D01*
X124513Y68104D01*
X124359Y66929D01*
X124513Y65754D01*
X124967Y64660D01*
X125688Y63720D01*
X126628Y62998D01*
X127723Y62545D01*
X128898Y62390D01*
X130072Y62545D01*
X131167Y62998D01*
X132107Y63720D01*
X132828Y64660D01*
X133282Y65754D01*
X133437Y66929D01*
X133282Y68104D01*
X132828Y69199D01*
X132107Y70139D01*
X131167Y70860D01*
X130072Y71313D01*
X128898Y71468D01*
D02*
G37*
G36*
X118898D02*
X117723Y71313D01*
X116628Y70860D01*
X115688Y70139D01*
X114967Y69199D01*
X114514Y68104D01*
X114359Y66929D01*
X114514Y65754D01*
X114967Y64660D01*
X115688Y63720D01*
X116628Y62998D01*
X117723Y62545D01*
X118898Y62390D01*
X120072Y62545D01*
X121167Y62998D01*
X122107Y63720D01*
X122828Y64660D01*
X123282Y65754D01*
X123436Y66929D01*
X123282Y68104D01*
X122828Y69199D01*
X122107Y70139D01*
X121167Y70860D01*
X120072Y71313D01*
X118898Y71468D01*
D02*
G37*
G36*
X108898D02*
X107723Y71313D01*
X106628Y70860D01*
X105688Y70139D01*
X104967Y69199D01*
X104514Y68104D01*
X104359Y66929D01*
X104514Y65754D01*
X104967Y64660D01*
X105688Y63720D01*
X106628Y62998D01*
X107723Y62545D01*
X108898Y62390D01*
X110072Y62545D01*
X111167Y62998D01*
X112107Y63720D01*
X112828Y64660D01*
X113282Y65754D01*
X113436Y66929D01*
X113282Y68104D01*
X112828Y69199D01*
X112107Y70139D01*
X111167Y70860D01*
X110072Y71313D01*
X108898Y71468D01*
D02*
G37*
G36*
X98898D02*
X97723Y71313D01*
X96628Y70860D01*
X95688Y70139D01*
X94967Y69199D01*
X94513Y68104D01*
X94359Y66929D01*
X94513Y65754D01*
X94967Y64660D01*
X95688Y63720D01*
X96628Y62998D01*
X97723Y62545D01*
X98898Y62390D01*
X100072Y62545D01*
X101167Y62998D01*
X102107Y63720D01*
X102828Y64660D01*
X103282Y65754D01*
X103437Y66929D01*
X103282Y68104D01*
X102828Y69199D01*
X102107Y70139D01*
X101167Y70860D01*
X100072Y71313D01*
X98898Y71468D01*
D02*
G37*
G36*
X88898D02*
X87723Y71313D01*
X86628Y70860D01*
X85688Y70139D01*
X84967Y69199D01*
X84513Y68104D01*
X84359Y66929D01*
X84513Y65754D01*
X84967Y64660D01*
X85688Y63720D01*
X86628Y62998D01*
X87723Y62545D01*
X88898Y62390D01*
X90072Y62545D01*
X91167Y62998D01*
X92107Y63720D01*
X92828Y64660D01*
X93282Y65754D01*
X93436Y66929D01*
X93282Y68104D01*
X92828Y69199D01*
X92107Y70139D01*
X91167Y70860D01*
X90072Y71313D01*
X88898Y71468D01*
D02*
G37*
G36*
X78898D02*
X77723Y71313D01*
X76628Y70860D01*
X75688Y70139D01*
X74967Y69199D01*
X74514Y68104D01*
X74359Y66929D01*
X74514Y65754D01*
X74967Y64660D01*
X75688Y63720D01*
X76628Y62998D01*
X77723Y62545D01*
X78898Y62390D01*
X80072Y62545D01*
X81167Y62998D01*
X82107Y63720D01*
X82828Y64660D01*
X83282Y65754D01*
X83437Y66929D01*
X83282Y68104D01*
X82828Y69199D01*
X82107Y70139D01*
X81167Y70860D01*
X80072Y71313D01*
X78898Y71468D01*
D02*
G37*
G36*
X68898D02*
X67723Y71313D01*
X66628Y70860D01*
X65688Y70139D01*
X64967Y69199D01*
X64513Y68104D01*
X64359Y66929D01*
X64513Y65754D01*
X64967Y64660D01*
X65688Y63720D01*
X66628Y62998D01*
X67723Y62545D01*
X68898Y62390D01*
X70072Y62545D01*
X71167Y62998D01*
X72107Y63720D01*
X72828Y64660D01*
X73282Y65754D01*
X73436Y66929D01*
X73282Y68104D01*
X72828Y69199D01*
X72107Y70139D01*
X71167Y70860D01*
X70072Y71313D01*
X68898Y71468D01*
D02*
G37*
G36*
X158898Y61468D02*
X157723Y61313D01*
X156628Y60860D01*
X155688Y60139D01*
X154967Y59198D01*
X154660Y58459D01*
X153135D01*
X152828Y59198D01*
X152107Y60139D01*
X151167Y60860D01*
X150072Y61313D01*
X148898Y61468D01*
X147723Y61313D01*
X146628Y60860D01*
X145688Y60139D01*
X144967Y59198D01*
X144660Y58459D01*
X143135D01*
X142828Y59198D01*
X142107Y60139D01*
X141167Y60860D01*
X140072Y61313D01*
X138898Y61468D01*
X137723Y61313D01*
X136628Y60860D01*
X135688Y60139D01*
X134967Y59198D01*
X134660Y58459D01*
X133135D01*
X132828Y59198D01*
X132107Y60139D01*
X131167Y60860D01*
X130072Y61313D01*
X128898Y61468D01*
X127723Y61313D01*
X126628Y60860D01*
X125688Y60139D01*
X124967Y59198D01*
X124660Y58459D01*
X123135D01*
X122828Y59198D01*
X122107Y60139D01*
X121167Y60860D01*
X120072Y61313D01*
X118898Y61468D01*
X117723Y61313D01*
X116628Y60860D01*
X115688Y60139D01*
X114967Y59198D01*
X114660Y58459D01*
X113135D01*
X112828Y59198D01*
X112107Y60139D01*
X111167Y60860D01*
X110072Y61313D01*
X108898Y61468D01*
X107723Y61313D01*
X106628Y60860D01*
X105688Y60139D01*
X104967Y59198D01*
X104660Y58459D01*
X103135D01*
X102828Y59198D01*
X102107Y60139D01*
X101167Y60860D01*
X100072Y61313D01*
X98898Y61468D01*
X97723Y61313D01*
X96628Y60860D01*
X95688Y60139D01*
X94967Y59198D01*
X94660Y58459D01*
X93135D01*
X92828Y59198D01*
X92107Y60139D01*
X91167Y60860D01*
X90072Y61313D01*
X88898Y61468D01*
X87723Y61313D01*
X86628Y60860D01*
X85688Y60139D01*
X84967Y59198D01*
X84660Y58459D01*
X83135D01*
X82828Y59198D01*
X82107Y60139D01*
X81167Y60860D01*
X80072Y61313D01*
X78898Y61468D01*
X77723Y61313D01*
X76628Y60860D01*
X75688Y60139D01*
X74967Y59198D01*
X74514Y58104D01*
X74359Y56929D01*
X74514Y55754D01*
X74967Y54660D01*
X75688Y53720D01*
X76628Y52998D01*
X77723Y52545D01*
X78898Y52390D01*
X80072Y52545D01*
X81167Y52998D01*
X82107Y53720D01*
X82828Y54660D01*
X83135Y55400D01*
X84660D01*
X84967Y54660D01*
X85688Y53720D01*
X86628Y52998D01*
X87723Y52545D01*
X88898Y52390D01*
X90072Y52545D01*
X91167Y52998D01*
X92107Y53720D01*
X92828Y54660D01*
X93135Y55400D01*
X94660D01*
X94967Y54660D01*
X95688Y53720D01*
X96628Y52998D01*
X97723Y52545D01*
X98898Y52390D01*
X100072Y52545D01*
X101167Y52998D01*
X102107Y53720D01*
X102828Y54660D01*
X103135Y55400D01*
X104660D01*
X104967Y54660D01*
X105688Y53720D01*
X106628Y52998D01*
X107723Y52545D01*
X108898Y52390D01*
X110072Y52545D01*
X111167Y52998D01*
X112107Y53720D01*
X112828Y54660D01*
X113135Y55400D01*
X114660D01*
X114967Y54660D01*
X115688Y53720D01*
X116628Y52998D01*
X117723Y52545D01*
X118898Y52390D01*
X120072Y52545D01*
X121167Y52998D01*
X122107Y53720D01*
X122828Y54660D01*
X123135Y55400D01*
X124660D01*
X124967Y54660D01*
X125688Y53720D01*
X126628Y52998D01*
X127723Y52545D01*
X128898Y52390D01*
X130072Y52545D01*
X131167Y52998D01*
X132107Y53720D01*
X132828Y54660D01*
X133135Y55400D01*
X134660D01*
X134967Y54660D01*
X135688Y53720D01*
X136628Y52998D01*
X137723Y52545D01*
X138898Y52390D01*
X140072Y52545D01*
X141167Y52998D01*
X142107Y53720D01*
X142828Y54660D01*
X143135Y55400D01*
X144660D01*
X144967Y54660D01*
X145688Y53720D01*
X146628Y52998D01*
X147723Y52545D01*
X148898Y52390D01*
X150072Y52545D01*
X151167Y52998D01*
X152107Y53720D01*
X152828Y54660D01*
X153135Y55400D01*
X154660D01*
X154967Y54660D01*
X155688Y53720D01*
X156628Y52998D01*
X157723Y52545D01*
X158898Y52390D01*
X160072Y52545D01*
X161167Y52998D01*
X162107Y53720D01*
X162828Y54660D01*
X163282Y55754D01*
X163436Y56929D01*
X163282Y58104D01*
X162828Y59198D01*
X162107Y60139D01*
X161167Y60860D01*
X160072Y61313D01*
X158898Y61468D01*
D02*
G37*
G36*
X181898Y69561D02*
X180604Y69434D01*
X179360Y69056D01*
X178213Y68443D01*
X177208Y67619D01*
X176383Y66614D01*
X175770Y65467D01*
X175393Y64223D01*
X175266Y62929D01*
X175393Y61635D01*
X175770Y60391D01*
X176383Y59245D01*
X177208Y58240D01*
X178213Y57415D01*
X179360Y56802D01*
X180604Y56425D01*
X181898Y56297D01*
X183192Y56425D01*
X184436Y56802D01*
X185582Y57415D01*
X186587Y58240D01*
X187412Y59245D01*
X188025Y60391D01*
X188402Y61635D01*
X188530Y62929D01*
X188402Y64223D01*
X188025Y65467D01*
X187412Y66614D01*
X186587Y67619D01*
X185582Y68443D01*
X184436Y69056D01*
X183192Y69434D01*
X181898Y69561D01*
D02*
G37*
G36*
X45898D02*
X44604Y69434D01*
X43360Y69056D01*
X42213Y68443D01*
X41208Y67619D01*
X40383Y66614D01*
X39770Y65467D01*
X39393Y64223D01*
X39266Y62929D01*
X39393Y61635D01*
X39770Y60391D01*
X40383Y59245D01*
X41208Y58240D01*
X42213Y57415D01*
X43360Y56802D01*
X44604Y56425D01*
X45898Y56297D01*
X47192Y56425D01*
X48436Y56802D01*
X49582Y57415D01*
X50587Y58240D01*
X51412Y59245D01*
X52025Y60391D01*
X52402Y61635D01*
X52530Y62929D01*
X52402Y64223D01*
X52025Y65467D01*
X51412Y66614D01*
X50587Y67619D01*
X49582Y68443D01*
X48436Y69056D01*
X47192Y69434D01*
X45898Y69561D01*
D02*
G37*
G36*
X68898Y61468D02*
X67723Y61313D01*
X66628Y60860D01*
X65688Y60139D01*
X64967Y59198D01*
X64513Y58104D01*
X64359Y56929D01*
X64513Y55754D01*
X64967Y54660D01*
X65688Y53720D01*
X66628Y52998D01*
X67723Y52545D01*
X68898Y52390D01*
X70072Y52545D01*
X71167Y52998D01*
X72107Y53720D01*
X72828Y54660D01*
X73282Y55754D01*
X73436Y56929D01*
X73282Y58104D01*
X72828Y59198D01*
X72107Y60139D01*
X71167Y60860D01*
X70072Y61313D01*
X68898Y61468D01*
D02*
G37*
G36*
X180421Y45108D02*
Y43413D01*
X182116D01*
X182041Y43791D01*
X181543Y44536D01*
X180799Y45033D01*
X180421Y45108D01*
D02*
G37*
G36*
X179421D02*
X179043Y45033D01*
X178299Y44536D01*
X177802Y43791D01*
X177727Y43413D01*
X179421D01*
Y45108D01*
D02*
G37*
G36*
X238846Y45559D02*
Y41839D01*
X242567D01*
X242487Y42448D01*
X242059Y43482D01*
X241378Y44370D01*
X240490Y45051D01*
X239456Y45479D01*
X238846Y45559D01*
D02*
G37*
G36*
X237846D02*
X237237Y45479D01*
X236203Y45051D01*
X235315Y44370D01*
X234634Y43482D01*
X234206Y42448D01*
X234126Y41839D01*
X237846D01*
Y45559D01*
D02*
G37*
G36*
X182116Y42413D02*
X180421D01*
Y40719D01*
X180799Y40794D01*
X181543Y41291D01*
X182041Y42035D01*
X182116Y42413D01*
D02*
G37*
G36*
X179421D02*
X177727D01*
X177802Y42035D01*
X178299Y41291D01*
X179043Y40794D01*
X179421Y40719D01*
Y42413D01*
D02*
G37*
G36*
X242567Y40839D02*
X238846D01*
Y37118D01*
X239456Y37198D01*
X240490Y37626D01*
X241378Y38307D01*
X242059Y39195D01*
X242487Y40229D01*
X242567Y40839D01*
D02*
G37*
G36*
X237846D02*
X234126D01*
X234206Y40229D01*
X234634Y39195D01*
X235315Y38307D01*
X236203Y37626D01*
X237237Y37198D01*
X237846Y37118D01*
Y40839D01*
D02*
G37*
G36*
X218347Y45625D02*
X217237Y45479D01*
X216203Y45051D01*
X215315Y44370D01*
X214634Y43482D01*
X214206Y42448D01*
X214060Y41339D01*
X214206Y40229D01*
X214634Y39195D01*
X215315Y38307D01*
X216203Y37626D01*
X217237Y37198D01*
X218347Y37052D01*
X219456Y37198D01*
X220490Y37626D01*
X221378Y38307D01*
X222059Y39195D01*
X222487Y40229D01*
X222633Y41339D01*
X222487Y42448D01*
X222059Y43482D01*
X221378Y44370D01*
X220490Y45051D01*
X219456Y45479D01*
X218347Y45625D01*
D02*
G37*
G36*
X228346D02*
X227237Y45479D01*
X226203Y45051D01*
X225315Y44370D01*
X224634Y43482D01*
X224206Y42448D01*
X224060Y41339D01*
X224206Y40229D01*
X224634Y39195D01*
X225315Y38307D01*
X226203Y37626D01*
X226817Y37372D01*
Y34532D01*
X226317Y34416D01*
X225490Y35051D01*
X224456Y35479D01*
X223346Y35625D01*
X222237Y35479D01*
X221203Y35051D01*
X220315Y34370D01*
X219634Y33482D01*
X219206Y32448D01*
X219060Y31339D01*
X219206Y30229D01*
X219634Y29195D01*
X220315Y28308D01*
X221203Y27626D01*
X221817Y27372D01*
Y22011D01*
X214026Y14220D01*
X213870Y14324D01*
X212992Y14499D01*
X212114Y14324D01*
X211370Y13827D01*
X210873Y13083D01*
X210698Y12205D01*
X210873Y11327D01*
X211370Y10583D01*
X212114Y10085D01*
X212992Y9911D01*
X213870Y10085D01*
X214614Y10583D01*
X214753Y10791D01*
X214758Y10792D01*
X215255Y11123D01*
X224428Y20297D01*
X224759Y20793D01*
X224876Y21378D01*
Y27372D01*
X225490Y27626D01*
X226317Y28261D01*
X226817Y28145D01*
Y14019D01*
X225963Y13165D01*
X225197Y13318D01*
X224319Y13143D01*
X223575Y12646D01*
X223077Y11902D01*
X222903Y11024D01*
X223077Y10146D01*
X223575Y9402D01*
X224319Y8904D01*
X225197Y8730D01*
X226075Y8904D01*
X226819Y9402D01*
X227316Y10146D01*
X227328Y10204D01*
X229428Y12304D01*
X229759Y12801D01*
X229876Y13386D01*
Y28145D01*
X230376Y28261D01*
X231203Y27626D01*
X232237Y27198D01*
X233347Y27052D01*
X234456Y27198D01*
X235490Y27626D01*
X236378Y28308D01*
X237059Y29195D01*
X237487Y30229D01*
X237633Y31339D01*
X237487Y32448D01*
X237059Y33482D01*
X236378Y34370D01*
X235490Y35051D01*
X234456Y35479D01*
X233347Y35625D01*
X232237Y35479D01*
X231203Y35051D01*
X230376Y34416D01*
X229876Y34532D01*
Y37372D01*
X230490Y37626D01*
X231378Y38307D01*
X232059Y39195D01*
X232487Y40229D01*
X232633Y41339D01*
X232487Y42448D01*
X232059Y43482D01*
X231378Y44370D01*
X230490Y45051D01*
X229456Y45479D01*
X228346Y45625D01*
D02*
G37*
G36*
X144004Y35856D02*
Y34161D01*
X145698D01*
X145623Y34539D01*
X145126Y35284D01*
X144382Y35781D01*
X144004Y35856D01*
D02*
G37*
G36*
X143004D02*
X142626Y35781D01*
X141882Y35284D01*
X141384Y34539D01*
X141309Y34161D01*
X143004D01*
Y35856D01*
D02*
G37*
G36*
X130003D02*
Y34161D01*
X131697D01*
X131622Y34539D01*
X131125Y35284D01*
X130381Y35781D01*
X130003Y35856D01*
D02*
G37*
G36*
X129003D02*
X128625Y35781D01*
X127881Y35284D01*
X127383Y34539D01*
X127308Y34161D01*
X129003D01*
Y35856D01*
D02*
G37*
G36*
X116002D02*
Y34161D01*
X117697D01*
X117621Y34539D01*
X117124Y35284D01*
X116380Y35781D01*
X116002Y35856D01*
D02*
G37*
G36*
X115002D02*
X114624Y35781D01*
X113880Y35284D01*
X113382Y34539D01*
X113307Y34161D01*
X115002D01*
Y35856D01*
D02*
G37*
G36*
X102001D02*
Y34161D01*
X103696D01*
X103620Y34539D01*
X103123Y35284D01*
X102379Y35781D01*
X102001Y35856D01*
D02*
G37*
G36*
X101001D02*
X100623Y35781D01*
X99879Y35284D01*
X99382Y34539D01*
X99306Y34161D01*
X101001D01*
Y35856D01*
D02*
G37*
G36*
X88000D02*
Y34161D01*
X89695D01*
X89619Y34539D01*
X89122Y35284D01*
X88378Y35781D01*
X88000Y35856D01*
D02*
G37*
G36*
X87000D02*
X86622Y35781D01*
X85878Y35284D01*
X85381Y34539D01*
X85305Y34161D01*
X87000D01*
Y35856D01*
D02*
G37*
G36*
X73999D02*
Y34161D01*
X75694D01*
X75618Y34539D01*
X75121Y35284D01*
X74377Y35781D01*
X73999Y35856D01*
D02*
G37*
G36*
X72999D02*
X72621Y35781D01*
X71877Y35284D01*
X71380Y34539D01*
X71304Y34161D01*
X72999D01*
Y35856D01*
D02*
G37*
G36*
X59998D02*
Y34161D01*
X61693D01*
X61617Y34539D01*
X61120Y35284D01*
X60376Y35781D01*
X59998Y35856D01*
D02*
G37*
G36*
X58998D02*
X58620Y35781D01*
X57876Y35284D01*
X57379Y34539D01*
X57303Y34161D01*
X58998D01*
Y35856D01*
D02*
G37*
G36*
X45997D02*
Y34161D01*
X47692D01*
X47616Y34539D01*
X47119Y35284D01*
X46375Y35781D01*
X45997Y35856D01*
D02*
G37*
G36*
X44997D02*
X44619Y35781D01*
X43875Y35284D01*
X43378Y34539D01*
X43302Y34161D01*
X44997D01*
Y35856D01*
D02*
G37*
G36*
X31996D02*
Y34161D01*
X33691D01*
X33615Y34539D01*
X33118Y35284D01*
X32374Y35781D01*
X31996Y35856D01*
D02*
G37*
G36*
X30996D02*
X30618Y35781D01*
X29874Y35284D01*
X29377Y34539D01*
X29301Y34161D01*
X30996D01*
Y35856D01*
D02*
G37*
G36*
X145698Y33161D02*
X144004D01*
Y31467D01*
X144382Y31542D01*
X145126Y32039D01*
X145623Y32783D01*
X145698Y33161D01*
D02*
G37*
G36*
X143004D02*
X141309D01*
X141384Y32783D01*
X141882Y32039D01*
X142626Y31542D01*
X143004Y31467D01*
Y33161D01*
D02*
G37*
G36*
X131697D02*
X130003D01*
Y31467D01*
X130381Y31542D01*
X131125Y32039D01*
X131622Y32783D01*
X131697Y33161D01*
D02*
G37*
G36*
X129003D02*
X127308D01*
X127383Y32783D01*
X127881Y32039D01*
X128625Y31542D01*
X129003Y31467D01*
Y33161D01*
D02*
G37*
G36*
X117697D02*
X116002D01*
Y31467D01*
X116380Y31542D01*
X117124Y32039D01*
X117621Y32783D01*
X117697Y33161D01*
D02*
G37*
G36*
X115002D02*
X113307D01*
X113382Y32783D01*
X113880Y32039D01*
X114624Y31542D01*
X115002Y31467D01*
Y33161D01*
D02*
G37*
G36*
X103696D02*
X102001D01*
Y31467D01*
X102379Y31542D01*
X103123Y32039D01*
X103620Y32783D01*
X103696Y33161D01*
D02*
G37*
G36*
X101001D02*
X99306D01*
X99382Y32783D01*
X99879Y32039D01*
X100623Y31542D01*
X101001Y31467D01*
Y33161D01*
D02*
G37*
G36*
X89695D02*
X88000D01*
Y31467D01*
X88378Y31542D01*
X89122Y32039D01*
X89619Y32783D01*
X89695Y33161D01*
D02*
G37*
G36*
X87000D02*
X85305D01*
X85381Y32783D01*
X85878Y32039D01*
X86622Y31542D01*
X87000Y31467D01*
Y33161D01*
D02*
G37*
G36*
X75694D02*
X73999D01*
Y31467D01*
X74377Y31542D01*
X75121Y32039D01*
X75618Y32783D01*
X75694Y33161D01*
D02*
G37*
G36*
X72999D02*
X71304D01*
X71380Y32783D01*
X71877Y32039D01*
X72621Y31542D01*
X72999Y31467D01*
Y33161D01*
D02*
G37*
G36*
X61693D02*
X59998D01*
Y31467D01*
X60376Y31542D01*
X61120Y32039D01*
X61617Y32783D01*
X61693Y33161D01*
D02*
G37*
G36*
X58998D02*
X57303D01*
X57379Y32783D01*
X57876Y32039D01*
X58620Y31542D01*
X58998Y31467D01*
Y33161D01*
D02*
G37*
G36*
X47692D02*
X45997D01*
Y31467D01*
X46375Y31542D01*
X47119Y32039D01*
X47616Y32783D01*
X47692Y33161D01*
D02*
G37*
G36*
X44997D02*
X43302D01*
X43378Y32783D01*
X43875Y32039D01*
X44619Y31542D01*
X44997Y31467D01*
Y33161D01*
D02*
G37*
G36*
X33691D02*
X31996D01*
Y31467D01*
X32374Y31542D01*
X33118Y32039D01*
X33615Y32783D01*
X33691Y33161D01*
D02*
G37*
G36*
X30996D02*
X29301D01*
X29377Y32783D01*
X29874Y32039D01*
X30618Y31542D01*
X30996Y31467D01*
Y33161D01*
D02*
G37*
G36*
X243347Y35625D02*
X242237Y35479D01*
X241203Y35051D01*
X240315Y34370D01*
X239634Y33482D01*
X239206Y32448D01*
X239060Y31339D01*
X239206Y30229D01*
X239634Y29195D01*
X240315Y28308D01*
X241203Y27626D01*
X242237Y27198D01*
X243347Y27052D01*
X244456Y27198D01*
X245490Y27626D01*
X246378Y28308D01*
X247059Y29195D01*
X247487Y30229D01*
X247633Y31339D01*
X247487Y32448D01*
X247059Y33482D01*
X246378Y34370D01*
X245490Y35051D01*
X244456Y35479D01*
X243347Y35625D01*
D02*
G37*
G36*
X243413Y10856D02*
Y9161D01*
X245108D01*
X245033Y9539D01*
X244536Y10284D01*
X243791Y10781D01*
X243413Y10856D01*
D02*
G37*
G36*
X242413D02*
X242036Y10781D01*
X241291Y10284D01*
X240794Y9539D01*
X240719Y9161D01*
X242413D01*
Y10856D01*
D02*
G37*
G36*
X195382Y10069D02*
Y8374D01*
X197076D01*
X197001Y8752D01*
X196504Y9496D01*
X195760Y9994D01*
X195382Y10069D01*
D02*
G37*
G36*
X194382D02*
X194004Y9994D01*
X193260Y9496D01*
X192762Y8752D01*
X192687Y8374D01*
X194382D01*
Y10069D01*
D02*
G37*
G36*
X245108Y8161D02*
X243413D01*
Y6467D01*
X243791Y6542D01*
X244536Y7039D01*
X245033Y7784D01*
X245108Y8161D01*
D02*
G37*
G36*
X242413D02*
X240719D01*
X240794Y7784D01*
X241291Y7039D01*
X242036Y6542D01*
X242413Y6467D01*
Y8161D01*
D02*
G37*
G36*
X197076Y7374D02*
X195382D01*
Y5679D01*
X195760Y5755D01*
X196504Y6252D01*
X197001Y6996D01*
X197076Y7374D01*
D02*
G37*
G36*
X194382D02*
X192687D01*
X192762Y6996D01*
X193260Y6252D01*
X194004Y5755D01*
X194382Y5679D01*
Y7374D01*
D02*
G37*
%LPD*%
D12*
X225197Y11024D02*
X225984D01*
X228346Y13386D01*
Y41339D01*
X148898Y56929D02*
X158898D01*
X138898D02*
X148898D01*
X128898D02*
X138898D01*
X118898D02*
X128898D01*
X108898D02*
X118898D01*
X98898D02*
X108898D01*
X88898D02*
X98898D01*
X78898D02*
X88898D01*
X223346Y21378D02*
Y31339D01*
X214173Y12205D02*
X223346Y21378D01*
X212992Y12205D02*
X214173D01*
D29*
X218347Y41339D02*
D03*
X228346D02*
D03*
X238347D02*
D03*
X223346Y31339D02*
D03*
X233347D02*
D03*
X243347D02*
D03*
D30*
X68898Y66929D02*
D03*
Y56929D02*
D03*
X78898D02*
D03*
X88898D02*
D03*
X98898D02*
D03*
X108898D02*
D03*
X118898D02*
D03*
X128898D02*
D03*
X138898D02*
D03*
X148898D02*
D03*
X158898D02*
D03*
X78898Y66929D02*
D03*
X88898D02*
D03*
X98898D02*
D03*
X108898D02*
D03*
X118898D02*
D03*
X128898D02*
D03*
X138898D02*
D03*
X148898D02*
D03*
X158898D02*
D03*
D31*
X273622Y61024D02*
D03*
Y13780D02*
D03*
X13780D02*
D03*
Y61024D02*
D03*
D32*
X225197Y11024D02*
D03*
X242913Y8661D02*
D03*
X179921Y42913D02*
D03*
X31496Y33661D02*
D03*
X45497D02*
D03*
X59498D02*
D03*
X73499D02*
D03*
X87500D02*
D03*
X101501D02*
D03*
X115502D02*
D03*
X129503D02*
D03*
X194882Y7874D02*
D03*
X212992Y12205D02*
D03*
X143504Y33661D02*
D03*
M02*
