G04*
G04 #@! TF.GenerationSoftware,Altium Limited,Altium Designer,18.0.7 (293)*
G04*
G04 Layer_Physical_Order=1*
G04 Layer_Color=255*
%FSLAX25Y25*%
%MOIN*%
G70*
G01*
G75*
%ADD12C,0.01000*%
%ADD16R,0.05512X0.04724*%
%ADD17O,0.01378X0.05709*%
%ADD18R,0.04331X0.05512*%
%ADD19R,0.05512X0.04331*%
%ADD29C,0.06500*%
%ADD30C,0.07000*%
%ADD31C,0.23622*%
%ADD32C,0.02500*%
D12*
X207087Y12008D02*
X212795D01*
X200203Y5124D02*
X207087Y12008D01*
X219291D02*
X224213D01*
X210749Y3124D02*
X219291Y11666D01*
X233268Y8661D02*
X242913D01*
X94807Y45768D02*
Y47170D01*
X188976Y27559D02*
X191339Y29921D01*
X182854Y38169D02*
X186221D01*
X188976Y11811D02*
Y21063D01*
X219291Y11666D02*
Y12008D01*
X228740Y14961D02*
X233268D01*
X224213Y12008D02*
X225197Y11024D01*
X186221Y38169D02*
X189744Y34646D01*
X191339D01*
Y29921D02*
Y34646D01*
X196850Y26575D02*
Y46260D01*
X188976Y54134D02*
X196850Y46260D01*
X189370Y42913D02*
X191339Y40945D01*
X179921Y42913D02*
X189370D01*
X45600Y53248D02*
X53150D01*
X158898Y56929D02*
X161693Y54134D01*
X148898Y65310D02*
Y66929D01*
X62425Y2535D02*
X165917D01*
X73220Y4535D02*
X165089D01*
X85000Y6535D02*
X164260D01*
X53150Y53248D02*
X61831Y61929D01*
X73898D01*
X78898Y66929D01*
X93898Y53445D02*
Y59000D01*
X113898Y61929D02*
X118898Y66929D01*
X106827Y61929D02*
X113898D01*
X123898D02*
X128898Y66929D01*
X133898Y54075D02*
Y59000D01*
X143898Y59252D02*
X146575Y61929D01*
X153898D02*
X158898Y66929D01*
X146575Y61929D02*
X153898D01*
X142638D02*
X147638Y66929D01*
X136827Y61929D02*
X142638D01*
X147638Y66929D02*
X148898D01*
X133898Y59000D02*
X136827Y61929D01*
X133898D02*
X138898Y66929D01*
X126726Y61929D02*
X133898D01*
X123898Y59101D02*
X126726Y61929D01*
X123898Y48194D02*
Y59101D01*
X103898Y61929D02*
X108898Y66929D01*
X96827Y61929D02*
X103898D01*
X93898Y59000D02*
X96827Y61929D01*
X93898D02*
X98898Y66929D01*
X86827Y61929D02*
X93898D01*
X83898Y59000D02*
X86827Y61929D01*
X83898Y54858D02*
Y59000D01*
Y61929D02*
X88898Y66929D01*
X76827Y61929D02*
X83898D01*
X73898Y59000D02*
X76827Y61929D01*
X73898Y54858D02*
Y59000D01*
X103898D02*
X106827Y61929D01*
X103898Y54858D02*
Y59000D01*
X116827Y61929D02*
X123898D01*
X113898Y59000D02*
X116827Y61929D01*
X161693Y54134D02*
X188976D01*
X182854Y35433D02*
Y38169D01*
X182854Y11043D02*
X184055Y9843D01*
X187008D01*
X188976Y11811D01*
X182854Y11043D02*
X182854Y13976D01*
X233268Y14961D02*
X233347Y15039D01*
Y31339D01*
X166183Y40878D02*
X167854Y39206D01*
Y35433D02*
Y39206D01*
X167011Y42878D02*
X170354Y39535D01*
Y35433D02*
Y39535D01*
X167840Y44878D02*
X172854Y39863D01*
Y35433D02*
Y39863D01*
X168668Y46878D02*
X175354Y40192D01*
Y35433D02*
Y40192D01*
X160440Y46878D02*
X168668D01*
X154496Y40934D02*
X160440Y46878D01*
X161268Y44878D02*
X167840D01*
X156496Y40106D02*
X161268Y44878D01*
X162097Y42878D02*
X167011D01*
X162925Y40878D02*
X166183D01*
X165354Y35433D02*
Y38878D01*
X163754D02*
X165354D01*
X162496Y37620D02*
X163754Y38878D01*
X158496Y39277D02*
X162097Y42878D01*
X160496Y38449D02*
X162925Y40878D01*
X165354Y10458D02*
Y13976D01*
X177854Y10094D02*
Y13976D01*
X175354Y9765D02*
Y13976D01*
X180354Y10422D02*
Y13976D01*
Y10422D02*
X182934Y7842D01*
X189443Y7874D02*
X194882D01*
X181995Y3124D02*
X210749D01*
X182824Y5124D02*
X200203D01*
X177854Y10094D02*
X182824Y5124D01*
X175354Y9765D02*
X181995Y3124D01*
X182934Y7842D02*
X189411D01*
X189443Y7874D01*
X165089Y4535D02*
X170354Y9801D01*
Y13976D01*
X165917Y2535D02*
X172854Y9473D01*
Y13976D01*
X164260Y6535D02*
X167854Y10130D01*
Y13976D01*
X212795Y12008D02*
X212992Y12205D01*
X225197Y18504D02*
X228740Y14961D01*
X207087Y18504D02*
X219291D01*
X193110D02*
X207087D01*
X189961Y21654D02*
X193110Y18504D01*
X191929Y21654D02*
X196850Y26575D01*
X188976Y21063D02*
X189567Y21654D01*
X189961D01*
X191929D01*
X37598Y27362D02*
X62425Y2535D01*
X37598Y27362D02*
Y27854D01*
X51575Y26181D02*
X73220Y4535D01*
X51575Y26181D02*
Y27854D01*
X65551Y25984D02*
X85000Y6535D01*
X65551Y25984D02*
Y27854D01*
X147976Y26421D02*
X149409Y27854D01*
X93504D02*
X110823Y10535D01*
X152755D01*
X107480Y27854D02*
X122799Y12535D01*
X151926D01*
X121457Y27854D02*
X134775Y14535D01*
X151098D01*
X135433Y27854D02*
X146752Y16535D01*
X150269D01*
X150949Y21394D02*
X152299D01*
X147976Y24366D02*
X150949Y21394D01*
X147976Y24366D02*
Y26421D01*
X31634Y33799D02*
Y38681D01*
X31496Y33661D02*
X31634Y33799D01*
X31496Y28051D02*
Y33661D01*
Y28051D02*
X31693Y27854D01*
X45669D02*
Y33489D01*
X45497Y33661D02*
X45669Y33489D01*
X45497Y33661D02*
Y38639D01*
X45455Y38681D02*
X45497Y38639D01*
X59498Y33661D02*
Y38459D01*
X59276Y38681D02*
X59498Y38459D01*
Y28002D02*
Y33661D01*
Y28002D02*
X59646Y27854D01*
X73499Y33661D02*
Y38280D01*
X73097Y38681D02*
X73499Y38280D01*
Y27977D02*
Y33661D01*
Y27977D02*
X73622Y27854D01*
X87500Y33661D02*
Y38100D01*
X86919Y38681D02*
X87500Y38100D01*
Y27953D02*
Y33661D01*
Y27953D02*
X87598Y27854D01*
X100740Y34422D02*
X101501Y33661D01*
X100740Y34422D02*
Y38681D01*
X101501Y27928D02*
Y33661D01*
Y27928D02*
X101575Y27854D01*
X115551D02*
Y33612D01*
X115502Y33661D02*
X115551Y33612D01*
X114561Y34602D02*
X115502Y33661D01*
X114561Y34602D02*
Y38681D01*
X129503Y33661D02*
Y37560D01*
X128382Y38681D02*
X129503Y37560D01*
Y27879D02*
Y33661D01*
Y27879D02*
X129527Y27854D01*
X142203Y34962D02*
Y38681D01*
Y34962D02*
X143504Y33661D01*
Y27854D02*
Y33661D01*
X143504Y27854D02*
X143504Y27854D01*
X152755Y10535D02*
X162496Y20277D01*
X151926Y12535D02*
X160496Y21105D01*
X151098Y14535D02*
X158496Y21934D01*
X150269Y16535D02*
X156496Y22762D01*
X152299Y21394D02*
X154496Y23591D01*
X162496Y20277D02*
Y37620D01*
X160496Y21105D02*
Y38449D01*
X158496Y21934D02*
Y39277D01*
X156496Y22762D02*
Y40106D01*
X154496Y23591D02*
Y40934D01*
X149409Y27854D02*
Y38386D01*
X149114Y38681D02*
X149409Y38386D01*
X135433Y27854D02*
Y38541D01*
X135293Y38681D02*
X135433Y38541D01*
X121457Y27854D02*
Y38666D01*
X121472Y38681D01*
X107480Y27854D02*
Y38511D01*
X107650Y38681D01*
X93504Y27854D02*
Y38356D01*
X93829Y38681D01*
X79527Y27854D02*
Y38201D01*
X80008Y38681D01*
X65551Y27854D02*
X66187Y28490D01*
Y38681D01*
X51575Y27854D02*
X52366Y28645D01*
Y38681D01*
X37598Y27854D02*
Y37735D01*
X38544Y38681D01*
X31634Y45768D02*
X38544D01*
X45455D02*
X52366D01*
X59276D02*
X66187D01*
X73097D02*
X80008D01*
X86919D02*
X93829D01*
X100740D02*
X107650D01*
X114561D02*
X121472D01*
X128382D02*
X135293D01*
X142203D02*
X149114D01*
X38544D02*
Y46193D01*
X45600Y53248D01*
X52366Y45768D02*
Y46975D01*
X70670Y51630D02*
X73898Y54858D01*
X57020Y51630D02*
X70670D01*
X52366Y46975D02*
X57020Y51630D01*
X66187Y45768D02*
Y46097D01*
X69720Y49630D01*
X80008Y46097D02*
X83541Y49630D01*
X80008Y45768D02*
Y46097D01*
X93829Y45768D02*
X94807D01*
X121472D02*
X123898Y48194D01*
X135293Y45768D02*
Y52680D01*
X133898Y54075D02*
X135293Y52680D01*
X94807Y47170D02*
X97268Y49630D01*
X98669D02*
X103898Y54858D01*
X83541Y49630D02*
X90083D01*
X93898Y53445D01*
X69720Y49630D02*
X78670D01*
X83898Y54858D01*
X97268Y49630D02*
X98669D01*
X107650Y45768D02*
Y46725D01*
X113898Y52972D01*
Y59000D01*
X143898Y52658D02*
Y59252D01*
Y52658D02*
X149114Y47441D01*
Y45768D02*
Y47441D01*
X219291Y18504D02*
X225197D01*
X163432Y8535D02*
X165354Y10458D01*
X79527Y27854D02*
X98846Y8535D01*
X163432D01*
D16*
X188976Y21063D02*
D03*
Y28150D02*
D03*
X38544Y38681D02*
D03*
Y45768D02*
D03*
X52366Y38681D02*
D03*
Y45768D02*
D03*
X66187Y38681D02*
D03*
Y45768D02*
D03*
X80008Y38681D02*
D03*
Y45768D02*
D03*
X93829Y38681D02*
D03*
Y45768D02*
D03*
X107650Y38681D02*
D03*
Y45768D02*
D03*
X121472Y38681D02*
D03*
Y45768D02*
D03*
X135293Y38681D02*
D03*
Y45768D02*
D03*
X149114Y38681D02*
D03*
Y45768D02*
D03*
X31634D02*
D03*
Y38681D02*
D03*
X45455Y45768D02*
D03*
Y38681D02*
D03*
X59276Y45768D02*
D03*
Y38681D02*
D03*
X73097Y45768D02*
D03*
Y38681D02*
D03*
X86919Y45768D02*
D03*
Y38681D02*
D03*
X100740Y45768D02*
D03*
Y38681D02*
D03*
X114561Y45768D02*
D03*
Y38681D02*
D03*
X128382Y45768D02*
D03*
Y38681D02*
D03*
X142203Y45768D02*
D03*
Y38681D02*
D03*
X207087Y18504D02*
D03*
Y11417D02*
D03*
X219291Y18504D02*
D03*
Y11417D02*
D03*
D17*
X182854Y35433D02*
D03*
X180354D02*
D03*
X177854D02*
D03*
X175354D02*
D03*
X172854D02*
D03*
X170354D02*
D03*
X167854D02*
D03*
X165354D02*
D03*
X182854Y13976D02*
D03*
X180354D02*
D03*
X177854D02*
D03*
X175354D02*
D03*
X172854D02*
D03*
X170354D02*
D03*
X167854D02*
D03*
X165354D02*
D03*
D18*
X37598Y27854D02*
D03*
X31693D02*
D03*
X51575D02*
D03*
X45669D02*
D03*
X65551D02*
D03*
X59646D02*
D03*
X79527D02*
D03*
X73622D02*
D03*
X93504D02*
D03*
X87598D02*
D03*
X107480D02*
D03*
X101575D02*
D03*
X121457D02*
D03*
X115551D02*
D03*
X135433D02*
D03*
X129527D02*
D03*
X149409D02*
D03*
X143504D02*
D03*
D19*
X191339Y40748D02*
D03*
Y34843D02*
D03*
X233268Y14764D02*
D03*
Y8858D02*
D03*
D29*
X218347Y41339D02*
D03*
X228346D02*
D03*
X238347D02*
D03*
X223346Y31339D02*
D03*
X233347D02*
D03*
X243347D02*
D03*
D30*
X68898Y66929D02*
D03*
Y56929D02*
D03*
X78898D02*
D03*
X88898D02*
D03*
X98898D02*
D03*
X108898D02*
D03*
X118898D02*
D03*
X128898D02*
D03*
X138898D02*
D03*
X148898D02*
D03*
X158898D02*
D03*
X78898Y66929D02*
D03*
X88898D02*
D03*
X98898D02*
D03*
X108898D02*
D03*
X118898D02*
D03*
X128898D02*
D03*
X138898D02*
D03*
X148898D02*
D03*
X158898D02*
D03*
D31*
X273622Y61024D02*
D03*
Y13780D02*
D03*
X13780D02*
D03*
Y61024D02*
D03*
D32*
X225197Y11024D02*
D03*
X242913Y8661D02*
D03*
X179921Y42913D02*
D03*
X31496Y33661D02*
D03*
X45497D02*
D03*
X59498D02*
D03*
X73499D02*
D03*
X87500D02*
D03*
X101501D02*
D03*
X115502D02*
D03*
X129503D02*
D03*
X194882Y7874D02*
D03*
X212992Y12205D02*
D03*
X143504Y33661D02*
D03*
M02*
