G04*
G04 #@! TF.GenerationSoftware,Altium Limited,Altium Designer,18.0.7 (293)*
G04*
G04 Layer_Color=128*
%FSLAX25Y25*%
%MOIN*%
G70*
G01*
G75*
%ADD33C,0.00200*%
D33*
X216547Y41339D02*
X220146D01*
X218347Y39539D02*
Y43139D01*
X226547Y41339D02*
X230147D01*
X228346Y39539D02*
Y43139D01*
X236546Y41339D02*
X240146D01*
X238347Y39539D02*
Y43139D01*
X221547Y31339D02*
X225147D01*
X223346Y29539D02*
Y33139D01*
X231546Y31339D02*
X235146D01*
X233347Y29539D02*
Y33139D01*
X241547Y31339D02*
X245146D01*
X243347Y29539D02*
Y33139D01*
X204447Y66339D02*
X217247D01*
X210846Y59939D02*
Y72739D01*
X244446Y66339D02*
X257246D01*
X250847Y59939D02*
Y72739D01*
X66898Y66929D02*
X70898D01*
X68898Y64929D02*
Y68929D01*
X66898Y56929D02*
X70898D01*
X68898Y54929D02*
Y58929D01*
X76898Y56929D02*
X80898D01*
X78898Y54929D02*
Y58929D01*
X86898Y56929D02*
X90898D01*
X88898Y54929D02*
Y58929D01*
X96898Y56929D02*
X100898D01*
X98898Y54929D02*
Y58929D01*
X106898Y56929D02*
X110898D01*
X108898Y54929D02*
Y58929D01*
X116898Y56929D02*
X120898D01*
X118898Y54929D02*
Y58929D01*
X126898Y56929D02*
X130898D01*
X128898Y54929D02*
Y58929D01*
X136898Y56929D02*
X140898D01*
X138898Y54929D02*
Y58929D01*
X146898Y56929D02*
X150898D01*
X148898Y54929D02*
Y58929D01*
X156898Y56929D02*
X160898D01*
X158898Y54929D02*
Y58929D01*
X76898Y66929D02*
X80898D01*
X78898Y64929D02*
Y68929D01*
X86898Y66929D02*
X90898D01*
X88898Y64929D02*
Y68929D01*
X96898Y66929D02*
X100898D01*
X98898Y64929D02*
Y68929D01*
X106898Y66929D02*
X110898D01*
X108898Y64929D02*
Y68929D01*
X116898Y66929D02*
X120898D01*
X118898Y64929D02*
Y68929D01*
X126898Y66929D02*
X130898D01*
X128898Y64929D02*
Y68929D01*
X136898Y66929D02*
X140898D01*
X138898Y64929D02*
Y68929D01*
X146898Y66929D02*
X150898D01*
X148898Y64929D02*
Y68929D01*
X156898Y66929D02*
X160898D01*
X158898Y64929D02*
Y68929D01*
X176298Y62929D02*
X187498D01*
X181898Y57329D02*
Y68529D01*
X40298Y62929D02*
X51498D01*
X45898Y57329D02*
Y68529D01*
X268209Y61024D02*
X279035D01*
X273622Y55610D02*
Y66437D01*
X268209Y13780D02*
X279035D01*
X273622Y8366D02*
Y19193D01*
X8366Y13780D02*
X19193D01*
X13780Y8366D02*
Y19193D01*
X8366Y61024D02*
X19193D01*
X13780Y55610D02*
Y66437D01*
X224606Y11024D02*
X225787D01*
X225197Y10433D02*
Y11614D01*
X242323Y8661D02*
X243504D01*
X242913Y8071D02*
Y9252D01*
X179331Y42913D02*
X180512D01*
X179921Y42323D02*
Y43504D01*
X30906Y33661D02*
X32087D01*
X31496Y33071D02*
Y34252D01*
X44906Y33661D02*
X46088D01*
X45497Y33071D02*
Y34252D01*
X58908Y33661D02*
X60089D01*
X59498Y33071D02*
Y34252D01*
X72909Y33661D02*
X74089D01*
X73499Y33071D02*
Y34252D01*
X86909Y33661D02*
X88090D01*
X87500Y33071D02*
Y34252D01*
X100910Y33661D02*
X102092D01*
X101501Y33071D02*
Y34252D01*
X114911Y33661D02*
X116093D01*
X115502Y33071D02*
Y34252D01*
X128912Y33661D02*
X130094D01*
X129503Y33071D02*
Y34252D01*
X194291Y7874D02*
X195472D01*
X194882Y7283D02*
Y8465D01*
X212402Y12205D02*
X213583D01*
X212992Y11614D02*
Y12795D01*
X142913Y33661D02*
X144095D01*
X143504Y33071D02*
Y34252D01*
M02*
