G04*
G04 #@! TF.GenerationSoftware,Altium Limited,Altium Designer,18.0.7 (293)*
G04*
G04 Layer_Color=16711935*
%FSLAX25Y25*%
%MOIN*%
G70*
G01*
G75*
%ADD14C,0.00394*%
D14*
X186221Y20374D02*
Y28839D01*
X191732Y20374D02*
Y28839D01*
X186221Y20374D02*
X191732D01*
X186221Y28839D02*
X191732D01*
X35789Y37992D02*
Y46457D01*
X41300Y37992D02*
Y46457D01*
X35789Y37992D02*
X41300D01*
X35789Y46457D02*
X41300D01*
X49610Y37992D02*
Y46457D01*
X55122Y37992D02*
Y46457D01*
X49610Y37992D02*
X55122D01*
X49610Y46457D02*
X55122D01*
X63431Y37992D02*
Y46457D01*
X68943Y37992D02*
Y46457D01*
X63431Y37992D02*
X68943D01*
X63431Y46457D02*
X68943D01*
X77252Y37992D02*
Y46457D01*
X82764Y37992D02*
Y46457D01*
X77252Y37992D02*
X82764D01*
X77252Y46457D02*
X82764D01*
X91073Y37992D02*
Y46457D01*
X96585Y37992D02*
Y46457D01*
X91073Y37992D02*
X96585D01*
X91073Y46457D02*
X96585D01*
X104894Y37992D02*
Y46457D01*
X110406Y37992D02*
Y46457D01*
X104894Y37992D02*
X110406D01*
X104894Y46457D02*
X110406D01*
X118716Y37992D02*
Y46457D01*
X124227Y37992D02*
Y46457D01*
X118716Y37992D02*
X124227D01*
X118716Y46457D02*
X124227D01*
X132537Y37992D02*
Y46457D01*
X138049Y37992D02*
Y46457D01*
X132537Y37992D02*
X138049D01*
X132537Y46457D02*
X138049D01*
X146358Y37992D02*
Y46457D01*
X151870Y37992D02*
Y46457D01*
X146358Y37992D02*
X151870D01*
X146358Y46457D02*
X151870D01*
X34390Y37992D02*
Y46457D01*
X28878Y37992D02*
Y46457D01*
X34390D01*
X28878Y37992D02*
X34390D01*
X48211D02*
Y46457D01*
X42699Y37992D02*
Y46457D01*
X48211D01*
X42699Y37992D02*
X48211D01*
X62032D02*
Y46457D01*
X56520Y37992D02*
Y46457D01*
X62032D01*
X56520Y37992D02*
X62032D01*
X75853D02*
Y46457D01*
X70341Y37992D02*
Y46457D01*
X75853D01*
X70341Y37992D02*
X75853D01*
X89675D02*
Y46457D01*
X84163Y37992D02*
Y46457D01*
X89675D01*
X84163Y37992D02*
X89675D01*
X103496D02*
Y46457D01*
X97984Y37992D02*
Y46457D01*
X103496D01*
X97984Y37992D02*
X103496D01*
X117317D02*
Y46457D01*
X111805Y37992D02*
Y46457D01*
X117317D01*
X111805Y37992D02*
X117317D01*
X131138D02*
Y46457D01*
X125626Y37992D02*
Y46457D01*
X131138D01*
X125626Y37992D02*
X131138D01*
X144959D02*
Y46457D01*
X139447Y37992D02*
Y46457D01*
X144959D01*
X139447Y37992D02*
X144959D01*
X209842Y10728D02*
Y19193D01*
X204331Y10728D02*
Y19193D01*
X209842D01*
X204331Y10728D02*
X209842D01*
X38976Y25000D02*
Y30709D01*
X30315Y25000D02*
Y30709D01*
Y25000D02*
X38976D01*
X30315Y30709D02*
X38976D01*
X52953Y25000D02*
Y30709D01*
X44291Y25000D02*
Y30709D01*
Y25000D02*
X52953D01*
X44291Y30709D02*
X52953D01*
X66929Y25000D02*
Y30709D01*
X58268Y25000D02*
Y30709D01*
Y25000D02*
X66929D01*
X58268Y30709D02*
X66929D01*
X80905Y25000D02*
Y30709D01*
X72244Y25000D02*
Y30709D01*
Y25000D02*
X80905D01*
X72244Y30709D02*
X80905D01*
X94882Y25000D02*
Y30709D01*
X86220Y25000D02*
Y30709D01*
Y25000D02*
X94882D01*
X86220Y30709D02*
X94882D01*
X108858Y25000D02*
Y30709D01*
X100197Y25000D02*
Y30709D01*
Y25000D02*
X108858D01*
X100197Y30709D02*
X108858D01*
X122835Y25000D02*
Y30709D01*
X114173Y25000D02*
Y30709D01*
Y25000D02*
X122835D01*
X114173Y30709D02*
X122835D01*
X136811Y25000D02*
Y30709D01*
X128149Y25000D02*
Y30709D01*
Y25000D02*
X136811D01*
X128149Y30709D02*
X136811D01*
X150787Y25000D02*
Y30709D01*
X142126Y25000D02*
Y30709D01*
Y25000D02*
X150787D01*
X142126Y30709D02*
X150787D01*
X188484Y42126D02*
X194193D01*
X188484Y33465D02*
X194193D01*
Y42126D01*
X188484Y33465D02*
Y42126D01*
X230413Y16142D02*
X236122D01*
X230413Y7480D02*
X236122D01*
Y16142D01*
X230413Y7480D02*
Y16142D01*
X222047Y10728D02*
Y19193D01*
X216535Y10728D02*
Y19193D01*
X222047D01*
X216535Y10728D02*
X222047D01*
M02*
