G04*
G04 #@! TF.GenerationSoftware,Altium Limited,Altium Designer,18.0.7 (293)*
G04*
G04 Layer_Color=8421504*
%FSLAX25Y25*%
%MOIN*%
G70*
G01*
G75*
%ADD16R,0.05512X0.04724*%
%ADD17O,0.01378X0.05709*%
%ADD18R,0.04331X0.05512*%
%ADD19R,0.05512X0.04331*%
D16*
X188976Y21063D02*
D03*
Y28150D02*
D03*
X38544Y38681D02*
D03*
Y45768D02*
D03*
X52366Y38681D02*
D03*
Y45768D02*
D03*
X66187Y38681D02*
D03*
Y45768D02*
D03*
X80008Y38681D02*
D03*
Y45768D02*
D03*
X93829Y38681D02*
D03*
Y45768D02*
D03*
X107650Y38681D02*
D03*
Y45768D02*
D03*
X121472Y38681D02*
D03*
Y45768D02*
D03*
X135293Y38681D02*
D03*
Y45768D02*
D03*
X149114Y38681D02*
D03*
Y45768D02*
D03*
X31634D02*
D03*
Y38681D02*
D03*
X45455Y45768D02*
D03*
Y38681D02*
D03*
X59276Y45768D02*
D03*
Y38681D02*
D03*
X73097Y45768D02*
D03*
Y38681D02*
D03*
X86919Y45768D02*
D03*
Y38681D02*
D03*
X100740Y45768D02*
D03*
Y38681D02*
D03*
X114561Y45768D02*
D03*
Y38681D02*
D03*
X128382Y45768D02*
D03*
Y38681D02*
D03*
X142203Y45768D02*
D03*
Y38681D02*
D03*
X207087Y18504D02*
D03*
Y11417D02*
D03*
X219291Y18504D02*
D03*
Y11417D02*
D03*
D17*
X182854Y35433D02*
D03*
X180354D02*
D03*
X177854D02*
D03*
X175354D02*
D03*
X172854D02*
D03*
X170354D02*
D03*
X167854D02*
D03*
X165354D02*
D03*
X182854Y13976D02*
D03*
X180354D02*
D03*
X177854D02*
D03*
X175354D02*
D03*
X172854D02*
D03*
X170354D02*
D03*
X167854D02*
D03*
X165354D02*
D03*
D18*
X37598Y27854D02*
D03*
X31693D02*
D03*
X51575D02*
D03*
X45669D02*
D03*
X65551D02*
D03*
X59646D02*
D03*
X79527D02*
D03*
X73622D02*
D03*
X93504D02*
D03*
X87598D02*
D03*
X107480D02*
D03*
X101575D02*
D03*
X121457D02*
D03*
X115551D02*
D03*
X135433D02*
D03*
X129527D02*
D03*
X149409D02*
D03*
X143504D02*
D03*
D19*
X191339Y40748D02*
D03*
Y34843D02*
D03*
X233268Y14764D02*
D03*
Y8858D02*
D03*
M02*
