G04*
G04 #@! TF.GenerationSoftware,Altium Limited,Altium Designer,18.0.7 (293)*
G04*
G04 Layer_Color=2752767*
%FSLAX25Y25*%
%MOIN*%
G70*
G01*
G75*
%ADD29C,0.00200*%
%ADD30C,0.00267*%
D29*
X95440Y96838D02*
Y98438D01*
X97040D01*
Y96838D01*
X95440D01*
X85440D02*
Y98438D01*
X87040D01*
Y96838D01*
X85440D01*
X65440D02*
Y98438D01*
X67040D01*
Y96838D01*
X65440D01*
X55440D02*
Y98438D01*
X57040D01*
Y96838D01*
X55440D01*
X45440D02*
Y98438D01*
X47040D01*
Y96838D01*
X45440D01*
X35440D02*
Y98438D01*
X37040D01*
Y96838D01*
X35440D01*
X25440D02*
Y98438D01*
X27040D01*
Y96838D01*
X25440D01*
X15440D02*
Y98438D01*
X17040D01*
Y96838D01*
X15440D01*
X5440D02*
Y98438D01*
X7040D01*
Y96838D01*
X5440D01*
X75440D02*
Y98438D01*
X77040D01*
Y96838D01*
X75440D01*
X83169Y10814D02*
X82369Y12414D01*
X83969D01*
X83169Y10814D01*
X19193D02*
X18393Y12414D01*
X19993D01*
X19193Y10814D01*
X73681Y22822D02*
X74081Y23222D01*
X74481D01*
X74081Y23622D01*
X74481Y24022D01*
X74081D01*
X73681Y24422D01*
X73281Y24022D01*
X72881D01*
X73281Y23622D01*
X72881Y23222D01*
X73281D01*
X73681Y22822D01*
X28681D02*
X29081Y23222D01*
X29481D01*
X29081Y23622D01*
X29481Y24022D01*
X29081D01*
X28681Y24422D01*
X28281Y24022D01*
X27881D01*
X28281Y23622D01*
X27881Y23222D01*
X28281D01*
X28681Y22822D01*
X8058Y23806D02*
X8458Y24606D01*
X8058Y25406D01*
X8858Y25006D01*
X9658Y25406D01*
X9258Y24606D01*
X9658Y23806D01*
X8858Y24206D01*
X8058Y23806D01*
X92704Y59239D02*
X93104Y60039D01*
X92704Y60839D01*
X93504Y60439D01*
X94304Y60839D01*
X93904Y60039D01*
X94304Y59239D01*
X93504Y59639D01*
X92704Y59239D01*
X8058D02*
X8458Y60039D01*
X8058Y60839D01*
X8858Y60439D01*
X9658Y60839D01*
X9258Y60039D01*
X9658Y59239D01*
X8858Y59639D01*
X8058Y59239D01*
X92704Y23806D02*
X93104Y24606D01*
X92704Y25406D01*
X93504Y25006D01*
X94304Y25406D01*
X93904Y24606D01*
X94304Y23806D01*
X93504Y24206D01*
X92704Y23806D01*
D30*
X34481Y48622D02*
X33928Y49383D01*
X33034Y49092D01*
Y48152D01*
X33928Y47861D01*
X34481Y48622D01*
X39481Y58622D02*
X38928Y59383D01*
X38034Y59092D01*
Y58152D01*
X38928Y57861D01*
X39481Y58622D01*
X44481Y48622D02*
X43928Y49383D01*
X43034Y49092D01*
Y48152D01*
X43928Y47861D01*
X44481Y48622D01*
X49481Y58622D02*
X48928Y59383D01*
X48034Y59092D01*
Y58152D01*
X48928Y57861D01*
X49481Y58622D01*
X54481Y48622D02*
X53928Y49383D01*
X53034Y49092D01*
Y48152D01*
X53928Y47861D01*
X54481Y48622D01*
X59481Y58622D02*
X58928Y59383D01*
X58034Y59092D01*
Y58152D01*
X58928Y57861D01*
X59481Y58622D01*
X64481Y48622D02*
X63928Y49383D01*
X63034Y49092D01*
Y48152D01*
X63928Y47861D01*
X64481Y48622D01*
X69481Y58622D02*
X68928Y59383D01*
X68034Y59092D01*
Y58152D01*
X68928Y57861D01*
X69481Y58622D01*
M02*
