M48
;Layer_Color=9474304
;FILE_FORMAT=2:5
INCH,TZ
;TYPE=PLATED
T1F00S00C0.02992
T2F00S00C0.03543
T3F00S00C0.07598
T4F00S00C0.10827
;TYPE=NON_PLATED
T5F00S00C0.12795
%
T01
X33681Y48622
X43681
X53681
X63681
X58681Y58622
X48681
X38681
X68681
T02
X6240Y97638
X16240
X26240
X36240
X46240
X56240
X66240
X76240
X86240
X96240
T03
X19193Y11614
X83169
T04
X8858Y24606
X93504
Y60039
X8858
T05
X28681Y23622
X73681
M30
