G04*
G04 #@! TF.GenerationSoftware,Altium Limited,Altium Designer,18.0.7 (293)*
G04*
G04 Layer_Physical_Order=1*
G04 Layer_Color=255*
%FSLAX25Y25*%
%MOIN*%
G70*
G01*
G75*
%ADD20C,0.01000*%
%ADD21R,0.05906X0.05906*%
%ADD22C,0.05906*%
%ADD23R,0.04992X0.04992*%
%ADD24C,0.04992*%
%ADD25C,0.11398*%
%ADD26C,0.12795*%
%ADD27C,0.12598*%
D20*
X46240Y87677D02*
Y97638D01*
X25787Y67224D02*
X46240Y87677D01*
X25787Y46110D02*
Y67224D01*
X23752Y45317D02*
Y67954D01*
X16240Y75466D02*
X23752Y67954D01*
X16240Y75466D02*
Y97638D01*
X21752Y44488D02*
Y67126D01*
X6240Y82638D02*
X21752Y67126D01*
X6240Y82638D02*
Y97638D01*
X29905Y41992D02*
X47051D01*
X25787Y46110D02*
X29905Y41992D01*
X29076Y39992D02*
X52223D01*
X23752Y45317D02*
X29076Y39992D01*
X28248Y37992D02*
X53051D01*
X21752Y44488D02*
X28248Y37992D01*
X47051Y41992D02*
X53681Y48622D01*
X52223Y39992D02*
X58681Y46450D01*
X76240Y86181D02*
Y97638D01*
X48681Y58622D02*
X76240Y86181D01*
X56240Y76181D02*
Y97638D01*
X38681Y58622D02*
X56240Y76181D01*
X66240Y82776D02*
Y97638D01*
X43681Y60216D02*
X66240Y82776D01*
X43681Y48622D02*
Y60216D01*
X58681Y46450D02*
Y58622D01*
X53051Y37992D02*
X63681Y48622D01*
X86240Y76181D02*
Y97638D01*
X68681Y58622D02*
X86240Y76181D01*
D21*
X96240Y97638D02*
D03*
D22*
X86240D02*
D03*
X66240D02*
D03*
X56240D02*
D03*
X46240D02*
D03*
X36240D02*
D03*
X26240D02*
D03*
X16240D02*
D03*
X6240D02*
D03*
X76240D02*
D03*
D23*
X33681Y48622D02*
D03*
D24*
X38681Y58622D02*
D03*
X43681Y48622D02*
D03*
X48681Y58622D02*
D03*
X53681Y48622D02*
D03*
X58681Y58622D02*
D03*
X63681Y48622D02*
D03*
X68681Y58622D02*
D03*
D25*
X83169Y11614D02*
D03*
X19193D02*
D03*
D26*
X73681Y23622D02*
D03*
X28681D02*
D03*
D27*
X8858Y24606D02*
D03*
X93504Y60039D02*
D03*
X8858D02*
D03*
X93504Y24606D02*
D03*
M02*
